<?xml version="1.0" encoding="utf-8" standalone="no"?>
<!DOCTYPE svg PUBLIC "-//W3C//DTD SVG 1.1//EN"
  "http://www.w3.org/Graphics/SVG/1.1/DTD/svg11.dtd">
<svg xmlns:xlink="http://www.w3.org/1999/xlink" width="1071.379085pt" height="348.356719pt" viewBox="0 0 1071.379085 348.356719" xmlns="http://www.w3.org/2000/svg" version="1.1">
 <metadata>
  <rdf:RDF xmlns:dc="http://purl.org/dc/elements/1.1/" xmlns:cc="http://creativecommons.org/ns#" xmlns:rdf="http://www.w3.org/1999/02/22-rdf-syntax-ns#">
   <cc:Work>
    <dc:type rdf:resource="http://purl.org/dc/dcmitype/StillImage"/>
    <dc:date>2026-05-21T16:52:53.781932</dc:date>
    <dc:format>image/svg+xml</dc:format>
    <dc:creator>
     <cc:Agent>
      <dc:title>Matplotlib v3.10.9, https://matplotlib.org/</dc:title>
     </cc:Agent>
    </dc:creator>
   </cc:Work>
  </rdf:RDF>
 </metadata>
 <defs>
  <style type="text/css">*{stroke-linejoin: round; stroke-linecap: butt}</style>
 </defs>
 <g id="figure_1">
  <g id="patch_1">
   <path d="M 0 348.356719 
L 1071.379085 348.356719 
L 1071.379085 0 
L 0 0 
z
" style="fill: #ffffff"/>
  </g>
  <g id="axes_1">
   <g id="patch_2">
    <path d="M 46.964375 306.196875 
L 317.235699 306.196875 
L 317.235699 21.935625 
L 46.964375 21.935625 
z
" style="fill: #ffffff"/>
   </g>
   <g id="matplotlib.axis_1">
    <g id="xtick_1">
     <g id="line2d_1">
      <path d="M 59.249435 306.196875 
L 59.249435 21.935625 
" clip-path="url(#p40500fdb67)" style="fill: none; stroke: #cccccc; stroke-linecap: round"/>
     </g>
     <g id="text_1">
      <!-- 0.1 -->
      <g style="fill: #262626" transform="translate(51.604435 323.570469) scale(0.11 -0.11)">
       <defs>
        <path id="ArialMT-30" d="M 266 2259 
Q 266 3072 433 3567 
Q 600 4063 929 4331 
Q 1259 4600 1759 4600 
Q 2128 4600 2406 4451 
Q 2684 4303 2865 4023 
Q 3047 3744 3150 3342 
Q 3253 2941 3253 2259 
Q 3253 1453 3087 958 
Q 2922 463 2592 192 
Q 2263 -78 1759 -78 
Q 1097 -78 719 397 
Q 266 969 266 2259 
z
M 844 2259 
Q 844 1131 1108 757 
Q 1372 384 1759 384 
Q 2147 384 2411 759 
Q 2675 1134 2675 2259 
Q 2675 3391 2411 3762 
Q 2147 4134 1753 4134 
Q 1366 4134 1134 3806 
Q 844 3388 844 2259 
z
" transform="scale(0.015625)"/>
        <path id="ArialMT-2e" d="M 581 0 
L 581 641 
L 1222 641 
L 1222 0 
L 581 0 
z
" transform="scale(0.015625)"/>
        <path id="ArialMT-31" d="M 2384 0 
L 1822 0 
L 1822 3584 
Q 1619 3391 1289 3197 
Q 959 3003 697 2906 
L 697 3450 
Q 1169 3672 1522 3987 
Q 1875 4303 2022 4600 
L 2384 4600 
L 2384 0 
z
" transform="scale(0.015625)"/>
       </defs>
       <use xlink:href="#ArialMT-30"/>
       <use xlink:href="#ArialMT-2e" transform="translate(55.615234 0)"/>
       <use xlink:href="#ArialMT-31" transform="translate(83.398438 0)"/>
      </g>
     </g>
    </g>
    <g id="xtick_2">
     <g id="line2d_2">
      <path d="M 86.549569 306.196875 
L 86.549569 21.935625 
" clip-path="url(#p40500fdb67)" style="fill: none; stroke: #cccccc; stroke-linecap: round"/>
     </g>
     <g id="text_2">
      <!-- 0.2 -->
      <g style="fill: #262626" transform="translate(78.904569 323.570469) scale(0.11 -0.11)">
       <defs>
        <path id="ArialMT-32" d="M 3222 541 
L 3222 0 
L 194 0 
Q 188 203 259 391 
Q 375 700 629 1000 
Q 884 1300 1366 1694 
Q 2113 2306 2375 2664 
Q 2638 3022 2638 3341 
Q 2638 3675 2398 3904 
Q 2159 4134 1775 4134 
Q 1369 4134 1125 3890 
Q 881 3647 878 3216 
L 300 3275 
Q 359 3922 746 4261 
Q 1134 4600 1788 4600 
Q 2447 4600 2831 4234 
Q 3216 3869 3216 3328 
Q 3216 3053 3103 2787 
Q 2991 2522 2730 2228 
Q 2469 1934 1863 1422 
Q 1356 997 1212 845 
Q 1069 694 975 541 
L 3222 541 
z
" transform="scale(0.015625)"/>
       </defs>
       <use xlink:href="#ArialMT-30"/>
       <use xlink:href="#ArialMT-2e" transform="translate(55.615234 0)"/>
       <use xlink:href="#ArialMT-32" transform="translate(83.398438 0)"/>
      </g>
     </g>
    </g>
    <g id="xtick_3">
     <g id="line2d_3">
      <path d="M 168.44997 306.196875 
L 168.44997 21.935625 
" clip-path="url(#p40500fdb67)" style="fill: none; stroke: #cccccc; stroke-linecap: round"/>
     </g>
     <g id="text_3">
      <!-- 0.5 -->
      <g style="fill: #262626" transform="translate(160.80497 323.570469) scale(0.11 -0.11)">
       <defs>
        <path id="ArialMT-35" d="M 266 1200 
L 856 1250 
Q 922 819 1161 601 
Q 1400 384 1738 384 
Q 2144 384 2425 690 
Q 2706 997 2706 1503 
Q 2706 1984 2436 2262 
Q 2166 2541 1728 2541 
Q 1456 2541 1237 2417 
Q 1019 2294 894 2097 
L 366 2166 
L 809 4519 
L 3088 4519 
L 3088 3981 
L 1259 3981 
L 1013 2750 
Q 1425 3038 1878 3038 
Q 2478 3038 2890 2622 
Q 3303 2206 3303 1553 
Q 3303 931 2941 478 
Q 2500 -78 1738 -78 
Q 1113 -78 717 272 
Q 322 622 266 1200 
z
" transform="scale(0.015625)"/>
       </defs>
       <use xlink:href="#ArialMT-30"/>
       <use xlink:href="#ArialMT-2e" transform="translate(55.615234 0)"/>
       <use xlink:href="#ArialMT-35" transform="translate(83.398438 0)"/>
      </g>
     </g>
    </g>
    <g id="xtick_4">
     <g id="line2d_4">
      <path d="M 304.950638 306.196875 
L 304.950638 21.935625 
" clip-path="url(#p40500fdb67)" style="fill: none; stroke: #cccccc; stroke-linecap: round"/>
     </g>
     <g id="text_4">
      <!-- 1.0 -->
      <g style="fill: #262626" transform="translate(297.305638 323.570469) scale(0.11 -0.11)">
       <use xlink:href="#ArialMT-31"/>
       <use xlink:href="#ArialMT-2e" transform="translate(55.615234 0)"/>
       <use xlink:href="#ArialMT-30" transform="translate(83.398438 0)"/>
      </g>
     </g>
    </g>
    <g id="text_5">
     <!-- Threshold $\tau$ (mm/day) -->
     <g style="fill: #262626" transform="translate(123.120037 338.516719) scale(0.12 -0.12)">
      <defs>
       <path id="ArialMT-54" d="M 1659 0 
L 1659 4041 
L 150 4041 
L 150 4581 
L 3781 4581 
L 3781 4041 
L 2266 4041 
L 2266 0 
L 1659 0 
z
" transform="scale(0.015625)"/>
       <path id="ArialMT-68" d="M 422 0 
L 422 4581 
L 984 4581 
L 984 2938 
Q 1378 3394 1978 3394 
Q 2347 3394 2619 3248 
Q 2891 3103 3008 2847 
Q 3125 2591 3125 2103 
L 3125 0 
L 2563 0 
L 2563 2103 
Q 2563 2525 2380 2717 
Q 2197 2909 1863 2909 
Q 1613 2909 1392 2779 
Q 1172 2650 1078 2428 
Q 984 2206 984 1816 
L 984 0 
L 422 0 
z
" transform="scale(0.015625)"/>
       <path id="ArialMT-72" d="M 416 0 
L 416 3319 
L 922 3319 
L 922 2816 
Q 1116 3169 1280 3281 
Q 1444 3394 1641 3394 
Q 1925 3394 2219 3213 
L 2025 2691 
Q 1819 2813 1613 2813 
Q 1428 2813 1281 2702 
Q 1134 2591 1072 2394 
Q 978 2094 978 1738 
L 978 0 
L 416 0 
z
" transform="scale(0.015625)"/>
       <path id="ArialMT-65" d="M 2694 1069 
L 3275 997 
Q 3138 488 2766 206 
Q 2394 -75 1816 -75 
Q 1088 -75 661 373 
Q 234 822 234 1631 
Q 234 2469 665 2931 
Q 1097 3394 1784 3394 
Q 2450 3394 2872 2941 
Q 3294 2488 3294 1666 
Q 3294 1616 3291 1516 
L 816 1516 
Q 847 969 1125 678 
Q 1403 388 1819 388 
Q 2128 388 2347 550 
Q 2566 713 2694 1069 
z
M 847 1978 
L 2700 1978 
Q 2663 2397 2488 2606 
Q 2219 2931 1791 2931 
Q 1403 2931 1139 2672 
Q 875 2413 847 1978 
z
" transform="scale(0.015625)"/>
       <path id="ArialMT-73" d="M 197 991 
L 753 1078 
Q 800 744 1014 566 
Q 1228 388 1613 388 
Q 2000 388 2187 545 
Q 2375 703 2375 916 
Q 2375 1106 2209 1216 
Q 2094 1291 1634 1406 
Q 1016 1563 777 1677 
Q 538 1791 414 1992 
Q 291 2194 291 2438 
Q 291 2659 392 2848 
Q 494 3038 669 3163 
Q 800 3259 1026 3326 
Q 1253 3394 1513 3394 
Q 1903 3394 2198 3281 
Q 2494 3169 2634 2976 
Q 2775 2784 2828 2463 
L 2278 2388 
Q 2241 2644 2061 2787 
Q 1881 2931 1553 2931 
Q 1166 2931 1000 2803 
Q 834 2675 834 2503 
Q 834 2394 903 2306 
Q 972 2216 1119 2156 
Q 1203 2125 1616 2013 
Q 2213 1853 2448 1751 
Q 2684 1650 2818 1456 
Q 2953 1263 2953 975 
Q 2953 694 2789 445 
Q 2625 197 2315 61 
Q 2006 -75 1616 -75 
Q 969 -75 630 194 
Q 291 463 197 991 
z
" transform="scale(0.015625)"/>
       <path id="ArialMT-6f" d="M 213 1659 
Q 213 2581 725 3025 
Q 1153 3394 1769 3394 
Q 2453 3394 2887 2945 
Q 3322 2497 3322 1706 
Q 3322 1066 3130 698 
Q 2938 331 2570 128 
Q 2203 -75 1769 -75 
Q 1072 -75 642 372 
Q 213 819 213 1659 
z
M 791 1659 
Q 791 1022 1069 705 
Q 1347 388 1769 388 
Q 2188 388 2466 706 
Q 2744 1025 2744 1678 
Q 2744 2294 2464 2611 
Q 2184 2928 1769 2928 
Q 1347 2928 1069 2612 
Q 791 2297 791 1659 
z
" transform="scale(0.015625)"/>
       <path id="ArialMT-6c" d="M 409 0 
L 409 4581 
L 972 4581 
L 972 0 
L 409 0 
z
" transform="scale(0.015625)"/>
       <path id="ArialMT-64" d="M 2575 0 
L 2575 419 
Q 2259 -75 1647 -75 
Q 1250 -75 917 144 
Q 584 363 401 755 
Q 219 1147 219 1656 
Q 219 2153 384 2558 
Q 550 2963 881 3178 
Q 1213 3394 1622 3394 
Q 1922 3394 2156 3267 
Q 2391 3141 2538 2938 
L 2538 4581 
L 3097 4581 
L 3097 0 
L 2575 0 
z
M 797 1656 
Q 797 1019 1065 703 
Q 1334 388 1700 388 
Q 2069 388 2326 689 
Q 2584 991 2584 1609 
Q 2584 2291 2321 2609 
Q 2059 2928 1675 2928 
Q 1300 2928 1048 2622 
Q 797 2316 797 1656 
z
" transform="scale(0.015625)"/>
       <path id="ArialMT-20" transform="scale(0.015625)"/>
       <path id="DejaVuSans-Oblique-3c4" d="M 2103 638 
Q 2188 488 2525 488 
L 2800 488 
L 2706 0 
L 2363 0 
Q 1800 0 1600 300 
Q 1403 606 1534 1269 
L 1856 2925 
L 541 2925 
L 653 3500 
L 3881 3500 
L 3769 2925 
L 2444 2925 
L 2113 1234 
Q 2025 781 2103 638 
z
" transform="scale(0.015625)"/>
       <path id="ArialMT-28" d="M 1497 -1347 
Q 1031 -759 709 28 
Q 388 816 388 1659 
Q 388 2403 628 3084 
Q 909 3875 1497 4659 
L 1900 4659 
Q 1522 4009 1400 3731 
Q 1209 3300 1100 2831 
Q 966 2247 966 1656 
Q 966 153 1900 -1347 
L 1497 -1347 
z
" transform="scale(0.015625)"/>
       <path id="ArialMT-6d" d="M 422 0 
L 422 3319 
L 925 3319 
L 925 2853 
Q 1081 3097 1340 3245 
Q 1600 3394 1931 3394 
Q 2300 3394 2536 3241 
Q 2772 3088 2869 2813 
Q 3263 3394 3894 3394 
Q 4388 3394 4653 3120 
Q 4919 2847 4919 2278 
L 4919 0 
L 4359 0 
L 4359 2091 
Q 4359 2428 4304 2576 
Q 4250 2725 4106 2815 
Q 3963 2906 3769 2906 
Q 3419 2906 3187 2673 
Q 2956 2441 2956 1928 
L 2956 0 
L 2394 0 
L 2394 2156 
Q 2394 2531 2256 2718 
Q 2119 2906 1806 2906 
Q 1569 2906 1367 2781 
Q 1166 2656 1075 2415 
Q 984 2175 984 1722 
L 984 0 
L 422 0 
z
" transform="scale(0.015625)"/>
       <path id="ArialMT-2f" d="M 0 -78 
L 1328 4659 
L 1778 4659 
L 453 -78 
L 0 -78 
z
" transform="scale(0.015625)"/>
       <path id="ArialMT-61" d="M 2588 409 
Q 2275 144 1986 34 
Q 1697 -75 1366 -75 
Q 819 -75 525 192 
Q 231 459 231 875 
Q 231 1119 342 1320 
Q 453 1522 633 1644 
Q 813 1766 1038 1828 
Q 1203 1872 1538 1913 
Q 2219 1994 2541 2106 
Q 2544 2222 2544 2253 
Q 2544 2597 2384 2738 
Q 2169 2928 1744 2928 
Q 1347 2928 1158 2789 
Q 969 2650 878 2297 
L 328 2372 
Q 403 2725 575 2942 
Q 747 3159 1072 3276 
Q 1397 3394 1825 3394 
Q 2250 3394 2515 3294 
Q 2781 3194 2906 3042 
Q 3031 2891 3081 2659 
Q 3109 2516 3109 2141 
L 3109 1391 
Q 3109 606 3145 398 
Q 3181 191 3288 0 
L 2700 0 
Q 2613 175 2588 409 
z
M 2541 1666 
Q 2234 1541 1622 1453 
Q 1275 1403 1131 1340 
Q 988 1278 909 1158 
Q 831 1038 831 891 
Q 831 666 1001 516 
Q 1172 366 1500 366 
Q 1825 366 2078 508 
Q 2331 650 2450 897 
Q 2541 1088 2541 1459 
L 2541 1666 
z
" transform="scale(0.015625)"/>
       <path id="ArialMT-79" d="M 397 -1278 
L 334 -750 
Q 519 -800 656 -800 
Q 844 -800 956 -737 
Q 1069 -675 1141 -563 
Q 1194 -478 1313 -144 
Q 1328 -97 1363 -6 
L 103 3319 
L 709 3319 
L 1400 1397 
Q 1534 1031 1641 628 
Q 1738 1016 1872 1384 
L 2581 3319 
L 3144 3319 
L 1881 -56 
Q 1678 -603 1566 -809 
Q 1416 -1088 1222 -1217 
Q 1028 -1347 759 -1347 
Q 597 -1347 397 -1278 
z
" transform="scale(0.015625)"/>
       <path id="ArialMT-29" d="M 791 -1347 
L 388 -1347 
Q 1322 153 1322 1656 
Q 1322 2244 1188 2822 
Q 1081 3291 891 3722 
Q 769 4003 388 4659 
L 791 4659 
Q 1378 3875 1659 3084 
Q 1900 2403 1900 1659 
Q 1900 816 1576 28 
Q 1253 -759 791 -1347 
z
" transform="scale(0.015625)"/>
      </defs>
      <use xlink:href="#ArialMT-54" transform="translate(0 0.203125)"/>
      <use xlink:href="#ArialMT-68" transform="translate(61.083984 0.203125)"/>
      <use xlink:href="#ArialMT-72" transform="translate(116.699219 0.203125)"/>
      <use xlink:href="#ArialMT-65" transform="translate(150 0.203125)"/>
      <use xlink:href="#ArialMT-73" transform="translate(205.615234 0.203125)"/>
      <use xlink:href="#ArialMT-68" transform="translate(255.615234 0.203125)"/>
      <use xlink:href="#ArialMT-6f" transform="translate(311.230469 0.203125)"/>
      <use xlink:href="#ArialMT-6c" transform="translate(366.845703 0.203125)"/>
      <use xlink:href="#ArialMT-64" transform="translate(389.0625 0.203125)"/>
      <use xlink:href="#ArialMT-20" transform="translate(444.677734 0.203125)"/>
      <use xlink:href="#DejaVuSans-Oblique-3c4" transform="translate(472.460938 0.203125)"/>
      <use xlink:href="#ArialMT-20" transform="translate(532.666016 0.203125)"/>
      <use xlink:href="#ArialMT-28" transform="translate(560.449219 0.203125)"/>
      <use xlink:href="#ArialMT-6d" transform="translate(593.75 0.203125)"/>
      <use xlink:href="#ArialMT-6d" transform="translate(677.050781 0.203125)"/>
      <use xlink:href="#ArialMT-2f" transform="translate(760.351562 0.203125)"/>
      <use xlink:href="#ArialMT-64" transform="translate(788.134766 0.203125)"/>
      <use xlink:href="#ArialMT-61" transform="translate(843.75 0.203125)"/>
      <use xlink:href="#ArialMT-79" transform="translate(899.365234 0.203125)"/>
      <use xlink:href="#ArialMT-29" transform="translate(949.365234 0.203125)"/>
     </g>
    </g>
   </g>
   <g id="matplotlib.axis_2">
    <g id="ytick_1">
     <g id="line2d_5">
      <path d="M 46.964375 302.112246 
L 317.235699 302.112246 
" clip-path="url(#p40500fdb67)" style="fill: none; stroke: #cccccc; stroke-linecap: round"/>
     </g>
     <g id="text_6">
      <!-- 0.3 -->
      <g style="fill: #262626" transform="translate(22.174375 306.049043) scale(0.11 -0.11)">
       <defs>
        <path id="ArialMT-33" d="M 269 1209 
L 831 1284 
Q 928 806 1161 595 
Q 1394 384 1728 384 
Q 2125 384 2398 659 
Q 2672 934 2672 1341 
Q 2672 1728 2419 1979 
Q 2166 2231 1775 2231 
Q 1616 2231 1378 2169 
L 1441 2663 
Q 1497 2656 1531 2656 
Q 1891 2656 2178 2843 
Q 2466 3031 2466 3422 
Q 2466 3731 2256 3934 
Q 2047 4138 1716 4138 
Q 1388 4138 1169 3931 
Q 950 3725 888 3313 
L 325 3413 
Q 428 3978 793 4289 
Q 1159 4600 1703 4600 
Q 2078 4600 2393 4439 
Q 2709 4278 2876 4000 
Q 3044 3722 3044 3409 
Q 3044 3113 2884 2869 
Q 2725 2625 2413 2481 
Q 2819 2388 3044 2092 
Q 3269 1797 3269 1353 
Q 3269 753 2831 336 
Q 2394 -81 1725 -81 
Q 1122 -81 723 278 
Q 325 638 269 1209 
z
" transform="scale(0.015625)"/>
       </defs>
       <use xlink:href="#ArialMT-30"/>
       <use xlink:href="#ArialMT-2e" transform="translate(55.615234 0)"/>
       <use xlink:href="#ArialMT-33" transform="translate(83.398438 0)"/>
      </g>
     </g>
    </g>
    <g id="ytick_2">
     <g id="line2d_6">
      <path d="M 46.964375 242.85945 
L 317.235699 242.85945 
" clip-path="url(#p40500fdb67)" style="fill: none; stroke: #cccccc; stroke-linecap: round"/>
     </g>
     <g id="text_7">
      <!-- 0.4 -->
      <g style="fill: #262626" transform="translate(22.174375 246.796247) scale(0.11 -0.11)">
       <defs>
        <path id="ArialMT-34" d="M 2069 0 
L 2069 1097 
L 81 1097 
L 81 1613 
L 2172 4581 
L 2631 4581 
L 2631 1613 
L 3250 1613 
L 3250 1097 
L 2631 1097 
L 2631 0 
L 2069 0 
z
M 2069 1613 
L 2069 3678 
L 634 1613 
L 2069 1613 
z
" transform="scale(0.015625)"/>
       </defs>
       <use xlink:href="#ArialMT-30"/>
       <use xlink:href="#ArialMT-2e" transform="translate(55.615234 0)"/>
       <use xlink:href="#ArialMT-34" transform="translate(83.398438 0)"/>
      </g>
     </g>
    </g>
    <g id="ytick_3">
     <g id="line2d_7">
      <path d="M 46.964375 183.606655 
L 317.235699 183.606655 
" clip-path="url(#p40500fdb67)" style="fill: none; stroke: #cccccc; stroke-linecap: round"/>
     </g>
     <g id="text_8">
      <!-- 0.5 -->
      <g style="fill: #262626" transform="translate(22.174375 187.543452) scale(0.11 -0.11)">
       <use xlink:href="#ArialMT-30"/>
       <use xlink:href="#ArialMT-2e" transform="translate(55.615234 0)"/>
       <use xlink:href="#ArialMT-35" transform="translate(83.398438 0)"/>
      </g>
     </g>
    </g>
    <g id="ytick_4">
     <g id="line2d_8">
      <path d="M 46.964375 124.353859 
L 317.235699 124.353859 
" clip-path="url(#p40500fdb67)" style="fill: none; stroke: #cccccc; stroke-linecap: round"/>
     </g>
     <g id="text_9">
      <!-- 0.6 -->
      <g style="fill: #262626" transform="translate(22.174375 128.290656) scale(0.11 -0.11)">
       <defs>
        <path id="ArialMT-36" d="M 3184 3459 
L 2625 3416 
Q 2550 3747 2413 3897 
Q 2184 4138 1850 4138 
Q 1581 4138 1378 3988 
Q 1113 3794 959 3422 
Q 806 3050 800 2363 
Q 1003 2672 1297 2822 
Q 1591 2972 1913 2972 
Q 2475 2972 2870 2558 
Q 3266 2144 3266 1488 
Q 3266 1056 3080 686 
Q 2894 316 2569 119 
Q 2244 -78 1831 -78 
Q 1128 -78 684 439 
Q 241 956 241 2144 
Q 241 3472 731 4075 
Q 1159 4600 1884 4600 
Q 2425 4600 2770 4297 
Q 3116 3994 3184 3459 
z
M 888 1484 
Q 888 1194 1011 928 
Q 1134 663 1356 523 
Q 1578 384 1822 384 
Q 2178 384 2434 671 
Q 2691 959 2691 1453 
Q 2691 1928 2437 2201 
Q 2184 2475 1800 2475 
Q 1419 2475 1153 2201 
Q 888 1928 888 1484 
z
" transform="scale(0.015625)"/>
       </defs>
       <use xlink:href="#ArialMT-30"/>
       <use xlink:href="#ArialMT-2e" transform="translate(55.615234 0)"/>
       <use xlink:href="#ArialMT-36" transform="translate(83.398438 0)"/>
      </g>
     </g>
    </g>
    <g id="ytick_5">
     <g id="line2d_9">
      <path d="M 46.964375 65.101064 
L 317.235699 65.101064 
" clip-path="url(#p40500fdb67)" style="fill: none; stroke: #cccccc; stroke-linecap: round"/>
     </g>
     <g id="text_10">
      <!-- 0.7 -->
      <g style="fill: #262626" transform="translate(22.174375 69.037861) scale(0.11 -0.11)">
       <defs>
        <path id="ArialMT-37" d="M 303 3981 
L 303 4522 
L 3269 4522 
L 3269 4084 
Q 2831 3619 2401 2847 
Q 1972 2075 1738 1259 
Q 1569 684 1522 0 
L 944 0 
Q 953 541 1156 1306 
Q 1359 2072 1739 2783 
Q 2119 3494 2547 3981 
L 303 3981 
z
" transform="scale(0.015625)"/>
       </defs>
       <use xlink:href="#ArialMT-30"/>
       <use xlink:href="#ArialMT-2e" transform="translate(55.615234 0)"/>
       <use xlink:href="#ArialMT-37" transform="translate(83.398438 0)"/>
      </g>
     </g>
    </g>
    <g id="text_11">
     <!-- F1 Score -->
     <g style="fill: #262626" transform="translate(15.789375 188.4075) rotate(-90) scale(0.12 -0.12)">
      <defs>
       <path id="ArialMT-46" d="M 525 0 
L 525 4581 
L 3616 4581 
L 3616 4041 
L 1131 4041 
L 1131 2622 
L 3281 2622 
L 3281 2081 
L 1131 2081 
L 1131 0 
L 525 0 
z
" transform="scale(0.015625)"/>
       <path id="ArialMT-53" d="M 288 1472 
L 859 1522 
Q 900 1178 1048 958 
Q 1197 738 1509 602 
Q 1822 466 2213 466 
Q 2559 466 2825 569 
Q 3091 672 3220 851 
Q 3350 1031 3350 1244 
Q 3350 1459 3225 1620 
Q 3100 1781 2813 1891 
Q 2628 1963 1997 2114 
Q 1366 2266 1113 2400 
Q 784 2572 623 2826 
Q 463 3081 463 3397 
Q 463 3744 659 4045 
Q 856 4347 1234 4503 
Q 1613 4659 2075 4659 
Q 2584 4659 2973 4495 
Q 3363 4331 3572 4012 
Q 3781 3694 3797 3291 
L 3216 3247 
Q 3169 3681 2898 3903 
Q 2628 4125 2100 4125 
Q 1550 4125 1298 3923 
Q 1047 3722 1047 3438 
Q 1047 3191 1225 3031 
Q 1400 2872 2139 2705 
Q 2878 2538 3153 2413 
Q 3553 2228 3743 1945 
Q 3934 1663 3934 1294 
Q 3934 928 3725 604 
Q 3516 281 3123 101 
Q 2731 -78 2241 -78 
Q 1619 -78 1198 103 
Q 778 284 539 648 
Q 300 1013 288 1472 
z
" transform="scale(0.015625)"/>
       <path id="ArialMT-63" d="M 2588 1216 
L 3141 1144 
Q 3050 572 2676 248 
Q 2303 -75 1759 -75 
Q 1078 -75 664 370 
Q 250 816 250 1647 
Q 250 2184 428 2587 
Q 606 2991 970 3192 
Q 1334 3394 1763 3394 
Q 2303 3394 2647 3120 
Q 2991 2847 3088 2344 
L 2541 2259 
Q 2463 2594 2264 2762 
Q 2066 2931 1784 2931 
Q 1359 2931 1093 2626 
Q 828 2322 828 1663 
Q 828 994 1084 691 
Q 1341 388 1753 388 
Q 2084 388 2306 591 
Q 2528 794 2588 1216 
z
" transform="scale(0.015625)"/>
      </defs>
      <use xlink:href="#ArialMT-46"/>
      <use xlink:href="#ArialMT-31" transform="translate(61.083984 0)"/>
      <use xlink:href="#ArialMT-20" transform="translate(116.699219 0)"/>
      <use xlink:href="#ArialMT-53" transform="translate(144.482422 0)"/>
      <use xlink:href="#ArialMT-63" transform="translate(211.181641 0)"/>
      <use xlink:href="#ArialMT-6f" transform="translate(261.181641 0)"/>
      <use xlink:href="#ArialMT-72" transform="translate(316.796875 0)"/>
      <use xlink:href="#ArialMT-65" transform="translate(350.097656 0)"/>
     </g>
    </g>
   </g>
   <g id="FillBetweenPolyCollection_1"/>
   <g id="FillBetweenPolyCollection_2"/>
   <g id="FillBetweenPolyCollection_3"/>
   <g id="FillBetweenPolyCollection_4"/>
   <g id="FillBetweenPolyCollection_5"/>
   <g id="FillBetweenPolyCollection_6"/>
   <g id="FillBetweenPolyCollection_7"/>
   <g id="line2d_10">
    <path d="M 59.249435 190.852241 
L 86.549569 193.29376 
L 168.44997 260.383703 
L 304.950638 293.275909 
" clip-path="url(#p40500fdb67)" style="fill: none; stroke: #0173b2; stroke-width: 2.5; stroke-linecap: round"/>
    <defs>
     <path id="mfde99ecaee" d="M 0 4 
C 1.060812 4 2.078319 3.578535 2.828427 2.828427 
C 3.578535 2.078319 4 1.060812 4 0 
C 4 -1.060812 3.578535 -2.078319 2.828427 -2.828427 
C 2.078319 -3.578535 1.060812 -4 0 -4 
C -1.060812 -4 -2.078319 -3.578535 -2.828427 -2.828427 
C -3.578535 -2.078319 -4 -1.060812 -4 0 
C -4 1.060812 -3.578535 2.078319 -2.828427 2.828427 
C -2.078319 3.578535 -1.060812 4 0 4 
z
" style="stroke: #ffffff; stroke-width: 0.75"/>
    </defs>
    <g clip-path="url(#p40500fdb67)">
     <use xlink:href="#mfde99ecaee" x="59.249435" y="190.852241" style="fill: #0173b2; stroke: #ffffff; stroke-width: 0.75"/>
     <use xlink:href="#mfde99ecaee" x="86.549569" y="193.29376" style="fill: #0173b2; stroke: #ffffff; stroke-width: 0.75"/>
     <use xlink:href="#mfde99ecaee" x="168.44997" y="260.383703" style="fill: #0173b2; stroke: #ffffff; stroke-width: 0.75"/>
     <use xlink:href="#mfde99ecaee" x="304.950638" y="293.275909" style="fill: #0173b2; stroke: #ffffff; stroke-width: 0.75"/>
    </g>
   </g>
   <g id="line2d_11">
    <path d="M 59.249435 57.854319 
L 86.549569 50.662633 
L 168.44997 62.33798 
L 304.950638 93.866944 
" clip-path="url(#p40500fdb67)" style="fill: none; stroke: #de8f05; stroke-width: 2.5; stroke-linecap: round"/>
    <defs>
     <path id="m7945c40033" d="M -4 4 
L 4 4 
L 4 -4 
L -4 -4 
z
" style="stroke: #ffffff; stroke-width: 0.75; stroke-linejoin: miter"/>
    </defs>
    <g clip-path="url(#p40500fdb67)">
     <use xlink:href="#m7945c40033" x="59.249435" y="57.854319" style="fill: #de8f05; stroke: #ffffff; stroke-width: 0.75; stroke-linejoin: miter"/>
     <use xlink:href="#m7945c40033" x="86.549569" y="50.662633" style="fill: #de8f05; stroke: #ffffff; stroke-width: 0.75; stroke-linejoin: miter"/>
     <use xlink:href="#m7945c40033" x="168.44997" y="62.33798" style="fill: #de8f05; stroke: #ffffff; stroke-width: 0.75; stroke-linejoin: miter"/>
     <use xlink:href="#m7945c40033" x="304.950638" y="93.866944" style="fill: #de8f05; stroke: #ffffff; stroke-width: 0.75; stroke-linejoin: miter"/>
    </g>
   </g>
   <g id="line2d_12">
    <path d="M 59.249435 174.273797 
L 86.549569 170.608689 
L 168.44997 224.208703 
L 304.950638 223.312136 
" clip-path="url(#p40500fdb67)" style="fill: none; stroke: #029e73; stroke-width: 2.5; stroke-linecap: round"/>
    <defs>
     <path id="m4ad3c8e927" d="M 0 -4 
L -4 4 
L 4 4 
z
" style="stroke: #ffffff; stroke-width: 0.75; stroke-linejoin: miter"/>
    </defs>
    <g clip-path="url(#p40500fdb67)">
     <use xlink:href="#m4ad3c8e927" x="59.249435" y="174.273797" style="fill: #029e73; stroke: #ffffff; stroke-width: 0.75; stroke-linejoin: miter"/>
     <use xlink:href="#m4ad3c8e927" x="86.549569" y="170.608689" style="fill: #029e73; stroke: #ffffff; stroke-width: 0.75; stroke-linejoin: miter"/>
     <use xlink:href="#m4ad3c8e927" x="168.44997" y="224.208703" style="fill: #029e73; stroke: #ffffff; stroke-width: 0.75; stroke-linejoin: miter"/>
     <use xlink:href="#m4ad3c8e927" x="304.950638" y="223.312136" style="fill: #029e73; stroke: #ffffff; stroke-width: 0.75; stroke-linejoin: miter"/>
    </g>
   </g>
   <g id="line2d_13">
    <path d="M 59.249435 150.688435 
L 86.549569 152.653702 
L 168.44997 211.493572 
L 304.950638 237.775451 
" clip-path="url(#p40500fdb67)" style="fill: none; stroke: #d55e00; stroke-width: 2.5; stroke-linecap: round"/>
    <defs>
     <path id="m92af06ccf8" d="M 0 5.656854 
L 5.656854 0 
L 0 -5.656854 
L -5.656854 0 
z
" style="stroke: #ffffff; stroke-width: 0.75; stroke-linejoin: miter"/>
    </defs>
    <g clip-path="url(#p40500fdb67)">
     <use xlink:href="#m92af06ccf8" x="59.249435" y="150.688435" style="fill: #d55e00; stroke: #ffffff; stroke-width: 0.75; stroke-linejoin: miter"/>
     <use xlink:href="#m92af06ccf8" x="86.549569" y="152.653702" style="fill: #d55e00; stroke: #ffffff; stroke-width: 0.75; stroke-linejoin: miter"/>
     <use xlink:href="#m92af06ccf8" x="168.44997" y="211.493572" style="fill: #d55e00; stroke: #ffffff; stroke-width: 0.75; stroke-linejoin: miter"/>
     <use xlink:href="#m92af06ccf8" x="304.950638" y="237.775451" style="fill: #d55e00; stroke: #ffffff; stroke-width: 0.75; stroke-linejoin: miter"/>
    </g>
   </g>
   <g id="line2d_14">
    <path d="M 59.249435 190.852241 
L 86.549569 193.29376 
L 168.44997 256.560547 
L 304.950638 271.943707 
" clip-path="url(#p40500fdb67)" style="fill: none; stroke: #cc78bc; stroke-width: 2.5; stroke-linecap: round"/>
    <defs>
     <path id="m0f9fd03416" d="M -1.333333 4 
L 1.333333 4 
L 1.333333 1.333333 
L 4 1.333333 
L 4 -1.333333 
L 1.333333 -1.333333 
L 1.333333 -4 
L -1.333333 -4 
L -1.333333 -1.333333 
L -4 -1.333333 
L -4 1.333333 
L -1.333333 1.333333 
z
" style="stroke: #ffffff; stroke-width: 0.75; stroke-linejoin: miter"/>
    </defs>
    <g clip-path="url(#p40500fdb67)">
     <use xlink:href="#m0f9fd03416" x="59.249435" y="190.852241" style="fill: #cc78bc; stroke: #ffffff; stroke-width: 0.75; stroke-linejoin: miter"/>
     <use xlink:href="#m0f9fd03416" x="86.549569" y="193.29376" style="fill: #cc78bc; stroke: #ffffff; stroke-width: 0.75; stroke-linejoin: miter"/>
     <use xlink:href="#m0f9fd03416" x="168.44997" y="256.560547" style="fill: #cc78bc; stroke: #ffffff; stroke-width: 0.75; stroke-linejoin: miter"/>
     <use xlink:href="#m0f9fd03416" x="304.950638" y="271.943707" style="fill: #cc78bc; stroke: #ffffff; stroke-width: 0.75; stroke-linejoin: miter"/>
    </g>
   </g>
   <g id="line2d_15">
    <path d="M 59.249435 35.679551 
L 86.549569 34.856591 
L 168.44997 52.788795 
L 304.950638 76.311052 
" clip-path="url(#p40500fdb67)" style="fill: none; stroke: #ca9161; stroke-width: 2.5; stroke-linecap: round"/>
    <defs>
     <path id="mb8f66ac6cd" d="M -2 4 
L 0 2 
L 2 4 
L 4 2 
L 2 0 
L 4 -2 
L 2 -4 
L 0 -2 
L -2 -4 
L -4 -2 
L -2 0 
L -4 2 
z
" style="stroke: #ffffff; stroke-width: 0.75; stroke-linejoin: miter"/>
    </defs>
    <g clip-path="url(#p40500fdb67)">
     <use xlink:href="#mb8f66ac6cd" x="59.249435" y="35.679551" style="fill: #ca9161; stroke: #ffffff; stroke-width: 0.75; stroke-linejoin: miter"/>
     <use xlink:href="#mb8f66ac6cd" x="86.549569" y="34.856591" style="fill: #ca9161; stroke: #ffffff; stroke-width: 0.75; stroke-linejoin: miter"/>
     <use xlink:href="#mb8f66ac6cd" x="168.44997" y="52.788795" style="fill: #ca9161; stroke: #ffffff; stroke-width: 0.75; stroke-linejoin: miter"/>
     <use xlink:href="#mb8f66ac6cd" x="304.950638" y="76.311052" style="fill: #ca9161; stroke: #ffffff; stroke-width: 0.75; stroke-linejoin: miter"/>
    </g>
   </g>
   <g id="line2d_16">
    <path d="M 59.249435 83.425935 
L 86.549569 95.912517 
L 168.44997 143.877769 
L 304.950638 182.117891 
" clip-path="url(#p40500fdb67)" style="fill: none; stroke: #fbafe4; stroke-width: 2.5; stroke-linecap: round"/>
    <defs>
     <path id="mbbec8074cd" d="M 0 -4 
L -0.898056 -1.236068 
L -3.804226 -1.236068 
L -1.453085 0.472136 
L -2.351141 3.236068 
L -0 1.527864 
L 2.351141 3.236068 
L 1.453085 0.472136 
L 3.804226 -1.236068 
L 0.898056 -1.236068 
z
" style="stroke: #ffffff; stroke-width: 0.75; stroke-linejoin: bevel"/>
    </defs>
    <g clip-path="url(#p40500fdb67)">
     <use xlink:href="#mbbec8074cd" x="59.249435" y="83.425935" style="fill: #fbafe4; stroke: #ffffff; stroke-width: 0.75; stroke-linejoin: bevel"/>
     <use xlink:href="#mbbec8074cd" x="86.549569" y="95.912517" style="fill: #fbafe4; stroke: #ffffff; stroke-width: 0.75; stroke-linejoin: bevel"/>
     <use xlink:href="#mbbec8074cd" x="168.44997" y="143.877769" style="fill: #fbafe4; stroke: #ffffff; stroke-width: 0.75; stroke-linejoin: bevel"/>
     <use xlink:href="#mbbec8074cd" x="304.950638" y="182.117891" style="fill: #fbafe4; stroke: #ffffff; stroke-width: 0.75; stroke-linejoin: bevel"/>
    </g>
   </g>
   <g id="line2d_17"/>
   <g id="line2d_18"/>
   <g id="line2d_19"/>
   <g id="line2d_20"/>
   <g id="line2d_21"/>
   <g id="line2d_22"/>
   <g id="line2d_23"/>
   <g id="patch_3">
    <path d="M 46.964375 306.196875 
L 46.964375 21.935625 
" style="fill: none; stroke: #cccccc; stroke-width: 1.2; stroke-linejoin: miter; stroke-linecap: square"/>
   </g>
   <g id="patch_4">
    <path d="M 46.964375 306.196875 
L 317.235699 306.196875 
" style="fill: none; stroke: #cccccc; stroke-width: 1.2; stroke-linejoin: miter; stroke-linecap: square"/>
   </g>
   <g id="text_12">
    <!-- (a) F1 Score -->
    <g style="fill: #262626" transform="translate(147.757537 15.935625) scale(0.12 -0.12)">
     <defs>
      <path id="Arial-BoldMT-28" d="M 1916 -1347 
L 1313 -1347 
Q 834 -625 584 153 
Q 334 931 334 1659 
Q 334 2563 644 3369 
Q 913 4069 1325 4659 
L 1925 4659 
Q 1497 3713 1336 3048 
Q 1175 2384 1175 1641 
Q 1175 1128 1270 590 
Q 1366 53 1531 -431 
Q 1641 -750 1916 -1347 
z
" transform="scale(0.015625)"/>
      <path id="Arial-BoldMT-61" d="M 1116 2306 
L 319 2450 
Q 453 2931 781 3162 
Q 1109 3394 1756 3394 
Q 2344 3394 2631 3255 
Q 2919 3116 3036 2902 
Q 3153 2688 3153 2116 
L 3144 1091 
Q 3144 653 3186 445 
Q 3228 238 3344 0 
L 2475 0 
Q 2441 88 2391 259 
Q 2369 338 2359 363 
Q 2134 144 1878 34 
Q 1622 -75 1331 -75 
Q 819 -75 523 203 
Q 228 481 228 906 
Q 228 1188 362 1408 
Q 497 1628 739 1745 
Q 981 1863 1438 1950 
Q 2053 2066 2291 2166 
L 2291 2253 
Q 2291 2506 2166 2614 
Q 2041 2722 1694 2722 
Q 1459 2722 1328 2630 
Q 1197 2538 1116 2306 
z
M 2291 1594 
Q 2122 1538 1756 1459 
Q 1391 1381 1278 1306 
Q 1106 1184 1106 997 
Q 1106 813 1243 678 
Q 1381 544 1594 544 
Q 1831 544 2047 700 
Q 2206 819 2256 991 
Q 2291 1103 2291 1419 
L 2291 1594 
z
" transform="scale(0.015625)"/>
      <path id="Arial-BoldMT-29" d="M 216 -1347 
Q 475 -791 581 -494 
Q 688 -197 778 190 
Q 869 578 912 926 
Q 956 1275 956 1641 
Q 956 2384 797 3048 
Q 638 3713 209 4659 
L 806 4659 
Q 1278 3988 1539 3234 
Q 1800 2481 1800 1706 
Q 1800 1053 1594 306 
Q 1359 -531 822 -1347 
L 216 -1347 
z
" transform="scale(0.015625)"/>
      <path id="Arial-BoldMT-20" transform="scale(0.015625)"/>
      <path id="Arial-BoldMT-46" d="M 472 0 
L 472 4581 
L 3613 4581 
L 3613 3806 
L 1397 3806 
L 1397 2722 
L 3309 2722 
L 3309 1947 
L 1397 1947 
L 1397 0 
L 472 0 
z
" transform="scale(0.015625)"/>
      <path id="Arial-BoldMT-31" d="M 2519 0 
L 1641 0 
L 1641 3309 
Q 1159 2859 506 2644 
L 506 3441 
Q 850 3553 1253 3867 
Q 1656 4181 1806 4600 
L 2519 4600 
L 2519 0 
z
" transform="scale(0.015625)"/>
      <path id="Arial-BoldMT-53" d="M 231 1491 
L 1131 1578 
Q 1213 1125 1461 912 
Q 1709 700 2131 700 
Q 2578 700 2804 889 
Q 3031 1078 3031 1331 
Q 3031 1494 2936 1608 
Q 2841 1722 2603 1806 
Q 2441 1863 1863 2006 
Q 1119 2191 819 2459 
Q 397 2838 397 3381 
Q 397 3731 595 4036 
Q 794 4341 1167 4500 
Q 1541 4659 2069 4659 
Q 2931 4659 3367 4281 
Q 3803 3903 3825 3272 
L 2900 3231 
Q 2841 3584 2645 3739 
Q 2450 3894 2059 3894 
Q 1656 3894 1428 3728 
Q 1281 3622 1281 3444 
Q 1281 3281 1419 3166 
Q 1594 3019 2269 2859 
Q 2944 2700 3267 2529 
Q 3591 2359 3773 2064 
Q 3956 1769 3956 1334 
Q 3956 941 3737 597 
Q 3519 253 3119 86 
Q 2719 -81 2122 -81 
Q 1253 -81 787 320 
Q 322 722 231 1491 
z
" transform="scale(0.015625)"/>
      <path id="Arial-BoldMT-63" d="M 3353 2338 
L 2488 2181 
Q 2444 2441 2289 2572 
Q 2134 2703 1888 2703 
Q 1559 2703 1364 2476 
Q 1169 2250 1169 1719 
Q 1169 1128 1367 884 
Q 1566 641 1900 641 
Q 2150 641 2309 783 
Q 2469 925 2534 1272 
L 3397 1125 
Q 3263 531 2881 228 
Q 2500 -75 1859 -75 
Q 1131 -75 698 384 
Q 266 844 266 1656 
Q 266 2478 700 2936 
Q 1134 3394 1875 3394 
Q 2481 3394 2839 3133 
Q 3197 2872 3353 2338 
z
" transform="scale(0.015625)"/>
      <path id="Arial-BoldMT-6f" d="M 256 1706 
Q 256 2144 472 2553 
Q 688 2963 1083 3178 
Q 1478 3394 1966 3394 
Q 2719 3394 3200 2905 
Q 3681 2416 3681 1669 
Q 3681 916 3195 420 
Q 2709 -75 1972 -75 
Q 1516 -75 1102 131 
Q 688 338 472 736 
Q 256 1134 256 1706 
z
M 1156 1659 
Q 1156 1166 1390 903 
Q 1625 641 1969 641 
Q 2313 641 2545 903 
Q 2778 1166 2778 1666 
Q 2778 2153 2545 2415 
Q 2313 2678 1969 2678 
Q 1625 2678 1390 2415 
Q 1156 2153 1156 1659 
z
" transform="scale(0.015625)"/>
      <path id="Arial-BoldMT-72" d="M 1300 0 
L 422 0 
L 422 3319 
L 1238 3319 
L 1238 2847 
Q 1447 3181 1614 3287 
Q 1781 3394 1994 3394 
Q 2294 3394 2572 3228 
L 2300 2463 
Q 2078 2606 1888 2606 
Q 1703 2606 1575 2504 
Q 1447 2403 1373 2137 
Q 1300 1872 1300 1025 
L 1300 0 
z
" transform="scale(0.015625)"/>
      <path id="Arial-BoldMT-65" d="M 2381 1056 
L 3256 909 
Q 3088 428 2723 176 
Q 2359 -75 1813 -75 
Q 947 -75 531 491 
Q 203 944 203 1634 
Q 203 2459 634 2926 
Q 1066 3394 1725 3394 
Q 2466 3394 2894 2905 
Q 3322 2416 3303 1406 
L 1103 1406 
Q 1113 1016 1316 798 
Q 1519 581 1822 581 
Q 2028 581 2168 693 
Q 2309 806 2381 1056 
z
M 2431 1944 
Q 2422 2325 2234 2523 
Q 2047 2722 1778 2722 
Q 1491 2722 1303 2513 
Q 1116 2303 1119 1944 
L 2431 1944 
z
" transform="scale(0.015625)"/>
     </defs>
     <use xlink:href="#Arial-BoldMT-28"/>
     <use xlink:href="#Arial-BoldMT-61" transform="translate(33.300781 0)"/>
     <use xlink:href="#Arial-BoldMT-29" transform="translate(88.916016 0)"/>
     <use xlink:href="#Arial-BoldMT-20" transform="translate(122.216797 0)"/>
     <use xlink:href="#Arial-BoldMT-46" transform="translate(150 0)"/>
     <use xlink:href="#Arial-BoldMT-31" transform="translate(211.083984 0)"/>
     <use xlink:href="#Arial-BoldMT-20" transform="translate(266.699219 0)"/>
     <use xlink:href="#Arial-BoldMT-53" transform="translate(294.482422 0)"/>
     <use xlink:href="#Arial-BoldMT-63" transform="translate(361.181641 0)"/>
     <use xlink:href="#Arial-BoldMT-6f" transform="translate(416.796875 0)"/>
     <use xlink:href="#Arial-BoldMT-72" transform="translate(477.880859 0)"/>
     <use xlink:href="#Arial-BoldMT-65" transform="translate(516.796875 0)"/>
    </g>
   </g>
  </g>
  <g id="axes_2">
   <g id="patch_5">
    <path d="M 368.861949 306.196875 
L 639.133272 306.196875 
L 639.133272 21.935625 
L 368.861949 21.935625 
z
" style="fill: #ffffff"/>
   </g>
   <g id="matplotlib.axis_3">
    <g id="xtick_5">
     <g id="line2d_24">
      <path d="M 381.147009 306.196875 
L 381.147009 21.935625 
" clip-path="url(#p9594dd3d4c)" style="fill: none; stroke: #cccccc; stroke-linecap: round"/>
     </g>
     <g id="text_13">
      <!-- 0.1 -->
      <g style="fill: #262626" transform="translate(373.502009 323.570469) scale(0.11 -0.11)">
       <use xlink:href="#ArialMT-30"/>
       <use xlink:href="#ArialMT-2e" transform="translate(55.615234 0)"/>
       <use xlink:href="#ArialMT-31" transform="translate(83.398438 0)"/>
      </g>
     </g>
    </g>
    <g id="xtick_6">
     <g id="line2d_25">
      <path d="M 408.447142 306.196875 
L 408.447142 21.935625 
" clip-path="url(#p9594dd3d4c)" style="fill: none; stroke: #cccccc; stroke-linecap: round"/>
     </g>
     <g id="text_14">
      <!-- 0.2 -->
      <g style="fill: #262626" transform="translate(400.802142 323.570469) scale(0.11 -0.11)">
       <use xlink:href="#ArialMT-30"/>
       <use xlink:href="#ArialMT-2e" transform="translate(55.615234 0)"/>
       <use xlink:href="#ArialMT-32" transform="translate(83.398438 0)"/>
      </g>
     </g>
    </g>
    <g id="xtick_7">
     <g id="line2d_26">
      <path d="M 490.347543 306.196875 
L 490.347543 21.935625 
" clip-path="url(#p9594dd3d4c)" style="fill: none; stroke: #cccccc; stroke-linecap: round"/>
     </g>
     <g id="text_15">
      <!-- 0.5 -->
      <g style="fill: #262626" transform="translate(482.702543 323.570469) scale(0.11 -0.11)">
       <use xlink:href="#ArialMT-30"/>
       <use xlink:href="#ArialMT-2e" transform="translate(55.615234 0)"/>
       <use xlink:href="#ArialMT-35" transform="translate(83.398438 0)"/>
      </g>
     </g>
    </g>
    <g id="xtick_8">
     <g id="line2d_27">
      <path d="M 626.848212 306.196875 
L 626.848212 21.935625 
" clip-path="url(#p9594dd3d4c)" style="fill: none; stroke: #cccccc; stroke-linecap: round"/>
     </g>
     <g id="text_16">
      <!-- 1.0 -->
      <g style="fill: #262626" transform="translate(619.203212 323.570469) scale(0.11 -0.11)">
       <use xlink:href="#ArialMT-31"/>
       <use xlink:href="#ArialMT-2e" transform="translate(55.615234 0)"/>
       <use xlink:href="#ArialMT-30" transform="translate(83.398438 0)"/>
      </g>
     </g>
    </g>
    <g id="text_17">
     <!-- Threshold $\tau$ (mm/day) -->
     <g style="fill: #262626" transform="translate(445.01761 338.516719) scale(0.12 -0.12)">
      <use xlink:href="#ArialMT-54" transform="translate(0 0.203125)"/>
      <use xlink:href="#ArialMT-68" transform="translate(61.083984 0.203125)"/>
      <use xlink:href="#ArialMT-72" transform="translate(116.699219 0.203125)"/>
      <use xlink:href="#ArialMT-65" transform="translate(150 0.203125)"/>
      <use xlink:href="#ArialMT-73" transform="translate(205.615234 0.203125)"/>
      <use xlink:href="#ArialMT-68" transform="translate(255.615234 0.203125)"/>
      <use xlink:href="#ArialMT-6f" transform="translate(311.230469 0.203125)"/>
      <use xlink:href="#ArialMT-6c" transform="translate(366.845703 0.203125)"/>
      <use xlink:href="#ArialMT-64" transform="translate(389.0625 0.203125)"/>
      <use xlink:href="#ArialMT-20" transform="translate(444.677734 0.203125)"/>
      <use xlink:href="#DejaVuSans-Oblique-3c4" transform="translate(472.460938 0.203125)"/>
      <use xlink:href="#ArialMT-20" transform="translate(532.666016 0.203125)"/>
      <use xlink:href="#ArialMT-28" transform="translate(560.449219 0.203125)"/>
      <use xlink:href="#ArialMT-6d" transform="translate(593.75 0.203125)"/>
      <use xlink:href="#ArialMT-6d" transform="translate(677.050781 0.203125)"/>
      <use xlink:href="#ArialMT-2f" transform="translate(760.351562 0.203125)"/>
      <use xlink:href="#ArialMT-64" transform="translate(788.134766 0.203125)"/>
      <use xlink:href="#ArialMT-61" transform="translate(843.75 0.203125)"/>
      <use xlink:href="#ArialMT-79" transform="translate(899.365234 0.203125)"/>
      <use xlink:href="#ArialMT-29" transform="translate(949.365234 0.203125)"/>
     </g>
    </g>
   </g>
   <g id="matplotlib.axis_4">
    <g id="ytick_6">
     <g id="line2d_28">
      <path d="M 368.861949 285.096794 
L 639.133272 285.096794 
" clip-path="url(#p9594dd3d4c)" style="fill: none; stroke: #cccccc; stroke-linecap: round"/>
     </g>
     <g id="text_18">
      <!-- 0.2 -->
      <g style="fill: #262626" transform="translate(344.071949 289.033591) scale(0.11 -0.11)">
       <use xlink:href="#ArialMT-30"/>
       <use xlink:href="#ArialMT-2e" transform="translate(55.615234 0)"/>
       <use xlink:href="#ArialMT-32" transform="translate(83.398438 0)"/>
      </g>
     </g>
    </g>
    <g id="ytick_7">
     <g id="line2d_29">
      <path d="M 368.861949 222.745045 
L 639.133272 222.745045 
" clip-path="url(#p9594dd3d4c)" style="fill: none; stroke: #cccccc; stroke-linecap: round"/>
     </g>
     <g id="text_19">
      <!-- 0.3 -->
      <g style="fill: #262626" transform="translate(344.071949 226.681842) scale(0.11 -0.11)">
       <use xlink:href="#ArialMT-30"/>
       <use xlink:href="#ArialMT-2e" transform="translate(55.615234 0)"/>
       <use xlink:href="#ArialMT-33" transform="translate(83.398438 0)"/>
      </g>
     </g>
    </g>
    <g id="ytick_8">
     <g id="line2d_30">
      <path d="M 368.861949 160.393296 
L 639.133272 160.393296 
" clip-path="url(#p9594dd3d4c)" style="fill: none; stroke: #cccccc; stroke-linecap: round"/>
     </g>
     <g id="text_20">
      <!-- 0.4 -->
      <g style="fill: #262626" transform="translate(344.071949 164.330093) scale(0.11 -0.11)">
       <use xlink:href="#ArialMT-30"/>
       <use xlink:href="#ArialMT-2e" transform="translate(55.615234 0)"/>
       <use xlink:href="#ArialMT-34" transform="translate(83.398438 0)"/>
      </g>
     </g>
    </g>
    <g id="ytick_9">
     <g id="line2d_31">
      <path d="M 368.861949 98.041548 
L 639.133272 98.041548 
" clip-path="url(#p9594dd3d4c)" style="fill: none; stroke: #cccccc; stroke-linecap: round"/>
     </g>
     <g id="text_21">
      <!-- 0.5 -->
      <g style="fill: #262626" transform="translate(344.071949 101.978345) scale(0.11 -0.11)">
       <use xlink:href="#ArialMT-30"/>
       <use xlink:href="#ArialMT-2e" transform="translate(55.615234 0)"/>
       <use xlink:href="#ArialMT-35" transform="translate(83.398438 0)"/>
      </g>
     </g>
    </g>
    <g id="ytick_10">
     <g id="line2d_32">
      <path d="M 368.861949 35.689799 
L 639.133272 35.689799 
" clip-path="url(#p9594dd3d4c)" style="fill: none; stroke: #cccccc; stroke-linecap: round"/>
     </g>
     <g id="text_22">
      <!-- 0.6 -->
      <g style="fill: #262626" transform="translate(344.071949 39.626596) scale(0.11 -0.11)">
       <use xlink:href="#ArialMT-30"/>
       <use xlink:href="#ArialMT-2e" transform="translate(55.615234 0)"/>
       <use xlink:href="#ArialMT-36" transform="translate(83.398438 0)"/>
      </g>
     </g>
    </g>
    <g id="text_23">
     <!-- CSI -->
     <g style="fill: #262626" transform="translate(337.686949 174.068437) rotate(-90) scale(0.12 -0.12)">
      <defs>
       <path id="ArialMT-43" d="M 3763 1606 
L 4369 1453 
Q 4178 706 3683 314 
Q 3188 -78 2472 -78 
Q 1731 -78 1267 223 
Q 803 525 561 1097 
Q 319 1669 319 2325 
Q 319 3041 592 3573 
Q 866 4106 1370 4382 
Q 1875 4659 2481 4659 
Q 3169 4659 3637 4309 
Q 4106 3959 4291 3325 
L 3694 3184 
Q 3534 3684 3231 3912 
Q 2928 4141 2469 4141 
Q 1941 4141 1586 3887 
Q 1231 3634 1087 3207 
Q 944 2781 944 2328 
Q 944 1744 1114 1308 
Q 1284 872 1643 656 
Q 2003 441 2422 441 
Q 2931 441 3284 734 
Q 3638 1028 3763 1606 
z
" transform="scale(0.015625)"/>
       <path id="ArialMT-49" d="M 597 0 
L 597 4581 
L 1203 4581 
L 1203 0 
L 597 0 
z
" transform="scale(0.015625)"/>
      </defs>
      <use xlink:href="#ArialMT-43"/>
      <use xlink:href="#ArialMT-53" transform="translate(72.216797 0)"/>
      <use xlink:href="#ArialMT-49" transform="translate(138.916016 0)"/>
     </g>
    </g>
   </g>
   <g id="FillBetweenPolyCollection_8"/>
   <g id="FillBetweenPolyCollection_9"/>
   <g id="FillBetweenPolyCollection_10"/>
   <g id="FillBetweenPolyCollection_11"/>
   <g id="FillBetweenPolyCollection_12"/>
   <g id="FillBetweenPolyCollection_13"/>
   <g id="FillBetweenPolyCollection_14"/>
   <g id="line2d_33">
    <path d="M 381.147009 208.683689 
L 408.447142 210.924543 
L 490.347543 268.066307 
L 626.848212 293.275909 
" clip-path="url(#p9594dd3d4c)" style="fill: none; stroke: #0173b2; stroke-width: 2.5; stroke-linecap: round"/>
    <g clip-path="url(#p9594dd3d4c)">
     <use xlink:href="#mfde99ecaee" x="381.147009" y="208.683689" style="fill: #0173b2; stroke: #ffffff; stroke-width: 0.75"/>
     <use xlink:href="#mfde99ecaee" x="408.447142" y="210.924543" style="fill: #0173b2; stroke: #ffffff; stroke-width: 0.75"/>
     <use xlink:href="#mfde99ecaee" x="490.347543" y="268.066307" style="fill: #0173b2; stroke: #ffffff; stroke-width: 0.75"/>
     <use xlink:href="#mfde99ecaee" x="626.848212" y="293.275909" style="fill: #0173b2; stroke: #ffffff; stroke-width: 0.75"/>
    </g>
   </g>
   <g id="line2d_34">
    <path d="M 381.147009 64.949838 
L 408.447142 55.736082 
L 490.347543 70.606778 
L 626.848212 108.593382 
" clip-path="url(#p9594dd3d4c)" style="fill: none; stroke: #de8f05; stroke-width: 2.5; stroke-linecap: round"/>
    <g clip-path="url(#p9594dd3d4c)">
     <use xlink:href="#m7945c40033" x="381.147009" y="64.949838" style="fill: #de8f05; stroke: #ffffff; stroke-width: 0.75; stroke-linejoin: miter"/>
     <use xlink:href="#m7945c40033" x="408.447142" y="55.736082" style="fill: #de8f05; stroke: #ffffff; stroke-width: 0.75; stroke-linejoin: miter"/>
     <use xlink:href="#m7945c40033" x="490.347543" y="70.606778" style="fill: #de8f05; stroke: #ffffff; stroke-width: 0.75; stroke-linejoin: miter"/>
     <use xlink:href="#m7945c40033" x="626.848212" y="108.593382" style="fill: #de8f05; stroke: #ffffff; stroke-width: 0.75; stroke-linejoin: miter"/>
    </g>
   </g>
   <g id="line2d_35">
    <path d="M 381.147009 193.138736 
L 408.447142 189.622673 
L 490.347543 238.280261 
L 626.848212 237.512565 
" clip-path="url(#p9594dd3d4c)" style="fill: none; stroke: #029e73; stroke-width: 2.5; stroke-linecap: round"/>
    <g clip-path="url(#p9594dd3d4c)">
     <use xlink:href="#m4ad3c8e927" x="381.147009" y="193.138736" style="fill: #029e73; stroke: #ffffff; stroke-width: 0.75; stroke-linejoin: miter"/>
     <use xlink:href="#m4ad3c8e927" x="408.447142" y="189.622673" style="fill: #029e73; stroke: #ffffff; stroke-width: 0.75; stroke-linejoin: miter"/>
     <use xlink:href="#m4ad3c8e927" x="490.347543" y="238.280261" style="fill: #029e73; stroke: #ffffff; stroke-width: 0.75; stroke-linejoin: miter"/>
     <use xlink:href="#m4ad3c8e927" x="626.848212" y="237.512565" style="fill: #029e73; stroke: #ffffff; stroke-width: 0.75; stroke-linejoin: miter"/>
    </g>
   </g>
   <g id="line2d_36">
    <path d="M 381.147009 169.985873 
L 408.447142 171.963724 
L 490.347543 227.2524 
L 626.848212 249.71878 
" clip-path="url(#p9594dd3d4c)" style="fill: none; stroke: #d55e00; stroke-width: 2.5; stroke-linecap: round"/>
    <g clip-path="url(#p9594dd3d4c)">
     <use xlink:href="#m92af06ccf8" x="381.147009" y="169.985873" style="fill: #d55e00; stroke: #ffffff; stroke-width: 0.75; stroke-linejoin: miter"/>
     <use xlink:href="#m92af06ccf8" x="408.447142" y="171.963724" style="fill: #d55e00; stroke: #ffffff; stroke-width: 0.75; stroke-linejoin: miter"/>
     <use xlink:href="#m92af06ccf8" x="490.347543" y="227.2524" style="fill: #d55e00; stroke: #ffffff; stroke-width: 0.75; stroke-linejoin: miter"/>
     <use xlink:href="#m92af06ccf8" x="626.848212" y="249.71878" style="fill: #d55e00; stroke: #ffffff; stroke-width: 0.75; stroke-linejoin: miter"/>
    </g>
   </g>
   <g id="line2d_37">
    <path d="M 381.147009 208.683689 
L 408.447142 210.924543 
L 490.347543 265.02426 
L 626.848212 277.119677 
" clip-path="url(#p9594dd3d4c)" style="fill: none; stroke: #cc78bc; stroke-width: 2.5; stroke-linecap: round"/>
    <g clip-path="url(#p9594dd3d4c)">
     <use xlink:href="#m0f9fd03416" x="381.147009" y="208.683689" style="fill: #cc78bc; stroke: #ffffff; stroke-width: 0.75; stroke-linejoin: miter"/>
     <use xlink:href="#m0f9fd03416" x="408.447142" y="210.924543" style="fill: #cc78bc; stroke: #ffffff; stroke-width: 0.75; stroke-linejoin: miter"/>
     <use xlink:href="#m0f9fd03416" x="490.347543" y="265.02426" style="fill: #cc78bc; stroke: #ffffff; stroke-width: 0.75; stroke-linejoin: miter"/>
     <use xlink:href="#m0f9fd03416" x="626.848212" y="277.119677" style="fill: #cc78bc; stroke: #ffffff; stroke-width: 0.75; stroke-linejoin: miter"/>
    </g>
   </g>
   <g id="line2d_38">
    <path d="M 381.147009 35.965692 
L 408.447142 34.856591 
L 490.347543 58.478255 
L 626.848212 87.81995 
" clip-path="url(#p9594dd3d4c)" style="fill: none; stroke: #ca9161; stroke-width: 2.5; stroke-linecap: round"/>
    <g clip-path="url(#p9594dd3d4c)">
     <use xlink:href="#mb8f66ac6cd" x="381.147009" y="35.965692" style="fill: #ca9161; stroke: #ffffff; stroke-width: 0.75; stroke-linejoin: miter"/>
     <use xlink:href="#mb8f66ac6cd" x="408.447142" y="34.856591" style="fill: #ca9161; stroke: #ffffff; stroke-width: 0.75; stroke-linejoin: miter"/>
     <use xlink:href="#mb8f66ac6cd" x="490.347543" y="58.478255" style="fill: #ca9161; stroke: #ffffff; stroke-width: 0.75; stroke-linejoin: miter"/>
     <use xlink:href="#mb8f66ac6cd" x="626.848212" y="87.81995" style="fill: #ca9161; stroke: #ffffff; stroke-width: 0.75; stroke-linejoin: miter"/>
    </g>
   </g>
   <g id="line2d_39">
    <path d="M 381.147009 96.350271 
L 408.447142 110.954632 
L 490.347543 163.060751 
L 626.848212 200.566235 
" clip-path="url(#p9594dd3d4c)" style="fill: none; stroke: #fbafe4; stroke-width: 2.5; stroke-linecap: round"/>
    <g clip-path="url(#p9594dd3d4c)">
     <use xlink:href="#mbbec8074cd" x="381.147009" y="96.350271" style="fill: #fbafe4; stroke: #ffffff; stroke-width: 0.75; stroke-linejoin: bevel"/>
     <use xlink:href="#mbbec8074cd" x="408.447142" y="110.954632" style="fill: #fbafe4; stroke: #ffffff; stroke-width: 0.75; stroke-linejoin: bevel"/>
     <use xlink:href="#mbbec8074cd" x="490.347543" y="163.060751" style="fill: #fbafe4; stroke: #ffffff; stroke-width: 0.75; stroke-linejoin: bevel"/>
     <use xlink:href="#mbbec8074cd" x="626.848212" y="200.566235" style="fill: #fbafe4; stroke: #ffffff; stroke-width: 0.75; stroke-linejoin: bevel"/>
    </g>
   </g>
   <g id="line2d_40"/>
   <g id="line2d_41"/>
   <g id="line2d_42"/>
   <g id="line2d_43"/>
   <g id="line2d_44"/>
   <g id="line2d_45"/>
   <g id="line2d_46"/>
   <g id="patch_6">
    <path d="M 368.861949 306.196875 
L 368.861949 21.935625 
" style="fill: none; stroke: #cccccc; stroke-width: 1.2; stroke-linejoin: miter; stroke-linecap: square"/>
   </g>
   <g id="patch_7">
    <path d="M 368.861949 306.196875 
L 639.133272 306.196875 
" style="fill: none; stroke: #cccccc; stroke-width: 1.2; stroke-linejoin: miter; stroke-linecap: square"/>
   </g>
   <g id="text_24">
    <!-- (b) Critical Success Index (CSI) -->
    <g style="fill: #262626" transform="translate(415.312923 15.935625) scale(0.12 -0.12)">
     <defs>
      <path id="Arial-BoldMT-62" d="M 422 0 
L 422 4581 
L 1300 4581 
L 1300 2931 
Q 1706 3394 2263 3394 
Q 2869 3394 3266 2955 
Q 3663 2516 3663 1694 
Q 3663 844 3258 384 
Q 2853 -75 2275 -75 
Q 1991 -75 1714 67 
Q 1438 209 1238 488 
L 1238 0 
L 422 0 
z
M 1294 1731 
Q 1294 1216 1456 969 
Q 1684 619 2063 619 
Q 2353 619 2558 867 
Q 2763 1116 2763 1650 
Q 2763 2219 2556 2470 
Q 2350 2722 2028 2722 
Q 1713 2722 1503 2476 
Q 1294 2231 1294 1731 
z
" transform="scale(0.015625)"/>
      <path id="Arial-BoldMT-43" d="M 3397 1684 
L 4294 1400 
Q 4088 650 3608 286 
Q 3128 -78 2391 -78 
Q 1478 -78 890 545 
Q 303 1169 303 2250 
Q 303 3394 893 4026 
Q 1484 4659 2447 4659 
Q 3288 4659 3813 4163 
Q 4125 3869 4281 3319 
L 3366 3100 
Q 3284 3456 3026 3662 
Q 2769 3869 2400 3869 
Q 1891 3869 1573 3503 
Q 1256 3138 1256 2319 
Q 1256 1450 1568 1081 
Q 1881 713 2381 713 
Q 2750 713 3015 947 
Q 3281 1181 3397 1684 
z
" transform="scale(0.015625)"/>
      <path id="Arial-BoldMT-69" d="M 459 3769 
L 459 4581 
L 1338 4581 
L 1338 3769 
L 459 3769 
z
M 459 0 
L 459 3319 
L 1338 3319 
L 1338 0 
L 459 0 
z
" transform="scale(0.015625)"/>
      <path id="Arial-BoldMT-74" d="M 1981 3319 
L 1981 2619 
L 1381 2619 
L 1381 1281 
Q 1381 875 1398 808 
Q 1416 741 1477 697 
Q 1538 653 1625 653 
Q 1747 653 1978 738 
L 2053 56 
Q 1747 -75 1359 -75 
Q 1122 -75 931 4 
Q 741 84 652 211 
Q 563 338 528 553 
Q 500 706 500 1172 
L 500 2619 
L 97 2619 
L 97 3319 
L 500 3319 
L 500 3978 
L 1381 4491 
L 1381 3319 
L 1981 3319 
z
" transform="scale(0.015625)"/>
      <path id="Arial-BoldMT-6c" d="M 459 0 
L 459 4581 
L 1338 4581 
L 1338 0 
L 459 0 
z
" transform="scale(0.015625)"/>
      <path id="Arial-BoldMT-75" d="M 2644 0 
L 2644 497 
Q 2463 231 2167 78 
Q 1872 -75 1544 -75 
Q 1209 -75 943 72 
Q 678 219 559 484 
Q 441 750 441 1219 
L 441 3319 
L 1319 3319 
L 1319 1794 
Q 1319 1094 1367 936 
Q 1416 778 1544 686 
Q 1672 594 1869 594 
Q 2094 594 2272 717 
Q 2450 841 2515 1023 
Q 2581 1206 2581 1919 
L 2581 3319 
L 3459 3319 
L 3459 0 
L 2644 0 
z
" transform="scale(0.015625)"/>
      <path id="Arial-BoldMT-73" d="M 150 947 
L 1031 1081 
Q 1088 825 1259 692 
Q 1431 559 1741 559 
Q 2081 559 2253 684 
Q 2369 772 2369 919 
Q 2369 1019 2306 1084 
Q 2241 1147 2013 1200 
Q 950 1434 666 1628 
Q 272 1897 272 2375 
Q 272 2806 612 3100 
Q 953 3394 1669 3394 
Q 2350 3394 2681 3172 
Q 3013 2950 3138 2516 
L 2309 2363 
Q 2256 2556 2107 2659 
Q 1959 2763 1684 2763 
Q 1338 2763 1188 2666 
Q 1088 2597 1088 2488 
Q 1088 2394 1175 2328 
Q 1294 2241 1995 2081 
Q 2697 1922 2975 1691 
Q 3250 1456 3250 1038 
Q 3250 581 2869 253 
Q 2488 -75 1741 -75 
Q 1063 -75 667 200 
Q 272 475 150 947 
z
" transform="scale(0.015625)"/>
      <path id="Arial-BoldMT-49" d="M 438 0 
L 438 4581 
L 1363 4581 
L 1363 0 
L 438 0 
z
" transform="scale(0.015625)"/>
      <path id="Arial-BoldMT-6e" d="M 3478 0 
L 2600 0 
L 2600 1694 
Q 2600 2231 2544 2389 
Q 2488 2547 2361 2634 
Q 2234 2722 2056 2722 
Q 1828 2722 1647 2597 
Q 1466 2472 1398 2265 
Q 1331 2059 1331 1503 
L 1331 0 
L 453 0 
L 453 3319 
L 1269 3319 
L 1269 2831 
Q 1703 3394 2363 3394 
Q 2653 3394 2893 3289 
Q 3134 3184 3257 3021 
Q 3381 2859 3429 2653 
Q 3478 2447 3478 2063 
L 3478 0 
z
" transform="scale(0.015625)"/>
      <path id="Arial-BoldMT-64" d="M 3503 0 
L 2688 0 
L 2688 488 
Q 2484 203 2207 64 
Q 1931 -75 1650 -75 
Q 1078 -75 670 386 
Q 263 847 263 1672 
Q 263 2516 659 2955 
Q 1056 3394 1663 3394 
Q 2219 3394 2625 2931 
L 2625 4581 
L 3503 4581 
L 3503 0 
z
M 1159 1731 
Q 1159 1200 1306 963 
Q 1519 619 1900 619 
Q 2203 619 2415 876 
Q 2628 1134 2628 1647 
Q 2628 2219 2422 2470 
Q 2216 2722 1894 2722 
Q 1581 2722 1370 2473 
Q 1159 2225 1159 1731 
z
" transform="scale(0.015625)"/>
      <path id="Arial-BoldMT-78" d="M 38 0 
L 1234 1709 
L 88 3319 
L 1159 3319 
L 1747 2406 
L 2366 3319 
L 3397 3319 
L 2272 1747 
L 3500 0 
L 2422 0 
L 1747 1028 
L 1066 0 
L 38 0 
z
" transform="scale(0.015625)"/>
     </defs>
     <use xlink:href="#Arial-BoldMT-28"/>
     <use xlink:href="#Arial-BoldMT-62" transform="translate(33.300781 0)"/>
     <use xlink:href="#Arial-BoldMT-29" transform="translate(94.384766 0)"/>
     <use xlink:href="#Arial-BoldMT-20" transform="translate(127.685547 0)"/>
     <use xlink:href="#Arial-BoldMT-43" transform="translate(155.46875 0)"/>
     <use xlink:href="#Arial-BoldMT-72" transform="translate(227.685547 0)"/>
     <use xlink:href="#Arial-BoldMT-69" transform="translate(266.601562 0)"/>
     <use xlink:href="#Arial-BoldMT-74" transform="translate(294.384766 0)"/>
     <use xlink:href="#Arial-BoldMT-69" transform="translate(327.685547 0)"/>
     <use xlink:href="#Arial-BoldMT-63" transform="translate(355.46875 0)"/>
     <use xlink:href="#Arial-BoldMT-61" transform="translate(411.083984 0)"/>
     <use xlink:href="#Arial-BoldMT-6c" transform="translate(466.699219 0)"/>
     <use xlink:href="#Arial-BoldMT-20" transform="translate(494.482422 0)"/>
     <use xlink:href="#Arial-BoldMT-53" transform="translate(522.265625 0)"/>
     <use xlink:href="#Arial-BoldMT-75" transform="translate(588.964844 0)"/>
     <use xlink:href="#Arial-BoldMT-63" transform="translate(650.048828 0)"/>
     <use xlink:href="#Arial-BoldMT-63" transform="translate(705.664062 0)"/>
     <use xlink:href="#Arial-BoldMT-65" transform="translate(761.279297 0)"/>
     <use xlink:href="#Arial-BoldMT-73" transform="translate(816.894531 0)"/>
     <use xlink:href="#Arial-BoldMT-73" transform="translate(872.509766 0)"/>
     <use xlink:href="#Arial-BoldMT-20" transform="translate(928.125 0)"/>
     <use xlink:href="#Arial-BoldMT-49" transform="translate(955.908203 0)"/>
     <use xlink:href="#Arial-BoldMT-6e" transform="translate(983.691406 0)"/>
     <use xlink:href="#Arial-BoldMT-64" transform="translate(1044.775391 0)"/>
     <use xlink:href="#Arial-BoldMT-65" transform="translate(1105.859375 0)"/>
     <use xlink:href="#Arial-BoldMT-78" transform="translate(1161.474609 0)"/>
     <use xlink:href="#Arial-BoldMT-20" transform="translate(1217.089844 0)"/>
     <use xlink:href="#Arial-BoldMT-28" transform="translate(1244.873047 0)"/>
     <use xlink:href="#Arial-BoldMT-43" transform="translate(1278.173828 0)"/>
     <use xlink:href="#Arial-BoldMT-53" transform="translate(1350.390625 0)"/>
     <use xlink:href="#Arial-BoldMT-49" transform="translate(1417.089844 0)"/>
     <use xlink:href="#Arial-BoldMT-29" transform="translate(1444.873047 0)"/>
    </g>
   </g>
  </g>
  <g id="axes_3">
   <g id="patch_8">
    <path d="M 690.759522 306.196875 
L 961.030846 306.196875 
L 961.030846 21.935625 
L 690.759522 21.935625 
z
" style="fill: #ffffff"/>
   </g>
   <g id="line2d_47">
    <path d="M 690.759522 294.711572 
L 961.030846 294.711572 
" clip-path="url(#p736178d5dd)" style="fill: none; stroke-dasharray: 5.55,2.4; stroke-dashoffset: 0; stroke: #000000; stroke-width: 1.5"/>
   </g>
   <g id="matplotlib.axis_5">
    <g id="xtick_9">
     <g id="line2d_48">
      <path d="M 703.044582 306.196875 
L 703.044582 21.935625 
" clip-path="url(#p736178d5dd)" style="fill: none; stroke: #cccccc; stroke-linecap: round"/>
     </g>
     <g id="text_25">
      <!-- 0.1 -->
      <g style="fill: #262626" transform="translate(695.399582 323.570469) scale(0.11 -0.11)">
       <use xlink:href="#ArialMT-30"/>
       <use xlink:href="#ArialMT-2e" transform="translate(55.615234 0)"/>
       <use xlink:href="#ArialMT-31" transform="translate(83.398438 0)"/>
      </g>
     </g>
    </g>
    <g id="xtick_10">
     <g id="line2d_49">
      <path d="M 730.344716 306.196875 
L 730.344716 21.935625 
" clip-path="url(#p736178d5dd)" style="fill: none; stroke: #cccccc; stroke-linecap: round"/>
     </g>
     <g id="text_26">
      <!-- 0.2 -->
      <g style="fill: #262626" transform="translate(722.699716 323.570469) scale(0.11 -0.11)">
       <use xlink:href="#ArialMT-30"/>
       <use xlink:href="#ArialMT-2e" transform="translate(55.615234 0)"/>
       <use xlink:href="#ArialMT-32" transform="translate(83.398438 0)"/>
      </g>
     </g>
    </g>
    <g id="xtick_11">
     <g id="line2d_50">
      <path d="M 812.245117 306.196875 
L 812.245117 21.935625 
" clip-path="url(#p736178d5dd)" style="fill: none; stroke: #cccccc; stroke-linecap: round"/>
     </g>
     <g id="text_27">
      <!-- 0.5 -->
      <g style="fill: #262626" transform="translate(804.600117 323.570469) scale(0.11 -0.11)">
       <use xlink:href="#ArialMT-30"/>
       <use xlink:href="#ArialMT-2e" transform="translate(55.615234 0)"/>
       <use xlink:href="#ArialMT-35" transform="translate(83.398438 0)"/>
      </g>
     </g>
    </g>
    <g id="xtick_12">
     <g id="line2d_51">
      <path d="M 948.745785 306.196875 
L 948.745785 21.935625 
" clip-path="url(#p736178d5dd)" style="fill: none; stroke: #cccccc; stroke-linecap: round"/>
     </g>
     <g id="text_28">
      <!-- 1.0 -->
      <g style="fill: #262626" transform="translate(941.100785 323.570469) scale(0.11 -0.11)">
       <use xlink:href="#ArialMT-31"/>
       <use xlink:href="#ArialMT-2e" transform="translate(55.615234 0)"/>
       <use xlink:href="#ArialMT-30" transform="translate(83.398438 0)"/>
      </g>
     </g>
    </g>
    <g id="text_29">
     <!-- Threshold $\tau$ (mm/day) -->
     <g style="fill: #262626" transform="translate(766.915184 338.516719) scale(0.12 -0.12)">
      <use xlink:href="#ArialMT-54" transform="translate(0 0.203125)"/>
      <use xlink:href="#ArialMT-68" transform="translate(61.083984 0.203125)"/>
      <use xlink:href="#ArialMT-72" transform="translate(116.699219 0.203125)"/>
      <use xlink:href="#ArialMT-65" transform="translate(150 0.203125)"/>
      <use xlink:href="#ArialMT-73" transform="translate(205.615234 0.203125)"/>
      <use xlink:href="#ArialMT-68" transform="translate(255.615234 0.203125)"/>
      <use xlink:href="#ArialMT-6f" transform="translate(311.230469 0.203125)"/>
      <use xlink:href="#ArialMT-6c" transform="translate(366.845703 0.203125)"/>
      <use xlink:href="#ArialMT-64" transform="translate(389.0625 0.203125)"/>
      <use xlink:href="#ArialMT-20" transform="translate(444.677734 0.203125)"/>
      <use xlink:href="#DejaVuSans-Oblique-3c4" transform="translate(472.460938 0.203125)"/>
      <use xlink:href="#ArialMT-20" transform="translate(532.666016 0.203125)"/>
      <use xlink:href="#ArialMT-28" transform="translate(560.449219 0.203125)"/>
      <use xlink:href="#ArialMT-6d" transform="translate(593.75 0.203125)"/>
      <use xlink:href="#ArialMT-6d" transform="translate(677.050781 0.203125)"/>
      <use xlink:href="#ArialMT-2f" transform="translate(760.351562 0.203125)"/>
      <use xlink:href="#ArialMT-64" transform="translate(788.134766 0.203125)"/>
      <use xlink:href="#ArialMT-61" transform="translate(843.75 0.203125)"/>
      <use xlink:href="#ArialMT-79" transform="translate(899.365234 0.203125)"/>
      <use xlink:href="#ArialMT-29" transform="translate(949.365234 0.203125)"/>
     </g>
    </g>
   </g>
   <g id="matplotlib.axis_6">
    <g id="ytick_11">
     <g id="line2d_52">
      <path d="M 690.759522 294.711572 
L 961.030846 294.711572 
" clip-path="url(#p736178d5dd)" style="fill: none; stroke: #cccccc; stroke-linecap: round"/>
     </g>
     <g id="text_30">
      <!-- 0.0 -->
      <g style="fill: #262626" transform="translate(665.969522 298.648369) scale(0.11 -0.11)">
       <use xlink:href="#ArialMT-30"/>
       <use xlink:href="#ArialMT-2e" transform="translate(55.615234 0)"/>
       <use xlink:href="#ArialMT-30" transform="translate(83.398438 0)"/>
      </g>
     </g>
    </g>
    <g id="ytick_12">
     <g id="line2d_53">
      <path d="M 690.759522 262.753716 
L 961.030846 262.753716 
" clip-path="url(#p736178d5dd)" style="fill: none; stroke: #cccccc; stroke-linecap: round"/>
     </g>
     <g id="text_31">
      <!-- 0.1 -->
      <g style="fill: #262626" transform="translate(665.969522 266.690513) scale(0.11 -0.11)">
       <use xlink:href="#ArialMT-30"/>
       <use xlink:href="#ArialMT-2e" transform="translate(55.615234 0)"/>
       <use xlink:href="#ArialMT-31" transform="translate(83.398438 0)"/>
      </g>
     </g>
    </g>
    <g id="ytick_13">
     <g id="line2d_54">
      <path d="M 690.759522 230.795861 
L 961.030846 230.795861 
" clip-path="url(#p736178d5dd)" style="fill: none; stroke: #cccccc; stroke-linecap: round"/>
     </g>
     <g id="text_32">
      <!-- 0.2 -->
      <g style="fill: #262626" transform="translate(665.969522 234.732657) scale(0.11 -0.11)">
       <use xlink:href="#ArialMT-30"/>
       <use xlink:href="#ArialMT-2e" transform="translate(55.615234 0)"/>
       <use xlink:href="#ArialMT-32" transform="translate(83.398438 0)"/>
      </g>
     </g>
    </g>
    <g id="ytick_14">
     <g id="line2d_55">
      <path d="M 690.759522 198.838005 
L 961.030846 198.838005 
" clip-path="url(#p736178d5dd)" style="fill: none; stroke: #cccccc; stroke-linecap: round"/>
     </g>
     <g id="text_33">
      <!-- 0.3 -->
      <g style="fill: #262626" transform="translate(665.969522 202.774802) scale(0.11 -0.11)">
       <use xlink:href="#ArialMT-30"/>
       <use xlink:href="#ArialMT-2e" transform="translate(55.615234 0)"/>
       <use xlink:href="#ArialMT-33" transform="translate(83.398438 0)"/>
      </g>
     </g>
    </g>
    <g id="ytick_15">
     <g id="line2d_56">
      <path d="M 690.759522 166.880149 
L 961.030846 166.880149 
" clip-path="url(#p736178d5dd)" style="fill: none; stroke: #cccccc; stroke-linecap: round"/>
     </g>
     <g id="text_34">
      <!-- 0.4 -->
      <g style="fill: #262626" transform="translate(665.969522 170.816946) scale(0.11 -0.11)">
       <use xlink:href="#ArialMT-30"/>
       <use xlink:href="#ArialMT-2e" transform="translate(55.615234 0)"/>
       <use xlink:href="#ArialMT-34" transform="translate(83.398438 0)"/>
      </g>
     </g>
    </g>
    <g id="ytick_16">
     <g id="line2d_57">
      <path d="M 690.759522 134.922294 
L 961.030846 134.922294 
" clip-path="url(#p736178d5dd)" style="fill: none; stroke: #cccccc; stroke-linecap: round"/>
     </g>
     <g id="text_35">
      <!-- 0.5 -->
      <g style="fill: #262626" transform="translate(665.969522 138.85909) scale(0.11 -0.11)">
       <use xlink:href="#ArialMT-30"/>
       <use xlink:href="#ArialMT-2e" transform="translate(55.615234 0)"/>
       <use xlink:href="#ArialMT-35" transform="translate(83.398438 0)"/>
      </g>
     </g>
    </g>
    <g id="ytick_17">
     <g id="line2d_58">
      <path d="M 690.759522 102.964438 
L 961.030846 102.964438 
" clip-path="url(#p736178d5dd)" style="fill: none; stroke: #cccccc; stroke-linecap: round"/>
     </g>
     <g id="text_36">
      <!-- 0.6 -->
      <g style="fill: #262626" transform="translate(665.969522 106.901235) scale(0.11 -0.11)">
       <use xlink:href="#ArialMT-30"/>
       <use xlink:href="#ArialMT-2e" transform="translate(55.615234 0)"/>
       <use xlink:href="#ArialMT-36" transform="translate(83.398438 0)"/>
      </g>
     </g>
    </g>
    <g id="ytick_18">
     <g id="line2d_59">
      <path d="M 690.759522 71.006582 
L 961.030846 71.006582 
" clip-path="url(#p736178d5dd)" style="fill: none; stroke: #cccccc; stroke-linecap: round"/>
     </g>
     <g id="text_37">
      <!-- 0.7 -->
      <g style="fill: #262626" transform="translate(665.969522 74.943379) scale(0.11 -0.11)">
       <use xlink:href="#ArialMT-30"/>
       <use xlink:href="#ArialMT-2e" transform="translate(55.615234 0)"/>
       <use xlink:href="#ArialMT-37" transform="translate(83.398438 0)"/>
      </g>
     </g>
    </g>
    <g id="ytick_19">
     <g id="line2d_60">
      <path d="M 690.759522 39.048727 
L 961.030846 39.048727 
" clip-path="url(#p736178d5dd)" style="fill: none; stroke: #cccccc; stroke-linecap: round"/>
     </g>
     <g id="text_38">
      <!-- 0.8 -->
      <g style="fill: #262626" transform="translate(665.969522 42.985523) scale(0.11 -0.11)">
       <defs>
        <path id="ArialMT-38" d="M 1131 2484 
Q 781 2613 612 2850 
Q 444 3088 444 3419 
Q 444 3919 803 4259 
Q 1163 4600 1759 4600 
Q 2359 4600 2725 4251 
Q 3091 3903 3091 3403 
Q 3091 3084 2923 2848 
Q 2756 2613 2416 2484 
Q 2838 2347 3058 2040 
Q 3278 1734 3278 1309 
Q 3278 722 2862 322 
Q 2447 -78 1769 -78 
Q 1091 -78 675 323 
Q 259 725 259 1325 
Q 259 1772 486 2073 
Q 713 2375 1131 2484 
z
M 1019 3438 
Q 1019 3113 1228 2906 
Q 1438 2700 1772 2700 
Q 2097 2700 2305 2904 
Q 2513 3109 2513 3406 
Q 2513 3716 2298 3927 
Q 2084 4138 1766 4138 
Q 1444 4138 1231 3931 
Q 1019 3725 1019 3438 
z
M 838 1322 
Q 838 1081 952 856 
Q 1066 631 1291 507 
Q 1516 384 1775 384 
Q 2178 384 2440 643 
Q 2703 903 2703 1303 
Q 2703 1709 2433 1975 
Q 2163 2241 1756 2241 
Q 1359 2241 1098 1978 
Q 838 1716 838 1322 
z
" transform="scale(0.015625)"/>
       </defs>
       <use xlink:href="#ArialMT-30"/>
       <use xlink:href="#ArialMT-2e" transform="translate(55.615234 0)"/>
       <use xlink:href="#ArialMT-38" transform="translate(83.398438 0)"/>
      </g>
     </g>
    </g>
    <g id="text_39">
     <!-- Absolute Wet-Day Frequency Bias -->
     <g style="fill: #262626" transform="translate(659.443897 255.661875) rotate(-90) scale(0.12 -0.12)">
      <defs>
       <path id="ArialMT-41" d="M -9 0 
L 1750 4581 
L 2403 4581 
L 4278 0 
L 3588 0 
L 3053 1388 
L 1138 1388 
L 634 0 
L -9 0 
z
M 1313 1881 
L 2866 1881 
L 2388 3150 
Q 2169 3728 2063 4100 
Q 1975 3659 1816 3225 
L 1313 1881 
z
" transform="scale(0.015625)"/>
       <path id="ArialMT-62" d="M 941 0 
L 419 0 
L 419 4581 
L 981 4581 
L 981 2947 
Q 1338 3394 1891 3394 
Q 2197 3394 2470 3270 
Q 2744 3147 2920 2923 
Q 3097 2700 3197 2384 
Q 3297 2069 3297 1709 
Q 3297 856 2875 390 
Q 2453 -75 1863 -75 
Q 1275 -75 941 416 
L 941 0 
z
M 934 1684 
Q 934 1088 1097 822 
Q 1363 388 1816 388 
Q 2184 388 2453 708 
Q 2722 1028 2722 1663 
Q 2722 2313 2464 2622 
Q 2206 2931 1841 2931 
Q 1472 2931 1203 2611 
Q 934 2291 934 1684 
z
" transform="scale(0.015625)"/>
       <path id="ArialMT-75" d="M 2597 0 
L 2597 488 
Q 2209 -75 1544 -75 
Q 1250 -75 995 37 
Q 741 150 617 320 
Q 494 491 444 738 
Q 409 903 409 1263 
L 409 3319 
L 972 3319 
L 972 1478 
Q 972 1038 1006 884 
Q 1059 663 1231 536 
Q 1403 409 1656 409 
Q 1909 409 2131 539 
Q 2353 669 2445 892 
Q 2538 1116 2538 1541 
L 2538 3319 
L 3100 3319 
L 3100 0 
L 2597 0 
z
" transform="scale(0.015625)"/>
       <path id="ArialMT-74" d="M 1650 503 
L 1731 6 
Q 1494 -44 1306 -44 
Q 1000 -44 831 53 
Q 663 150 594 308 
Q 525 466 525 972 
L 525 2881 
L 113 2881 
L 113 3319 
L 525 3319 
L 525 4141 
L 1084 4478 
L 1084 3319 
L 1650 3319 
L 1650 2881 
L 1084 2881 
L 1084 941 
Q 1084 700 1114 631 
Q 1144 563 1211 522 
Q 1278 481 1403 481 
Q 1497 481 1650 503 
z
" transform="scale(0.015625)"/>
       <path id="ArialMT-57" d="M 1294 0 
L 78 4581 
L 700 4581 
L 1397 1578 
Q 1509 1106 1591 641 
Q 1766 1375 1797 1488 
L 2669 4581 
L 3400 4581 
L 4056 2263 
Q 4303 1400 4413 641 
Q 4500 1075 4641 1638 
L 5359 4581 
L 5969 4581 
L 4713 0 
L 4128 0 
L 3163 3491 
Q 3041 3928 3019 4028 
Q 2947 3713 2884 3491 
L 1913 0 
L 1294 0 
z
" transform="scale(0.015625)"/>
       <path id="ArialMT-2d" d="M 203 1375 
L 203 1941 
L 1931 1941 
L 1931 1375 
L 203 1375 
z
" transform="scale(0.015625)"/>
       <path id="ArialMT-44" d="M 494 0 
L 494 4581 
L 2072 4581 
Q 2606 4581 2888 4516 
Q 3281 4425 3559 4188 
Q 3922 3881 4101 3404 
Q 4281 2928 4281 2316 
Q 4281 1794 4159 1391 
Q 4038 988 3847 723 
Q 3656 459 3429 307 
Q 3203 156 2883 78 
Q 2563 0 2147 0 
L 494 0 
z
M 1100 541 
L 2078 541 
Q 2531 541 2789 625 
Q 3047 709 3200 863 
Q 3416 1078 3536 1442 
Q 3656 1806 3656 2325 
Q 3656 3044 3420 3430 
Q 3184 3816 2847 3947 
Q 2603 4041 2063 4041 
L 1100 4041 
L 1100 541 
z
" transform="scale(0.015625)"/>
       <path id="ArialMT-71" d="M 2538 -1272 
L 2538 353 
Q 2406 169 2170 47 
Q 1934 -75 1669 -75 
Q 1078 -75 651 397 
Q 225 869 225 1691 
Q 225 2191 398 2587 
Q 572 2984 901 3189 
Q 1231 3394 1625 3394 
Q 2241 3394 2594 2875 
L 2594 3319 
L 3100 3319 
L 3100 -1272 
L 2538 -1272 
z
M 803 1669 
Q 803 1028 1072 708 
Q 1341 388 1716 388 
Q 2075 388 2334 692 
Q 2594 997 2594 1619 
Q 2594 2281 2320 2615 
Q 2047 2950 1678 2950 
Q 1313 2950 1058 2639 
Q 803 2328 803 1669 
z
" transform="scale(0.015625)"/>
       <path id="ArialMT-6e" d="M 422 0 
L 422 3319 
L 928 3319 
L 928 2847 
Q 1294 3394 1984 3394 
Q 2284 3394 2536 3286 
Q 2788 3178 2913 3003 
Q 3038 2828 3088 2588 
Q 3119 2431 3119 2041 
L 3119 0 
L 2556 0 
L 2556 2019 
Q 2556 2363 2490 2533 
Q 2425 2703 2258 2804 
Q 2091 2906 1866 2906 
Q 1506 2906 1245 2678 
Q 984 2450 984 1813 
L 984 0 
L 422 0 
z
" transform="scale(0.015625)"/>
       <path id="ArialMT-42" d="M 469 0 
L 469 4581 
L 2188 4581 
Q 2713 4581 3030 4442 
Q 3347 4303 3526 4014 
Q 3706 3725 3706 3409 
Q 3706 3116 3547 2856 
Q 3388 2597 3066 2438 
Q 3481 2316 3704 2022 
Q 3928 1728 3928 1328 
Q 3928 1006 3792 729 
Q 3656 453 3456 303 
Q 3256 153 2954 76 
Q 2653 0 2216 0 
L 469 0 
z
M 1075 2656 
L 2066 2656 
Q 2469 2656 2644 2709 
Q 2875 2778 2992 2937 
Q 3109 3097 3109 3338 
Q 3109 3566 3000 3739 
Q 2891 3913 2687 3977 
Q 2484 4041 1991 4041 
L 1075 4041 
L 1075 2656 
z
M 1075 541 
L 2216 541 
Q 2509 541 2628 563 
Q 2838 600 2978 687 
Q 3119 775 3209 942 
Q 3300 1109 3300 1328 
Q 3300 1584 3169 1773 
Q 3038 1963 2805 2039 
Q 2572 2116 2134 2116 
L 1075 2116 
L 1075 541 
z
" transform="scale(0.015625)"/>
       <path id="ArialMT-69" d="M 425 3934 
L 425 4581 
L 988 4581 
L 988 3934 
L 425 3934 
z
M 425 0 
L 425 3319 
L 988 3319 
L 988 0 
L 425 0 
z
" transform="scale(0.015625)"/>
      </defs>
      <use xlink:href="#ArialMT-41"/>
      <use xlink:href="#ArialMT-62" transform="translate(66.699219 0)"/>
      <use xlink:href="#ArialMT-73" transform="translate(122.314453 0)"/>
      <use xlink:href="#ArialMT-6f" transform="translate(172.314453 0)"/>
      <use xlink:href="#ArialMT-6c" transform="translate(227.929688 0)"/>
      <use xlink:href="#ArialMT-75" transform="translate(250.146484 0)"/>
      <use xlink:href="#ArialMT-74" transform="translate(305.761719 0)"/>
      <use xlink:href="#ArialMT-65" transform="translate(333.544922 0)"/>
      <use xlink:href="#ArialMT-20" transform="translate(389.160156 0)"/>
      <use xlink:href="#ArialMT-57" transform="translate(416.943359 0)"/>
      <use xlink:href="#ArialMT-65" transform="translate(509.578125 0)"/>
      <use xlink:href="#ArialMT-74" transform="translate(565.193359 0)"/>
      <use xlink:href="#ArialMT-2d" transform="translate(592.976562 0)"/>
      <use xlink:href="#ArialMT-44" transform="translate(626.277344 0)"/>
      <use xlink:href="#ArialMT-61" transform="translate(698.494141 0)"/>
      <use xlink:href="#ArialMT-79" transform="translate(754.109375 0)"/>
      <use xlink:href="#ArialMT-20" transform="translate(804.109375 0)"/>
      <use xlink:href="#ArialMT-46" transform="translate(831.892578 0)"/>
      <use xlink:href="#ArialMT-72" transform="translate(892.976562 0)"/>
      <use xlink:href="#ArialMT-65" transform="translate(926.277344 0)"/>
      <use xlink:href="#ArialMT-71" transform="translate(981.892578 0)"/>
      <use xlink:href="#ArialMT-75" transform="translate(1037.507812 0)"/>
      <use xlink:href="#ArialMT-65" transform="translate(1093.123047 0)"/>
      <use xlink:href="#ArialMT-6e" transform="translate(1148.738281 0)"/>
      <use xlink:href="#ArialMT-63" transform="translate(1204.353516 0)"/>
      <use xlink:href="#ArialMT-79" transform="translate(1254.353516 0)"/>
      <use xlink:href="#ArialMT-20" transform="translate(1304.353516 0)"/>
      <use xlink:href="#ArialMT-42" transform="translate(1332.136719 0)"/>
      <use xlink:href="#ArialMT-69" transform="translate(1398.835938 0)"/>
      <use xlink:href="#ArialMT-61" transform="translate(1421.052734 0)"/>
      <use xlink:href="#ArialMT-73" transform="translate(1476.667969 0)"/>
     </g>
    </g>
   </g>
   <g id="FillBetweenPolyCollection_15"/>
   <g id="FillBetweenPolyCollection_16"/>
   <g id="FillBetweenPolyCollection_17"/>
   <g id="FillBetweenPolyCollection_18"/>
   <g id="FillBetweenPolyCollection_19"/>
   <g id="FillBetweenPolyCollection_20"/>
   <g id="FillBetweenPolyCollection_21"/>
   <g id="line2d_61">
    <path d="M 703.044582 78.21361 
L 730.344716 77.06508 
L 812.245117 47.777557 
L 948.745785 34.856591 
" clip-path="url(#p736178d5dd)" style="fill: none; stroke: #0173b2; stroke-width: 2.5; stroke-linecap: round"/>
    <g clip-path="url(#p736178d5dd)">
     <use xlink:href="#mfde99ecaee" x="703.044582" y="78.21361" style="fill: #0173b2; stroke: #ffffff; stroke-width: 0.75"/>
     <use xlink:href="#mfde99ecaee" x="730.344716" y="77.06508" style="fill: #0173b2; stroke: #ffffff; stroke-width: 0.75"/>
     <use xlink:href="#mfde99ecaee" x="812.245117" y="47.777557" style="fill: #0173b2; stroke: #ffffff; stroke-width: 0.75"/>
     <use xlink:href="#mfde99ecaee" x="948.745785" y="34.856591" style="fill: #0173b2; stroke: #ffffff; stroke-width: 0.75"/>
    </g>
   </g>
   <g id="line2d_62">
    <path d="M 703.044582 261.404193 
L 730.344716 282.939136 
L 812.245117 273.750894 
L 948.745785 275.760822 
" clip-path="url(#p736178d5dd)" style="fill: none; stroke: #de8f05; stroke-width: 2.5; stroke-linecap: round"/>
    <g clip-path="url(#p736178d5dd)">
     <use xlink:href="#m7945c40033" x="703.044582" y="261.404193" style="fill: #de8f05; stroke: #ffffff; stroke-width: 0.75; stroke-linejoin: miter"/>
     <use xlink:href="#m7945c40033" x="730.344716" y="282.939136" style="fill: #de8f05; stroke: #ffffff; stroke-width: 0.75; stroke-linejoin: miter"/>
     <use xlink:href="#m7945c40033" x="812.245117" y="273.750894" style="fill: #de8f05; stroke: #ffffff; stroke-width: 0.75; stroke-linejoin: miter"/>
     <use xlink:href="#m7945c40033" x="948.745785" y="275.760822" style="fill: #de8f05; stroke: #ffffff; stroke-width: 0.75; stroke-linejoin: miter"/>
    </g>
   </g>
   <g id="line2d_63">
    <path d="M 703.044582 108.936795 
L 730.344716 118.986436 
L 812.245117 115.253712 
L 948.745785 163.491985 
" clip-path="url(#p736178d5dd)" style="fill: none; stroke: #029e73; stroke-width: 2.5; stroke-linecap: round"/>
    <g clip-path="url(#p736178d5dd)">
     <use xlink:href="#m4ad3c8e927" x="703.044582" y="108.936795" style="fill: #029e73; stroke: #ffffff; stroke-width: 0.75; stroke-linejoin: miter"/>
     <use xlink:href="#m4ad3c8e927" x="730.344716" y="118.986436" style="fill: #029e73; stroke: #ffffff; stroke-width: 0.75; stroke-linejoin: miter"/>
     <use xlink:href="#m4ad3c8e927" x="812.245117" y="115.253712" style="fill: #029e73; stroke: #ffffff; stroke-width: 0.75; stroke-linejoin: miter"/>
     <use xlink:href="#m4ad3c8e927" x="948.745785" y="163.491985" style="fill: #029e73; stroke: #ffffff; stroke-width: 0.75; stroke-linejoin: miter"/>
    </g>
   </g>
   <g id="line2d_64">
    <path d="M 703.044582 149.422489 
L 730.344716 152.293814 
L 812.245117 131.907402 
L 948.745785 133.055932 
" clip-path="url(#p736178d5dd)" style="fill: none; stroke: #d55e00; stroke-width: 2.5; stroke-linecap: round"/>
    <g clip-path="url(#p736178d5dd)">
     <use xlink:href="#m92af06ccf8" x="703.044582" y="149.422489" style="fill: #d55e00; stroke: #ffffff; stroke-width: 0.75; stroke-linejoin: miter"/>
     <use xlink:href="#m92af06ccf8" x="730.344716" y="152.293814" style="fill: #d55e00; stroke: #ffffff; stroke-width: 0.75; stroke-linejoin: miter"/>
     <use xlink:href="#m92af06ccf8" x="812.245117" y="131.907402" style="fill: #d55e00; stroke: #ffffff; stroke-width: 0.75; stroke-linejoin: miter"/>
     <use xlink:href="#m92af06ccf8" x="948.745785" y="133.055932" style="fill: #d55e00; stroke: #ffffff; stroke-width: 0.75; stroke-linejoin: miter"/>
    </g>
   </g>
   <g id="line2d_65">
    <path d="M 703.044582 78.21361 
L 730.344716 77.06508 
L 812.245117 57.540064 
L 948.745785 147.412561 
" clip-path="url(#p736178d5dd)" style="fill: none; stroke: #cc78bc; stroke-width: 2.5; stroke-linecap: round"/>
    <g clip-path="url(#p736178d5dd)">
     <use xlink:href="#m0f9fd03416" x="703.044582" y="78.21361" style="fill: #cc78bc; stroke: #ffffff; stroke-width: 0.75; stroke-linejoin: miter"/>
     <use xlink:href="#m0f9fd03416" x="730.344716" y="77.06508" style="fill: #cc78bc; stroke: #ffffff; stroke-width: 0.75; stroke-linejoin: miter"/>
     <use xlink:href="#m0f9fd03416" x="812.245117" y="57.540064" style="fill: #cc78bc; stroke: #ffffff; stroke-width: 0.75; stroke-linejoin: miter"/>
     <use xlink:href="#m0f9fd03416" x="948.745785" y="147.412561" style="fill: #cc78bc; stroke: #ffffff; stroke-width: 0.75; stroke-linejoin: miter"/>
    </g>
   </g>
   <g id="line2d_66">
    <path d="M 703.044582 293.275909 
L 730.344716 292.127379 
L 812.245117 263.126989 
L 948.745785 254.800144 
" clip-path="url(#p736178d5dd)" style="fill: none; stroke: #ca9161; stroke-width: 2.5; stroke-linecap: round"/>
    <g clip-path="url(#p736178d5dd)">
     <use xlink:href="#mb8f66ac6cd" x="703.044582" y="293.275909" style="fill: #ca9161; stroke: #ffffff; stroke-width: 0.75; stroke-linejoin: miter"/>
     <use xlink:href="#mb8f66ac6cd" x="730.344716" y="292.127379" style="fill: #ca9161; stroke: #ffffff; stroke-width: 0.75; stroke-linejoin: miter"/>
     <use xlink:href="#mb8f66ac6cd" x="812.245117" y="263.126989" style="fill: #ca9161; stroke: #ffffff; stroke-width: 0.75; stroke-linejoin: miter"/>
     <use xlink:href="#mb8f66ac6cd" x="948.745785" y="254.800144" style="fill: #ca9161; stroke: #ffffff; stroke-width: 0.75; stroke-linejoin: miter"/>
    </g>
   </g>
   <g id="line2d_67">
    <path d="M 703.044582 262.265591 
L 730.344716 283.226269 
L 812.245117 290.117451 
L 948.745785 289.543186 
" clip-path="url(#p736178d5dd)" style="fill: none; stroke: #fbafe4; stroke-width: 2.5; stroke-linecap: round"/>
    <g clip-path="url(#p736178d5dd)">
     <use xlink:href="#mbbec8074cd" x="703.044582" y="262.265591" style="fill: #fbafe4; stroke: #ffffff; stroke-width: 0.75; stroke-linejoin: bevel"/>
     <use xlink:href="#mbbec8074cd" x="730.344716" y="283.226269" style="fill: #fbafe4; stroke: #ffffff; stroke-width: 0.75; stroke-linejoin: bevel"/>
     <use xlink:href="#mbbec8074cd" x="812.245117" y="290.117451" style="fill: #fbafe4; stroke: #ffffff; stroke-width: 0.75; stroke-linejoin: bevel"/>
     <use xlink:href="#mbbec8074cd" x="948.745785" y="289.543186" style="fill: #fbafe4; stroke: #ffffff; stroke-width: 0.75; stroke-linejoin: bevel"/>
    </g>
   </g>
   <g id="line2d_68"/>
   <g id="line2d_69"/>
   <g id="line2d_70"/>
   <g id="line2d_71"/>
   <g id="line2d_72"/>
   <g id="line2d_73"/>
   <g id="line2d_74"/>
   <g id="patch_9">
    <path d="M 690.759522 306.196875 
L 690.759522 21.935625 
" style="fill: none; stroke: #cccccc; stroke-width: 1.2; stroke-linejoin: miter; stroke-linecap: square"/>
   </g>
   <g id="patch_10">
    <path d="M 690.759522 306.196875 
L 961.030846 306.196875 
" style="fill: none; stroke: #cccccc; stroke-width: 1.2; stroke-linejoin: miter; stroke-linecap: square"/>
   </g>
   <g id="text_40">
    <!-- (c) Wet-Day Frequency Bias -->
    <g style="fill: #262626" transform="translate(746.652059 15.935625) scale(0.12 -0.12)">
     <defs>
      <path id="Arial-BoldMT-57" d="M 1116 0 
L 22 4581 
L 969 4581 
L 1659 1434 
L 2497 4581 
L 3597 4581 
L 4400 1381 
L 5103 4581 
L 6034 4581 
L 4922 0 
L 3941 0 
L 3028 3425 
L 2119 0 
L 1116 0 
z
" transform="scale(0.015625)"/>
      <path id="Arial-BoldMT-2d" d="M 359 1222 
L 359 2100 
L 2084 2100 
L 2084 1222 
L 359 1222 
z
" transform="scale(0.015625)"/>
      <path id="Arial-BoldMT-44" d="M 463 4581 
L 2153 4581 
Q 2725 4581 3025 4494 
Q 3428 4375 3715 4072 
Q 4003 3769 4153 3330 
Q 4303 2891 4303 2247 
Q 4303 1681 4163 1272 
Q 3991 772 3672 463 
Q 3431 228 3022 97 
Q 2716 0 2203 0 
L 463 0 
L 463 4581 
z
M 1388 3806 
L 1388 772 
L 2078 772 
Q 2466 772 2638 816 
Q 2863 872 3011 1006 
Q 3159 1141 3253 1448 
Q 3347 1756 3347 2288 
Q 3347 2819 3253 3103 
Q 3159 3388 2990 3547 
Q 2822 3706 2563 3763 
Q 2369 3806 1803 3806 
L 1388 3806 
z
" transform="scale(0.015625)"/>
      <path id="Arial-BoldMT-79" d="M 44 3319 
L 978 3319 
L 1772 963 
L 2547 3319 
L 3456 3319 
L 2284 125 
L 2075 -453 
Q 1959 -744 1854 -897 
Q 1750 -1050 1614 -1145 
Q 1478 -1241 1279 -1294 
Q 1081 -1347 831 -1347 
Q 578 -1347 334 -1294 
L 256 -606 
Q 463 -647 628 -647 
Q 934 -647 1081 -467 
Q 1228 -288 1306 -9 
L 44 3319 
z
" transform="scale(0.015625)"/>
      <path id="Arial-BoldMT-71" d="M 2628 -1263 
L 2628 406 
Q 2456 184 2200 54 
Q 1944 -75 1647 -75 
Q 1081 -75 716 350 
Q 284 847 284 1697 
Q 284 2497 689 2945 
Q 1094 3394 1694 3394 
Q 2025 3394 2267 3253 
Q 2509 3113 2697 2828 
L 2697 3319 
L 3506 3319 
L 3506 -1263 
L 2628 -1263 
z
M 2656 1700 
Q 2656 2209 2448 2457 
Q 2241 2706 1928 2706 
Q 1609 2706 1395 2453 
Q 1181 2200 1181 1650 
Q 1181 1103 1387 861 
Q 1594 619 1897 619 
Q 2200 619 2428 891 
Q 2656 1163 2656 1700 
z
" transform="scale(0.015625)"/>
      <path id="Arial-BoldMT-42" d="M 469 4581 
L 2300 4581 
Q 2844 4581 3111 4536 
Q 3378 4491 3589 4347 
Q 3800 4203 3940 3964 
Q 4081 3725 4081 3428 
Q 4081 3106 3907 2837 
Q 3734 2569 3438 2434 
Q 3856 2313 4081 2019 
Q 4306 1725 4306 1328 
Q 4306 1016 4161 720 
Q 4016 425 3764 248 
Q 3513 72 3144 31 
Q 2913 6 2028 0 
L 469 0 
L 469 4581 
z
M 1394 3819 
L 1394 2759 
L 2000 2759 
Q 2541 2759 2672 2775 
Q 2909 2803 3045 2939 
Q 3181 3075 3181 3297 
Q 3181 3509 3064 3642 
Q 2947 3775 2716 3803 
Q 2578 3819 1925 3819 
L 1394 3819 
z
M 1394 1997 
L 1394 772 
L 2250 772 
Q 2750 772 2884 800 
Q 3091 838 3220 983 
Q 3350 1128 3350 1372 
Q 3350 1578 3250 1722 
Q 3150 1866 2961 1931 
Q 2772 1997 2141 1997 
L 1394 1997 
z
" transform="scale(0.015625)"/>
     </defs>
     <use xlink:href="#Arial-BoldMT-28"/>
     <use xlink:href="#Arial-BoldMT-63" transform="translate(33.300781 0)"/>
     <use xlink:href="#Arial-BoldMT-29" transform="translate(88.916016 0)"/>
     <use xlink:href="#Arial-BoldMT-20" transform="translate(122.216797 0)"/>
     <use xlink:href="#Arial-BoldMT-57" transform="translate(150 0)"/>
     <use xlink:href="#Arial-BoldMT-65" transform="translate(242.634766 0)"/>
     <use xlink:href="#Arial-BoldMT-74" transform="translate(298.25 0)"/>
     <use xlink:href="#Arial-BoldMT-2d" transform="translate(331.550781 0)"/>
     <use xlink:href="#Arial-BoldMT-44" transform="translate(364.851562 0)"/>
     <use xlink:href="#Arial-BoldMT-61" transform="translate(437.068359 0)"/>
     <use xlink:href="#Arial-BoldMT-79" transform="translate(492.683594 0)"/>
     <use xlink:href="#Arial-BoldMT-20" transform="translate(548.298828 0)"/>
     <use xlink:href="#Arial-BoldMT-46" transform="translate(576.082031 0)"/>
     <use xlink:href="#Arial-BoldMT-72" transform="translate(637.166016 0)"/>
     <use xlink:href="#Arial-BoldMT-65" transform="translate(676.082031 0)"/>
     <use xlink:href="#Arial-BoldMT-71" transform="translate(731.697266 0)"/>
     <use xlink:href="#Arial-BoldMT-75" transform="translate(792.78125 0)"/>
     <use xlink:href="#Arial-BoldMT-65" transform="translate(853.865234 0)"/>
     <use xlink:href="#Arial-BoldMT-6e" transform="translate(909.480469 0)"/>
     <use xlink:href="#Arial-BoldMT-63" transform="translate(970.564453 0)"/>
     <use xlink:href="#Arial-BoldMT-79" transform="translate(1026.179688 0)"/>
     <use xlink:href="#Arial-BoldMT-20" transform="translate(1081.794922 0)"/>
     <use xlink:href="#Arial-BoldMT-42" transform="translate(1109.578125 0)"/>
     <use xlink:href="#Arial-BoldMT-69" transform="translate(1181.794922 0)"/>
     <use xlink:href="#Arial-BoldMT-61" transform="translate(1209.578125 0)"/>
     <use xlink:href="#Arial-BoldMT-73" transform="translate(1265.193359 0)"/>
    </g>
   </g>
   <g id="legend_1">
    <g id="text_41">
     <!-- Imputation Method -->
     <g style="fill: #262626" transform="translate(976.147522 37.193437) scale(0.1 -0.1)">
      <defs>
       <path id="ArialMT-70" d="M 422 -1272 
L 422 3319 
L 934 3319 
L 934 2888 
Q 1116 3141 1344 3267 
Q 1572 3394 1897 3394 
Q 2322 3394 2647 3175 
Q 2972 2956 3137 2557 
Q 3303 2159 3303 1684 
Q 3303 1175 3120 767 
Q 2938 359 2589 142 
Q 2241 -75 1856 -75 
Q 1575 -75 1351 44 
Q 1128 163 984 344 
L 984 -1272 
L 422 -1272 
z
M 931 1641 
Q 931 1000 1190 694 
Q 1450 388 1819 388 
Q 2194 388 2461 705 
Q 2728 1022 2728 1688 
Q 2728 2322 2467 2637 
Q 2206 2953 1844 2953 
Q 1484 2953 1207 2617 
Q 931 2281 931 1641 
z
" transform="scale(0.015625)"/>
       <path id="ArialMT-4d" d="M 475 0 
L 475 4581 
L 1388 4581 
L 2472 1338 
Q 2622 884 2691 659 
Q 2769 909 2934 1394 
L 4031 4581 
L 4847 4581 
L 4847 0 
L 4263 0 
L 4263 3834 
L 2931 0 
L 2384 0 
L 1059 3900 
L 1059 0 
L 475 0 
z
" transform="scale(0.015625)"/>
      </defs>
      <use xlink:href="#ArialMT-49"/>
      <use xlink:href="#ArialMT-6d" transform="translate(27.783203 0)"/>
      <use xlink:href="#ArialMT-70" transform="translate(111.083984 0)"/>
      <use xlink:href="#ArialMT-75" transform="translate(166.699219 0)"/>
      <use xlink:href="#ArialMT-74" transform="translate(222.314453 0)"/>
      <use xlink:href="#ArialMT-61" transform="translate(250.097656 0)"/>
      <use xlink:href="#ArialMT-74" transform="translate(305.712891 0)"/>
      <use xlink:href="#ArialMT-69" transform="translate(333.496094 0)"/>
      <use xlink:href="#ArialMT-6f" transform="translate(355.712891 0)"/>
      <use xlink:href="#ArialMT-6e" transform="translate(411.328125 0)"/>
      <use xlink:href="#ArialMT-20" transform="translate(466.943359 0)"/>
      <use xlink:href="#ArialMT-4d" transform="translate(494.726562 0)"/>
      <use xlink:href="#ArialMT-65" transform="translate(578.027344 0)"/>
      <use xlink:href="#ArialMT-74" transform="translate(633.642578 0)"/>
      <use xlink:href="#ArialMT-68" transform="translate(661.425781 0)"/>
      <use xlink:href="#ArialMT-6f" transform="translate(717.041016 0)"/>
      <use xlink:href="#ArialMT-64" transform="translate(772.65625 0)"/>
     </g>
    </g>
    <g id="line2d_75">
     <path d="M 974.536272 46.972969 
L 983.536272 46.972969 
L 992.536272 46.972969 
" style="fill: none; stroke: #0173b2; stroke-width: 2.5; stroke-linecap: round"/>
     <g>
      <use xlink:href="#mfde99ecaee" x="983.536272" y="46.972969" style="fill: #0173b2; stroke: #ffffff; stroke-width: 0.75"/>
     </g>
    </g>
    <g id="text_42">
     <!-- Mean -->
     <g style="fill: #262626" transform="translate(999.736272 50.122969) scale(0.09 -0.09)">
      <use xlink:href="#ArialMT-4d"/>
      <use xlink:href="#ArialMT-65" transform="translate(83.300781 0)"/>
      <use xlink:href="#ArialMT-61" transform="translate(138.916016 0)"/>
      <use xlink:href="#ArialMT-6e" transform="translate(194.53125 0)"/>
     </g>
    </g>
    <g id="line2d_76">
     <path d="M 974.536272 59.70375 
L 983.536272 59.70375 
L 992.536272 59.70375 
" style="fill: none; stroke: #de8f05; stroke-width: 2.5; stroke-linecap: round"/>
     <g>
      <use xlink:href="#m7945c40033" x="983.536272" y="59.70375" style="fill: #de8f05; stroke: #ffffff; stroke-width: 0.75; stroke-linejoin: miter"/>
     </g>
    </g>
    <g id="text_43">
     <!-- Linear -->
     <g style="fill: #262626" transform="translate(999.736272 62.85375) scale(0.09 -0.09)">
      <defs>
       <path id="ArialMT-4c" d="M 469 0 
L 469 4581 
L 1075 4581 
L 1075 541 
L 3331 541 
L 3331 0 
L 469 0 
z
" transform="scale(0.015625)"/>
      </defs>
      <use xlink:href="#ArialMT-4c"/>
      <use xlink:href="#ArialMT-69" transform="translate(55.615234 0)"/>
      <use xlink:href="#ArialMT-6e" transform="translate(77.832031 0)"/>
      <use xlink:href="#ArialMT-65" transform="translate(133.447266 0)"/>
      <use xlink:href="#ArialMT-61" transform="translate(189.0625 0)"/>
      <use xlink:href="#ArialMT-72" transform="translate(244.677734 0)"/>
     </g>
    </g>
    <g id="line2d_77">
     <path d="M 974.536272 72.434531 
L 983.536272 72.434531 
L 992.536272 72.434531 
" style="fill: none; stroke: #029e73; stroke-width: 2.5; stroke-linecap: round"/>
     <g>
      <use xlink:href="#m4ad3c8e927" x="983.536272" y="72.434531" style="fill: #029e73; stroke: #ffffff; stroke-width: 0.75; stroke-linejoin: miter"/>
     </g>
    </g>
    <g id="text_44">
     <!-- KNN -->
     <g style="fill: #262626" transform="translate(999.736272 75.584531) scale(0.09 -0.09)">
      <defs>
       <path id="ArialMT-4b" d="M 469 0 
L 469 4581 
L 1075 4581 
L 1075 2309 
L 3350 4581 
L 4172 4581 
L 2250 2725 
L 4256 0 
L 3456 0 
L 1825 2319 
L 1075 1588 
L 1075 0 
L 469 0 
z
" transform="scale(0.015625)"/>
       <path id="ArialMT-4e" d="M 488 0 
L 488 4581 
L 1109 4581 
L 3516 984 
L 3516 4581 
L 4097 4581 
L 4097 0 
L 3475 0 
L 1069 3600 
L 1069 0 
L 488 0 
z
" transform="scale(0.015625)"/>
      </defs>
      <use xlink:href="#ArialMT-4b"/>
      <use xlink:href="#ArialMT-4e" transform="translate(66.699219 0)"/>
      <use xlink:href="#ArialMT-4e" transform="translate(138.916016 0)"/>
     </g>
    </g>
    <g id="line2d_78">
     <path d="M 974.536272 85.165312 
L 983.536272 85.165312 
L 992.536272 85.165312 
" style="fill: none; stroke: #d55e00; stroke-width: 2.5; stroke-linecap: round"/>
     <g>
      <use xlink:href="#m92af06ccf8" x="983.536272" y="85.165312" style="fill: #d55e00; stroke: #ffffff; stroke-width: 0.75; stroke-linejoin: miter"/>
     </g>
    </g>
    <g id="text_45">
     <!-- MICE -->
     <g style="fill: #262626" transform="translate(999.736272 88.315312) scale(0.09 -0.09)">
      <defs>
       <path id="ArialMT-45" d="M 506 0 
L 506 4581 
L 3819 4581 
L 3819 4041 
L 1113 4041 
L 1113 2638 
L 3647 2638 
L 3647 2100 
L 1113 2100 
L 1113 541 
L 3925 541 
L 3925 0 
L 506 0 
z
" transform="scale(0.015625)"/>
      </defs>
      <use xlink:href="#ArialMT-4d"/>
      <use xlink:href="#ArialMT-49" transform="translate(83.300781 0)"/>
      <use xlink:href="#ArialMT-43" transform="translate(111.083984 0)"/>
      <use xlink:href="#ArialMT-45" transform="translate(183.300781 0)"/>
     </g>
    </g>
    <g id="line2d_79">
     <path d="M 974.536272 97.896094 
L 983.536272 97.896094 
L 992.536272 97.896094 
" style="fill: none; stroke: #cc78bc; stroke-width: 2.5; stroke-linecap: round"/>
     <g>
      <use xlink:href="#m0f9fd03416" x="983.536272" y="97.896094" style="fill: #cc78bc; stroke: #ffffff; stroke-width: 0.75; stroke-linejoin: miter"/>
     </g>
    </g>
    <g id="text_46">
     <!-- WGAN-GP raw -->
     <g style="fill: #262626" transform="translate(999.736272 101.046094) scale(0.09 -0.09)">
      <defs>
       <path id="ArialMT-47" d="M 2638 1797 
L 2638 2334 
L 4578 2338 
L 4578 638 
Q 4131 281 3656 101 
Q 3181 -78 2681 -78 
Q 2006 -78 1454 211 
Q 903 500 622 1047 
Q 341 1594 341 2269 
Q 341 2938 620 3517 
Q 900 4097 1425 4378 
Q 1950 4659 2634 4659 
Q 3131 4659 3532 4498 
Q 3934 4338 4162 4050 
Q 4391 3763 4509 3300 
L 3963 3150 
Q 3859 3500 3706 3700 
Q 3553 3900 3268 4020 
Q 2984 4141 2638 4141 
Q 2222 4141 1919 4014 
Q 1616 3888 1430 3681 
Q 1244 3475 1141 3228 
Q 966 2803 966 2306 
Q 966 1694 1177 1281 
Q 1388 869 1791 669 
Q 2194 469 2647 469 
Q 3041 469 3416 620 
Q 3791 772 3984 944 
L 3984 1797 
L 2638 1797 
z
" transform="scale(0.015625)"/>
       <path id="ArialMT-50" d="M 494 0 
L 494 4581 
L 2222 4581 
Q 2678 4581 2919 4538 
Q 3256 4481 3484 4323 
Q 3713 4166 3852 3881 
Q 3991 3597 3991 3256 
Q 3991 2672 3619 2267 
Q 3247 1863 2275 1863 
L 1100 1863 
L 1100 0 
L 494 0 
z
M 1100 2403 
L 2284 2403 
Q 2872 2403 3119 2622 
Q 3366 2841 3366 3238 
Q 3366 3525 3220 3729 
Q 3075 3934 2838 4000 
Q 2684 4041 2272 4041 
L 1100 4041 
L 1100 2403 
z
" transform="scale(0.015625)"/>
       <path id="ArialMT-77" d="M 1034 0 
L 19 3319 
L 600 3319 
L 1128 1403 
L 1325 691 
Q 1338 744 1497 1375 
L 2025 3319 
L 2603 3319 
L 3100 1394 
L 3266 759 
L 3456 1400 
L 4025 3319 
L 4572 3319 
L 3534 0 
L 2950 0 
L 2422 1988 
L 2294 2553 
L 1622 0 
L 1034 0 
z
" transform="scale(0.015625)"/>
      </defs>
      <use xlink:href="#ArialMT-57"/>
      <use xlink:href="#ArialMT-47" transform="translate(94.384766 0)"/>
      <use xlink:href="#ArialMT-41" transform="translate(172.167969 0)"/>
      <use xlink:href="#ArialMT-4e" transform="translate(238.867188 0)"/>
      <use xlink:href="#ArialMT-2d" transform="translate(311.083984 0)"/>
      <use xlink:href="#ArialMT-47" transform="translate(344.384766 0)"/>
      <use xlink:href="#ArialMT-50" transform="translate(422.167969 0)"/>
      <use xlink:href="#ArialMT-20" transform="translate(487.117188 0)"/>
      <use xlink:href="#ArialMT-72" transform="translate(514.900391 0)"/>
      <use xlink:href="#ArialMT-61" transform="translate(548.201172 0)"/>
      <use xlink:href="#ArialMT-77" transform="translate(603.816406 0)"/>
     </g>
    </g>
    <g id="line2d_80">
     <path d="M 974.536272 110.742187 
L 983.536272 110.742187 
L 992.536272 110.742187 
" style="fill: none; stroke: #ca9161; stroke-width: 2.5; stroke-linecap: round"/>
     <g>
      <use xlink:href="#mb8f66ac6cd" x="983.536272" y="110.742187" style="fill: #ca9161; stroke: #ffffff; stroke-width: 0.75; stroke-linejoin: miter"/>
     </g>
    </g>
    <g id="text_47">
     <!-- DLPIF (Ours) -->
     <g style="fill: #262626" transform="translate(999.736272 113.892187) scale(0.09 -0.09)">
      <defs>
       <path id="ArialMT-4f" d="M 309 2231 
Q 309 3372 921 4017 
Q 1534 4663 2503 4663 
Q 3138 4663 3647 4359 
Q 4156 4056 4423 3514 
Q 4691 2972 4691 2284 
Q 4691 1588 4409 1038 
Q 4128 488 3612 205 
Q 3097 -78 2500 -78 
Q 1853 -78 1343 234 
Q 834 547 571 1087 
Q 309 1628 309 2231 
z
M 934 2222 
Q 934 1394 1379 917 
Q 1825 441 2497 441 
Q 3181 441 3623 922 
Q 4066 1403 4066 2288 
Q 4066 2847 3877 3264 
Q 3688 3681 3323 3911 
Q 2959 4141 2506 4141 
Q 1863 4141 1398 3698 
Q 934 3256 934 2222 
z
" transform="scale(0.015625)"/>
      </defs>
      <use xlink:href="#ArialMT-44"/>
      <use xlink:href="#ArialMT-4c" transform="translate(72.216797 0)"/>
      <use xlink:href="#ArialMT-50" transform="translate(127.832031 0)"/>
      <use xlink:href="#ArialMT-49" transform="translate(194.53125 0)"/>
      <use xlink:href="#ArialMT-46" transform="translate(222.314453 0)"/>
      <use xlink:href="#ArialMT-20" transform="translate(283.398438 0)"/>
      <use xlink:href="#ArialMT-28" transform="translate(311.181641 0)"/>
      <use xlink:href="#ArialMT-4f" transform="translate(344.482422 0)"/>
      <use xlink:href="#ArialMT-75" transform="translate(422.265625 0)"/>
      <use xlink:href="#ArialMT-72" transform="translate(477.880859 0)"/>
      <use xlink:href="#ArialMT-73" transform="translate(511.181641 0)"/>
      <use xlink:href="#ArialMT-29" transform="translate(561.181641 0)"/>
     </g>
    </g>
    <g id="line2d_81">
     <path d="M 974.536272 123.578437 
L 983.536272 123.578437 
L 992.536272 123.578437 
" style="fill: none; stroke: #fbafe4; stroke-width: 2.5; stroke-linecap: round"/>
     <g>
      <use xlink:href="#mbbec8074cd" x="983.536272" y="123.578437" style="fill: #fbafe4; stroke: #ffffff; stroke-width: 0.75; stroke-linejoin: bevel"/>
     </g>
    </g>
    <g id="text_48">
     <!-- SAITS -->
     <g style="fill: #262626" transform="translate(999.736272 126.728437) scale(0.09 -0.09)">
      <use xlink:href="#ArialMT-53"/>
      <use xlink:href="#ArialMT-41" transform="translate(66.699219 0)"/>
      <use xlink:href="#ArialMT-49" transform="translate(133.398438 0)"/>
      <use xlink:href="#ArialMT-54" transform="translate(161.181641 0)"/>
      <use xlink:href="#ArialMT-53" transform="translate(222.265625 0)"/>
     </g>
    </g>
   </g>
  </g>
 </g>
 <defs>
  <clipPath id="p40500fdb67">
   <rect x="46.964375" y="21.935625" width="270.271324" height="284.26125"/>
  </clipPath>
  <clipPath id="p9594dd3d4c">
   <rect x="368.861949" y="21.935625" width="270.271324" height="284.26125"/>
  </clipPath>
  <clipPath id="p736178d5dd">
   <rect x="690.759522" y="21.935625" width="270.271324" height="284.26125"/>
  </clipPath>
 </defs>
</svg>
