<?xml version="1.0" encoding="utf-8" standalone="no"?>
<!DOCTYPE svg PUBLIC "-//W3C//DTD SVG 1.1//EN"
  "http://www.w3.org/Graphics/SVG/1.1/DTD/svg11.dtd">
<svg xmlns:xlink="http://www.w3.org/1999/xlink" width="820.8pt" height="244.8pt" viewBox="0 0 820.8 244.8" xmlns="http://www.w3.org/2000/svg" version="1.1">
 <metadata>
  <rdf:RDF xmlns:dc="http://purl.org/dc/elements/1.1/" xmlns:cc="http://creativecommons.org/ns#" xmlns:rdf="http://www.w3.org/1999/02/22-rdf-syntax-ns#">
   <cc:Work>
    <dc:type rdf:resource="http://purl.org/dc/dcmitype/StillImage"/>
    <dc:date>2026-05-21T13:35:13.012646</dc:date>
    <dc:format>image/svg+xml</dc:format>
    <dc:creator>
     <cc:Agent>
      <dc:title>Matplotlib v3.10.9, https://matplotlib.org/</dc:title>
     </cc:Agent>
    </dc:creator>
   </cc:Work>
  </rdf:RDF>
 </metadata>
 <defs>
  <style type="text/css">*{stroke-linejoin: round; stroke-linecap: butt}</style>
 </defs>
 <g id="figure_1">
  <g id="patch_1">
   <path d="M 0 244.8 
L 820.8 244.8 
L 820.8 0 
L 0 0 
z
" style="fill: #ffffff"/>
  </g>
  <g id="axes_1">
   <g id="patch_2">
    <path d="M 165.571386 138.857143 
Q 171.28338 138.857143 174.741905 138.857143 
" clip-path="url(#pbd9795399b)" style="fill: none; stroke: #555555; stroke-width: 2.5; stroke-linecap: round"/>
    <path d="M 162.741905 130.857143 
L 174.741905 138.857143 
L 162.741905 146.857143 
z
" clip-path="url(#pbd9795399b)" style="fill: #555555; stroke: #555555; stroke-width: 2.5; stroke-linecap: round"/>
   </g>
   <g id="patch_3">
    <path d="M 291.790516 138.857143 
Q 297.502511 138.857143 300.961036 138.857143 
" clip-path="url(#pbd9795399b)" style="fill: none; stroke: #555555; stroke-width: 2.5; stroke-linecap: round"/>
    <path d="M 288.961036 130.857143 
L 300.961036 138.857143 
L 288.961036 146.857143 
z
" clip-path="url(#pbd9795399b)" style="fill: #555555; stroke: #555555; stroke-width: 2.5; stroke-linecap: round"/>
   </g>
   <g id="patch_4">
    <path d="M 418.009647 138.857143 
Q 423.721641 138.857143 427.180166 138.857143 
" clip-path="url(#pbd9795399b)" style="fill: none; stroke: #555555; stroke-width: 2.5; stroke-linecap: round"/>
    <path d="M 415.180166 130.857143 
L 427.180166 138.857143 
L 415.180166 146.857143 
z
" clip-path="url(#pbd9795399b)" style="fill: #555555; stroke: #555555; stroke-width: 2.5; stroke-linecap: round"/>
   </g>
   <g id="patch_5">
    <path d="M 551.240951 138.857143 
Q 556.952946 138.857143 560.411471 138.857143 
" clip-path="url(#pbd9795399b)" style="fill: none; stroke: #555555; stroke-width: 2.5; stroke-linecap: round"/>
    <path d="M 548.411471 130.857143 
L 560.411471 138.857143 
L 548.411471 146.857143 
z
" clip-path="url(#pbd9795399b)" style="fill: #555555; stroke: #555555; stroke-width: 2.5; stroke-linecap: round"/>
   </g>
   <g id="patch_6">
    <path d="M 677.460082 138.857143 
Q 683.172076 138.857143 686.630601 138.857143 
" clip-path="url(#pbd9795399b)" style="fill: none; stroke: #555555; stroke-width: 2.5; stroke-linecap: round"/>
    <path d="M 674.630601 130.857143 
L 686.630601 138.857143 
L 674.630601 146.857143 
z
" clip-path="url(#pbd9795399b)" style="fill: #555555; stroke: #555555; stroke-width: 2.5; stroke-linecap: round"/>
   </g>
   <g id="text_1">
    <!-- Decoupled Latent-Physical Imputation Framework (DLPIF) -->
    <g style="fill: #222222" transform="translate(203.302734 30.829821) scale(0.15 -0.15)">
     <defs>
      <path id="Arial-BoldMT-44" d="M 463 4581 
L 2153 4581 
Q 2725 4581 3025 4494 
Q 3428 4375 3715 4072 
Q 4003 3769 4153 3330 
Q 4303 2891 4303 2247 
Q 4303 1681 4163 1272 
Q 3991 772 3672 463 
Q 3431 228 3022 97 
Q 2716 0 2203 0 
L 463 0 
L 463 4581 
z
M 1388 3806 
L 1388 772 
L 2078 772 
Q 2466 772 2638 816 
Q 2863 872 3011 1006 
Q 3159 1141 3253 1448 
Q 3347 1756 3347 2288 
Q 3347 2819 3253 3103 
Q 3159 3388 2990 3547 
Q 2822 3706 2563 3763 
Q 2369 3806 1803 3806 
L 1388 3806 
z
" transform="scale(0.015625)"/>
      <path id="Arial-BoldMT-65" d="M 2381 1056 
L 3256 909 
Q 3088 428 2723 176 
Q 2359 -75 1813 -75 
Q 947 -75 531 491 
Q 203 944 203 1634 
Q 203 2459 634 2926 
Q 1066 3394 1725 3394 
Q 2466 3394 2894 2905 
Q 3322 2416 3303 1406 
L 1103 1406 
Q 1113 1016 1316 798 
Q 1519 581 1822 581 
Q 2028 581 2168 693 
Q 2309 806 2381 1056 
z
M 2431 1944 
Q 2422 2325 2234 2523 
Q 2047 2722 1778 2722 
Q 1491 2722 1303 2513 
Q 1116 2303 1119 1944 
L 2431 1944 
z
" transform="scale(0.015625)"/>
      <path id="Arial-BoldMT-63" d="M 3353 2338 
L 2488 2181 
Q 2444 2441 2289 2572 
Q 2134 2703 1888 2703 
Q 1559 2703 1364 2476 
Q 1169 2250 1169 1719 
Q 1169 1128 1367 884 
Q 1566 641 1900 641 
Q 2150 641 2309 783 
Q 2469 925 2534 1272 
L 3397 1125 
Q 3263 531 2881 228 
Q 2500 -75 1859 -75 
Q 1131 -75 698 384 
Q 266 844 266 1656 
Q 266 2478 700 2936 
Q 1134 3394 1875 3394 
Q 2481 3394 2839 3133 
Q 3197 2872 3353 2338 
z
" transform="scale(0.015625)"/>
      <path id="Arial-BoldMT-6f" d="M 256 1706 
Q 256 2144 472 2553 
Q 688 2963 1083 3178 
Q 1478 3394 1966 3394 
Q 2719 3394 3200 2905 
Q 3681 2416 3681 1669 
Q 3681 916 3195 420 
Q 2709 -75 1972 -75 
Q 1516 -75 1102 131 
Q 688 338 472 736 
Q 256 1134 256 1706 
z
M 1156 1659 
Q 1156 1166 1390 903 
Q 1625 641 1969 641 
Q 2313 641 2545 903 
Q 2778 1166 2778 1666 
Q 2778 2153 2545 2415 
Q 2313 2678 1969 2678 
Q 1625 2678 1390 2415 
Q 1156 2153 1156 1659 
z
" transform="scale(0.015625)"/>
      <path id="Arial-BoldMT-75" d="M 2644 0 
L 2644 497 
Q 2463 231 2167 78 
Q 1872 -75 1544 -75 
Q 1209 -75 943 72 
Q 678 219 559 484 
Q 441 750 441 1219 
L 441 3319 
L 1319 3319 
L 1319 1794 
Q 1319 1094 1367 936 
Q 1416 778 1544 686 
Q 1672 594 1869 594 
Q 2094 594 2272 717 
Q 2450 841 2515 1023 
Q 2581 1206 2581 1919 
L 2581 3319 
L 3459 3319 
L 3459 0 
L 2644 0 
z
" transform="scale(0.015625)"/>
      <path id="Arial-BoldMT-70" d="M 434 3319 
L 1253 3319 
L 1253 2831 
Q 1413 3081 1684 3237 
Q 1956 3394 2288 3394 
Q 2866 3394 3269 2941 
Q 3672 2488 3672 1678 
Q 3672 847 3265 386 
Q 2859 -75 2281 -75 
Q 2006 -75 1782 34 
Q 1559 144 1313 409 
L 1313 -1263 
L 434 -1263 
L 434 3319 
z
M 1303 1716 
Q 1303 1156 1525 889 
Q 1747 622 2066 622 
Q 2372 622 2575 867 
Q 2778 1113 2778 1672 
Q 2778 2194 2568 2447 
Q 2359 2700 2050 2700 
Q 1728 2700 1515 2451 
Q 1303 2203 1303 1716 
z
" transform="scale(0.015625)"/>
      <path id="Arial-BoldMT-6c" d="M 459 0 
L 459 4581 
L 1338 4581 
L 1338 0 
L 459 0 
z
" transform="scale(0.015625)"/>
      <path id="Arial-BoldMT-64" d="M 3503 0 
L 2688 0 
L 2688 488 
Q 2484 203 2207 64 
Q 1931 -75 1650 -75 
Q 1078 -75 670 386 
Q 263 847 263 1672 
Q 263 2516 659 2955 
Q 1056 3394 1663 3394 
Q 2219 3394 2625 2931 
L 2625 4581 
L 3503 4581 
L 3503 0 
z
M 1159 1731 
Q 1159 1200 1306 963 
Q 1519 619 1900 619 
Q 2203 619 2415 876 
Q 2628 1134 2628 1647 
Q 2628 2219 2422 2470 
Q 2216 2722 1894 2722 
Q 1581 2722 1370 2473 
Q 1159 2225 1159 1731 
z
" transform="scale(0.015625)"/>
      <path id="Arial-BoldMT-20" transform="scale(0.015625)"/>
      <path id="Arial-BoldMT-4c" d="M 491 0 
L 491 4544 
L 1416 4544 
L 1416 772 
L 3716 772 
L 3716 0 
L 491 0 
z
" transform="scale(0.015625)"/>
      <path id="Arial-BoldMT-61" d="M 1116 2306 
L 319 2450 
Q 453 2931 781 3162 
Q 1109 3394 1756 3394 
Q 2344 3394 2631 3255 
Q 2919 3116 3036 2902 
Q 3153 2688 3153 2116 
L 3144 1091 
Q 3144 653 3186 445 
Q 3228 238 3344 0 
L 2475 0 
Q 2441 88 2391 259 
Q 2369 338 2359 363 
Q 2134 144 1878 34 
Q 1622 -75 1331 -75 
Q 819 -75 523 203 
Q 228 481 228 906 
Q 228 1188 362 1408 
Q 497 1628 739 1745 
Q 981 1863 1438 1950 
Q 2053 2066 2291 2166 
L 2291 2253 
Q 2291 2506 2166 2614 
Q 2041 2722 1694 2722 
Q 1459 2722 1328 2630 
Q 1197 2538 1116 2306 
z
M 2291 1594 
Q 2122 1538 1756 1459 
Q 1391 1381 1278 1306 
Q 1106 1184 1106 997 
Q 1106 813 1243 678 
Q 1381 544 1594 544 
Q 1831 544 2047 700 
Q 2206 819 2256 991 
Q 2291 1103 2291 1419 
L 2291 1594 
z
" transform="scale(0.015625)"/>
      <path id="Arial-BoldMT-74" d="M 1981 3319 
L 1981 2619 
L 1381 2619 
L 1381 1281 
Q 1381 875 1398 808 
Q 1416 741 1477 697 
Q 1538 653 1625 653 
Q 1747 653 1978 738 
L 2053 56 
Q 1747 -75 1359 -75 
Q 1122 -75 931 4 
Q 741 84 652 211 
Q 563 338 528 553 
Q 500 706 500 1172 
L 500 2619 
L 97 2619 
L 97 3319 
L 500 3319 
L 500 3978 
L 1381 4491 
L 1381 3319 
L 1981 3319 
z
" transform="scale(0.015625)"/>
      <path id="Arial-BoldMT-6e" d="M 3478 0 
L 2600 0 
L 2600 1694 
Q 2600 2231 2544 2389 
Q 2488 2547 2361 2634 
Q 2234 2722 2056 2722 
Q 1828 2722 1647 2597 
Q 1466 2472 1398 2265 
Q 1331 2059 1331 1503 
L 1331 0 
L 453 0 
L 453 3319 
L 1269 3319 
L 1269 2831 
Q 1703 3394 2363 3394 
Q 2653 3394 2893 3289 
Q 3134 3184 3257 3021 
Q 3381 2859 3429 2653 
Q 3478 2447 3478 2063 
L 3478 0 
z
" transform="scale(0.015625)"/>
      <path id="Arial-BoldMT-2d" d="M 359 1222 
L 359 2100 
L 2084 2100 
L 2084 1222 
L 359 1222 
z
" transform="scale(0.015625)"/>
      <path id="Arial-BoldMT-50" d="M 466 0 
L 466 4581 
L 1950 4581 
Q 2794 4581 3050 4513 
Q 3444 4409 3709 4064 
Q 3975 3719 3975 3172 
Q 3975 2750 3822 2462 
Q 3669 2175 3433 2011 
Q 3197 1847 2953 1794 
Q 2622 1728 1994 1728 
L 1391 1728 
L 1391 0 
L 466 0 
z
M 1391 3806 
L 1391 2506 
L 1897 2506 
Q 2444 2506 2628 2578 
Q 2813 2650 2917 2803 
Q 3022 2956 3022 3159 
Q 3022 3409 2875 3571 
Q 2728 3734 2503 3775 
Q 2338 3806 1838 3806 
L 1391 3806 
z
" transform="scale(0.015625)"/>
      <path id="Arial-BoldMT-68" d="M 1334 4581 
L 1334 2897 
Q 1759 3394 2350 3394 
Q 2653 3394 2897 3281 
Q 3141 3169 3264 2994 
Q 3388 2819 3433 2606 
Q 3478 2394 3478 1947 
L 3478 0 
L 2600 0 
L 2600 1753 
Q 2600 2275 2550 2415 
Q 2500 2556 2373 2639 
Q 2247 2722 2056 2722 
Q 1838 2722 1666 2615 
Q 1494 2509 1414 2295 
Q 1334 2081 1334 1663 
L 1334 0 
L 456 0 
L 456 4581 
L 1334 4581 
z
" transform="scale(0.015625)"/>
      <path id="Arial-BoldMT-79" d="M 44 3319 
L 978 3319 
L 1772 963 
L 2547 3319 
L 3456 3319 
L 2284 125 
L 2075 -453 
Q 1959 -744 1854 -897 
Q 1750 -1050 1614 -1145 
Q 1478 -1241 1279 -1294 
Q 1081 -1347 831 -1347 
Q 578 -1347 334 -1294 
L 256 -606 
Q 463 -647 628 -647 
Q 934 -647 1081 -467 
Q 1228 -288 1306 -9 
L 44 3319 
z
" transform="scale(0.015625)"/>
      <path id="Arial-BoldMT-73" d="M 150 947 
L 1031 1081 
Q 1088 825 1259 692 
Q 1431 559 1741 559 
Q 2081 559 2253 684 
Q 2369 772 2369 919 
Q 2369 1019 2306 1084 
Q 2241 1147 2013 1200 
Q 950 1434 666 1628 
Q 272 1897 272 2375 
Q 272 2806 612 3100 
Q 953 3394 1669 3394 
Q 2350 3394 2681 3172 
Q 3013 2950 3138 2516 
L 2309 2363 
Q 2256 2556 2107 2659 
Q 1959 2763 1684 2763 
Q 1338 2763 1188 2666 
Q 1088 2597 1088 2488 
Q 1088 2394 1175 2328 
Q 1294 2241 1995 2081 
Q 2697 1922 2975 1691 
Q 3250 1456 3250 1038 
Q 3250 581 2869 253 
Q 2488 -75 1741 -75 
Q 1063 -75 667 200 
Q 272 475 150 947 
z
" transform="scale(0.015625)"/>
      <path id="Arial-BoldMT-69" d="M 459 3769 
L 459 4581 
L 1338 4581 
L 1338 3769 
L 459 3769 
z
M 459 0 
L 459 3319 
L 1338 3319 
L 1338 0 
L 459 0 
z
" transform="scale(0.015625)"/>
      <path id="Arial-BoldMT-49" d="M 438 0 
L 438 4581 
L 1363 4581 
L 1363 0 
L 438 0 
z
" transform="scale(0.015625)"/>
      <path id="Arial-BoldMT-6d" d="M 394 3319 
L 1203 3319 
L 1203 2866 
Q 1638 3394 2238 3394 
Q 2556 3394 2790 3262 
Q 3025 3131 3175 2866 
Q 3394 3131 3647 3262 
Q 3900 3394 4188 3394 
Q 4553 3394 4806 3245 
Q 5059 3097 5184 2809 
Q 5275 2597 5275 2122 
L 5275 0 
L 4397 0 
L 4397 1897 
Q 4397 2391 4306 2534 
Q 4184 2722 3931 2722 
Q 3747 2722 3584 2609 
Q 3422 2497 3350 2280 
Q 3278 2063 3278 1594 
L 3278 0 
L 2400 0 
L 2400 1819 
Q 2400 2303 2353 2443 
Q 2306 2584 2207 2653 
Q 2109 2722 1941 2722 
Q 1738 2722 1575 2612 
Q 1413 2503 1342 2297 
Q 1272 2091 1272 1613 
L 1272 0 
L 394 0 
L 394 3319 
z
" transform="scale(0.015625)"/>
      <path id="Arial-BoldMT-46" d="M 472 0 
L 472 4581 
L 3613 4581 
L 3613 3806 
L 1397 3806 
L 1397 2722 
L 3309 2722 
L 3309 1947 
L 1397 1947 
L 1397 0 
L 472 0 
z
" transform="scale(0.015625)"/>
      <path id="Arial-BoldMT-72" d="M 1300 0 
L 422 0 
L 422 3319 
L 1238 3319 
L 1238 2847 
Q 1447 3181 1614 3287 
Q 1781 3394 1994 3394 
Q 2294 3394 2572 3228 
L 2300 2463 
Q 2078 2606 1888 2606 
Q 1703 2606 1575 2504 
Q 1447 2403 1373 2137 
Q 1300 1872 1300 1025 
L 1300 0 
z
" transform="scale(0.015625)"/>
      <path id="Arial-BoldMT-77" d="M 1078 0 
L 28 3319 
L 881 3319 
L 1503 1144 
L 2075 3319 
L 2922 3319 
L 3475 1144 
L 4109 3319 
L 4975 3319 
L 3909 0 
L 3066 0 
L 2494 2134 
L 1931 0 
L 1078 0 
z
" transform="scale(0.015625)"/>
      <path id="Arial-BoldMT-6b" d="M 428 0 
L 428 4581 
L 1306 4581 
L 1306 2150 
L 2334 3319 
L 3416 3319 
L 2281 2106 
L 3497 0 
L 2550 0 
L 1716 1491 
L 1306 1063 
L 1306 0 
L 428 0 
z
" transform="scale(0.015625)"/>
      <path id="Arial-BoldMT-28" d="M 1916 -1347 
L 1313 -1347 
Q 834 -625 584 153 
Q 334 931 334 1659 
Q 334 2563 644 3369 
Q 913 4069 1325 4659 
L 1925 4659 
Q 1497 3713 1336 3048 
Q 1175 2384 1175 1641 
Q 1175 1128 1270 590 
Q 1366 53 1531 -431 
Q 1641 -750 1916 -1347 
z
" transform="scale(0.015625)"/>
      <path id="Arial-BoldMT-29" d="M 216 -1347 
Q 475 -791 581 -494 
Q 688 -197 778 190 
Q 869 578 912 926 
Q 956 1275 956 1641 
Q 956 2384 797 3048 
Q 638 3713 209 4659 
L 806 4659 
Q 1278 3988 1539 3234 
Q 1800 2481 1800 1706 
Q 1800 1053 1594 306 
Q 1359 -531 822 -1347 
L 216 -1347 
z
" transform="scale(0.015625)"/>
     </defs>
     <use xlink:href="#Arial-BoldMT-44"/>
     <use xlink:href="#Arial-BoldMT-65" transform="translate(72.216797 0)"/>
     <use xlink:href="#Arial-BoldMT-63" transform="translate(127.832031 0)"/>
     <use xlink:href="#Arial-BoldMT-6f" transform="translate(183.447266 0)"/>
     <use xlink:href="#Arial-BoldMT-75" transform="translate(244.53125 0)"/>
     <use xlink:href="#Arial-BoldMT-70" transform="translate(305.615234 0)"/>
     <use xlink:href="#Arial-BoldMT-6c" transform="translate(366.699219 0)"/>
     <use xlink:href="#Arial-BoldMT-65" transform="translate(394.482422 0)"/>
     <use xlink:href="#Arial-BoldMT-64" transform="translate(450.097656 0)"/>
     <use xlink:href="#Arial-BoldMT-20" transform="translate(511.181641 0)"/>
     <use xlink:href="#Arial-BoldMT-4c" transform="translate(538.964844 0)"/>
     <use xlink:href="#Arial-BoldMT-61" transform="translate(600.048828 0)"/>
     <use xlink:href="#Arial-BoldMT-74" transform="translate(655.664062 0)"/>
     <use xlink:href="#Arial-BoldMT-65" transform="translate(688.964844 0)"/>
     <use xlink:href="#Arial-BoldMT-6e" transform="translate(744.580078 0)"/>
     <use xlink:href="#Arial-BoldMT-74" transform="translate(805.664062 0)"/>
     <use xlink:href="#Arial-BoldMT-2d" transform="translate(838.964844 0)"/>
     <use xlink:href="#Arial-BoldMT-50" transform="translate(872.265625 0)"/>
     <use xlink:href="#Arial-BoldMT-68" transform="translate(938.964844 0)"/>
     <use xlink:href="#Arial-BoldMT-79" transform="translate(1000.048828 0)"/>
     <use xlink:href="#Arial-BoldMT-73" transform="translate(1055.664062 0)"/>
     <use xlink:href="#Arial-BoldMT-69" transform="translate(1111.279297 0)"/>
     <use xlink:href="#Arial-BoldMT-63" transform="translate(1139.0625 0)"/>
     <use xlink:href="#Arial-BoldMT-61" transform="translate(1194.677734 0)"/>
     <use xlink:href="#Arial-BoldMT-6c" transform="translate(1250.292969 0)"/>
     <use xlink:href="#Arial-BoldMT-20" transform="translate(1278.076172 0)"/>
     <use xlink:href="#Arial-BoldMT-49" transform="translate(1305.859375 0)"/>
     <use xlink:href="#Arial-BoldMT-6d" transform="translate(1333.642578 0)"/>
     <use xlink:href="#Arial-BoldMT-70" transform="translate(1422.558594 0)"/>
     <use xlink:href="#Arial-BoldMT-75" transform="translate(1483.642578 0)"/>
     <use xlink:href="#Arial-BoldMT-74" transform="translate(1544.726562 0)"/>
     <use xlink:href="#Arial-BoldMT-61" transform="translate(1578.027344 0)"/>
     <use xlink:href="#Arial-BoldMT-74" transform="translate(1633.642578 0)"/>
     <use xlink:href="#Arial-BoldMT-69" transform="translate(1666.943359 0)"/>
     <use xlink:href="#Arial-BoldMT-6f" transform="translate(1694.726562 0)"/>
     <use xlink:href="#Arial-BoldMT-6e" transform="translate(1755.810547 0)"/>
     <use xlink:href="#Arial-BoldMT-20" transform="translate(1816.894531 0)"/>
     <use xlink:href="#Arial-BoldMT-46" transform="translate(1844.677734 0)"/>
     <use xlink:href="#Arial-BoldMT-72" transform="translate(1905.761719 0)"/>
     <use xlink:href="#Arial-BoldMT-61" transform="translate(1944.677734 0)"/>
     <use xlink:href="#Arial-BoldMT-6d" transform="translate(2000.292969 0)"/>
     <use xlink:href="#Arial-BoldMT-65" transform="translate(2089.208984 0)"/>
     <use xlink:href="#Arial-BoldMT-77" transform="translate(2144.824219 0)"/>
     <use xlink:href="#Arial-BoldMT-6f" transform="translate(2222.607422 0)"/>
     <use xlink:href="#Arial-BoldMT-72" transform="translate(2283.691406 0)"/>
     <use xlink:href="#Arial-BoldMT-6b" transform="translate(2322.607422 0)"/>
     <use xlink:href="#Arial-BoldMT-20" transform="translate(2378.222656 0)"/>
     <use xlink:href="#Arial-BoldMT-28" transform="translate(2406.005859 0)"/>
     <use xlink:href="#Arial-BoldMT-44" transform="translate(2439.306641 0)"/>
     <use xlink:href="#Arial-BoldMT-4c" transform="translate(2511.523438 0)"/>
     <use xlink:href="#Arial-BoldMT-50" transform="translate(2572.607422 0)"/>
     <use xlink:href="#Arial-BoldMT-49" transform="translate(2639.306641 0)"/>
     <use xlink:href="#Arial-BoldMT-46" transform="translate(2667.089844 0)"/>
     <use xlink:href="#Arial-BoldMT-29" transform="translate(2728.173828 0)"/>
    </g>
   </g>
   <g id="text_2">
    <!-- Physically informed decoupling of precipitation occurrence and amount reconstruction -->
    <g style="fill: #444444" transform="translate(183.291562 56.385) scale(0.12 -0.12)">
     <defs>
      <path id="Arial-ItalicMT-50" d="M 275 0 
L 1234 4581 
L 3147 4581 
Q 3644 4581 3892 4467 
Q 4141 4353 4303 4076 
Q 4466 3800 4466 3456 
Q 4466 3172 4350 2878 
Q 4234 2584 4057 2393 
Q 3881 2203 3700 2106 
Q 3519 2009 3313 1963 
Q 2872 1859 2422 1859 
L 1275 1859 
L 888 0 
L 275 0 
z
M 1384 2378 
L 2394 2378 
Q 2981 2378 3256 2504 
Q 3531 2631 3697 2890 
Q 3863 3150 3863 3441 
Q 3863 3666 3775 3808 
Q 3688 3950 3528 4017 
Q 3369 4084 2916 4084 
L 1741 4084 
L 1384 2378 
z
" transform="scale(0.015625)"/>
      <path id="Arial-ItalicMT-68" d="M 213 0 
L 1169 4581 
L 1734 4581 
L 1369 2822 
Q 1684 3128 1956 3261 
Q 2228 3394 2516 3394 
Q 2928 3394 3156 3176 
Q 3384 2959 3384 2603 
Q 3384 2428 3284 1959 
L 2875 0 
L 2309 0 
L 2731 2009 
Q 2822 2447 2822 2559 
Q 2822 2722 2709 2825 
Q 2597 2928 2384 2928 
Q 2078 2928 1800 2767 
Q 1522 2606 1364 2326 
Q 1206 2047 1075 1425 
L 778 0 
L 213 0 
z
" transform="scale(0.015625)"/>
      <path id="Arial-ItalicMT-79" d="M 0 -1281 
L 34 -750 
Q 209 -800 375 -800 
Q 547 -800 653 -722 
Q 791 -619 953 -334 
L 1134 -9 
L 581 3319 
L 1138 3319 
L 1388 1641 
Q 1463 1144 1516 647 
L 3000 3319 
L 3591 3319 
L 1475 -441 
Q 1169 -991 931 -1169 
Q 694 -1347 384 -1347 
Q 188 -1347 0 -1281 
z
" transform="scale(0.015625)"/>
      <path id="Arial-ItalicMT-73" d="M 266 1134 
L 831 1169 
Q 831 925 906 753 
Q 981 581 1182 472 
Q 1384 363 1653 363 
Q 2028 363 2215 513 
Q 2403 663 2403 866 
Q 2403 1013 2291 1144 
Q 2175 1275 1726 1467 
Q 1278 1659 1153 1738 
Q 944 1866 837 2039 
Q 731 2213 731 2438 
Q 731 2831 1043 3112 
Q 1356 3394 1919 3394 
Q 2544 3394 2870 3105 
Q 3197 2816 3209 2344 
L 2656 2306 
Q 2644 2606 2444 2781 
Q 2244 2956 1878 2956 
Q 1584 2956 1421 2822 
Q 1259 2688 1259 2531 
Q 1259 2375 1400 2256 
Q 1494 2175 1884 2006 
Q 2534 1725 2703 1563 
Q 2972 1303 2972 931 
Q 2972 684 2820 446 
Q 2669 209 2358 67 
Q 2047 -75 1625 -75 
Q 1050 -75 647 209 
Q 244 494 266 1134 
z
" transform="scale(0.015625)"/>
      <path id="Arial-ItalicMT-69" d="M 1016 3941 
L 1150 4581 
L 1713 4581 
L 1578 3941 
L 1016 3941 
z
M 191 0 
L 884 3319 
L 1450 3319 
L 756 0 
L 191 0 
z
" transform="scale(0.015625)"/>
      <path id="Arial-ItalicMT-63" d="M 2503 1209 
L 3069 1150 
Q 2856 528 2464 226 
Q 2072 -75 1572 -75 
Q 1031 -75 695 275 
Q 359 625 359 1253 
Q 359 1797 575 2322 
Q 791 2847 1192 3120 
Q 1594 3394 2109 3394 
Q 2644 3394 2956 3092 
Q 3269 2791 3269 2294 
L 2713 2256 
Q 2709 2572 2529 2750 
Q 2350 2928 2056 2928 
Q 1716 2928 1466 2712 
Q 1216 2497 1073 2058 
Q 931 1619 931 1213 
Q 931 788 1118 575 
Q 1306 363 1581 363 
Q 1856 363 2107 572 
Q 2359 781 2503 1209 
z
" transform="scale(0.015625)"/>
      <path id="Arial-ItalicMT-61" d="M 2450 413 
Q 2156 159 1884 42 
Q 1613 -75 1303 -75 
Q 844 -75 562 195 
Q 281 466 281 888 
Q 281 1166 407 1380 
Q 534 1594 743 1723 
Q 953 1853 1256 1909 
Q 1447 1947 1980 1969 
Q 2513 1991 2744 2081 
Q 2809 2313 2809 2466 
Q 2809 2663 2666 2775 
Q 2469 2931 2091 2931 
Q 1734 2931 1507 2773 
Q 1281 2616 1178 2325 
L 606 2375 
Q 781 2869 1161 3131 
Q 1541 3394 2119 3394 
Q 2734 3394 3094 3100 
Q 3369 2881 3369 2531 
Q 3369 2266 3291 1916 
L 3106 1091 
Q 3019 697 3019 450 
Q 3019 294 3088 0 
L 2516 0 
Q 2469 163 2450 413 
z
M 2659 1681 
Q 2541 1634 2405 1609 
Q 2269 1584 1950 1556 
Q 1456 1513 1253 1445 
Q 1050 1378 947 1231 
Q 844 1084 844 906 
Q 844 669 1008 516 
Q 1172 363 1475 363 
Q 1756 363 2015 511 
Q 2275 659 2425 925 
Q 2575 1191 2659 1681 
z
" transform="scale(0.015625)"/>
      <path id="Arial-ItalicMT-6c" d="M 169 0 
L 1125 4581 
L 1691 4581 
L 734 0 
L 169 0 
z
" transform="scale(0.015625)"/>
      <path id="Arial-ItalicMT-20" transform="scale(0.015625)"/>
      <path id="Arial-ItalicMT-6e" d="M 213 0 
L 906 3319 
L 1419 3319 
L 1297 2741 
Q 1631 3081 1922 3237 
Q 2213 3394 2516 3394 
Q 2919 3394 3148 3175 
Q 3378 2956 3378 2591 
Q 3378 2406 3297 2009 
L 2875 0 
L 2309 0 
L 2750 2103 
Q 2816 2409 2816 2556 
Q 2816 2722 2702 2825 
Q 2588 2928 2372 2928 
Q 1938 2928 1598 2615 
Q 1259 2303 1100 1544 
L 778 0 
L 213 0 
z
" transform="scale(0.015625)"/>
      <path id="Arial-ItalicMT-66" d="M 291 0 
L 894 2881 
L 388 2881 
L 478 3319 
L 984 3319 
L 1081 3791 
Q 1156 4144 1236 4300 
Q 1316 4456 1495 4557 
Q 1675 4659 1984 4659 
Q 2200 4659 2609 4569 
L 2506 4075 
Q 2219 4150 2025 4150 
Q 1859 4150 1773 4067 
Q 1688 3984 1625 3675 
L 1550 3319 
L 2181 3319 
L 2091 2881 
L 1459 2881 
L 856 0 
L 291 0 
z
" transform="scale(0.015625)"/>
      <path id="Arial-ItalicMT-6f" d="M 313 1259 
Q 313 2231 884 2869 
Q 1356 3394 2122 3394 
Q 2722 3394 3089 3019 
Q 3456 2644 3456 2006 
Q 3456 1434 3225 942 
Q 2994 450 2567 187 
Q 2141 -75 1669 -75 
Q 1281 -75 964 90 
Q 647 256 480 559 
Q 313 863 313 1259 
z
M 878 1316 
Q 878 847 1103 605 
Q 1328 363 1675 363 
Q 1856 363 2034 436 
Q 2213 509 2366 659 
Q 2519 809 2626 1001 
Q 2734 1194 2800 1416 
Q 2897 1725 2897 2009 
Q 2897 2459 2670 2707 
Q 2444 2956 2100 2956 
Q 1834 2956 1615 2829 
Q 1397 2703 1220 2459 
Q 1044 2216 961 1892 
Q 878 1569 878 1316 
z
" transform="scale(0.015625)"/>
      <path id="Arial-ItalicMT-72" d="M 213 0 
L 906 3319 
L 1406 3319 
L 1266 2641 
Q 1522 3025 1767 3209 
Q 2013 3394 2269 3394 
Q 2438 3394 2684 3272 
L 2453 2747 
Q 2306 2853 2131 2853 
Q 1834 2853 1521 2522 
Q 1209 2191 1031 1331 
L 750 0 
L 213 0 
z
" transform="scale(0.015625)"/>
      <path id="Arial-ItalicMT-6d" d="M 209 0 
L 903 3319 
L 1469 3319 
L 1353 2772 
Q 1669 3125 1917 3259 
Q 2166 3394 2456 3394 
Q 2766 3394 2973 3230 
Q 3181 3066 3247 2772 
Q 3500 3084 3779 3239 
Q 4059 3394 4369 3394 
Q 4784 3394 4992 3197 
Q 5200 3000 5200 2644 
Q 5200 2491 5128 2138 
L 4681 0 
L 4116 0 
L 4572 2194 
Q 4631 2463 4631 2578 
Q 4631 2741 4528 2834 
Q 4425 2928 4238 2928 
Q 3984 2928 3721 2775 
Q 3459 2622 3314 2373 
Q 3169 2125 3059 1609 
L 2722 0 
L 2156 0 
L 2625 2241 
Q 2675 2469 2675 2566 
Q 2675 2728 2573 2828 
Q 2472 2928 2309 2928 
Q 2069 2928 1805 2775 
Q 1541 2622 1375 2348 
Q 1209 2075 1103 1569 
L 775 0 
L 209 0 
z
" transform="scale(0.015625)"/>
      <path id="Arial-ItalicMT-65" d="M 2650 1128 
L 3200 1072 
Q 3081 663 2654 294 
Q 2228 -75 1638 -75 
Q 1269 -75 961 95 
Q 653 266 492 591 
Q 331 916 331 1331 
Q 331 1875 582 2386 
Q 834 2897 1234 3145 
Q 1634 3394 2100 3394 
Q 2694 3394 3048 3025 
Q 3403 2656 3403 2019 
Q 3403 1775 3359 1519 
L 916 1519 
Q 903 1422 903 1344 
Q 903 878 1117 633 
Q 1331 388 1641 388 
Q 1931 388 2212 578 
Q 2494 769 2650 1128 
z
M 1006 1950 
L 2869 1950 
Q 2872 2038 2872 2075 
Q 2872 2500 2659 2726 
Q 2447 2953 2113 2953 
Q 1750 2953 1451 2703 
Q 1153 2453 1006 1950 
z
" transform="scale(0.015625)"/>
      <path id="Arial-ItalicMT-64" d="M 2450 481 
Q 1966 -75 1438 -75 
Q 966 -75 652 273 
Q 338 622 338 1284 
Q 338 1891 586 2392 
Q 834 2894 1207 3144 
Q 1581 3394 1956 3394 
Q 2575 3394 2891 2797 
L 3266 4581 
L 3828 4581 
L 2872 0 
L 2350 0 
L 2450 481 
z
M 900 1391 
Q 900 1044 969 844 
Q 1038 644 1203 511 
Q 1369 378 1600 378 
Q 1984 378 2297 778 
Q 2716 1309 2716 2091 
Q 2716 2484 2509 2706 
Q 2303 2928 1991 2928 
Q 1788 2928 1620 2837 
Q 1453 2747 1289 2530 
Q 1125 2313 1012 1978 
Q 900 1644 900 1391 
z
" transform="scale(0.015625)"/>
      <path id="Arial-ItalicMT-75" d="M 2478 600 
Q 1881 -75 1256 -75 
Q 872 -75 636 145 
Q 400 366 400 684 
Q 400 894 506 1403 
L 906 3319 
L 1472 3319 
L 1028 1197 
Q 972 931 972 784 
Q 972 597 1086 492 
Q 1200 388 1422 388 
Q 1659 388 1886 503 
Q 2113 619 2277 816 
Q 2441 1013 2544 1281 
Q 2613 1453 2703 1884 
L 3003 3319 
L 3569 3319 
L 2875 0 
L 2353 0 
L 2478 600 
z
" transform="scale(0.015625)"/>
      <path id="Arial-ItalicMT-70" d="M -66 -1272 
L 894 3319 
L 1416 3319 
L 1319 2856 
Q 1609 3159 1839 3276 
Q 2069 3394 2325 3394 
Q 2800 3394 3112 3048 
Q 3425 2703 3425 2059 
Q 3425 1541 3253 1114 
Q 3081 688 2831 428 
Q 2581 169 2325 47 
Q 2069 -75 1800 -75 
Q 1203 -75 875 531 
L 500 -1272 
L -66 -1272 
z
M 1053 1356 
Q 1053 984 1106 841 
Q 1184 638 1362 513 
Q 1541 388 1775 388 
Q 2263 388 2563 936 
Q 2863 1484 2863 2056 
Q 2863 2478 2661 2708 
Q 2459 2938 2159 2938 
Q 1944 2938 1759 2823 
Q 1575 2709 1417 2482 
Q 1259 2256 1156 1928 
Q 1053 1600 1053 1356 
z
" transform="scale(0.015625)"/>
      <path id="Arial-ItalicMT-67" d="M 181 -300 
L 753 -353 
Q 747 -547 800 -644 
Q 853 -741 969 -794 
Q 1122 -863 1366 -863 
Q 1878 -863 2103 -597 
Q 2250 -419 2375 178 
L 2431 447 
Q 1991 0 1494 0 
Q 991 0 652 370 
Q 313 741 313 1419 
Q 313 1978 580 2447 
Q 847 2916 1215 3155 
Q 1584 3394 1975 3394 
Q 2628 3394 2981 2775 
L 3094 3319 
L 3613 3319 
L 2944 116 
Q 2834 -413 2656 -708 
Q 2478 -1003 2161 -1165 
Q 1844 -1328 1428 -1328 
Q 1028 -1328 739 -1225 
Q 450 -1122 308 -923 
Q 166 -725 166 -469 
Q 166 -391 181 -300 
z
M 888 1469 
Q 888 1128 953 956 
Q 1047 716 1220 589 
Q 1394 463 1606 463 
Q 1884 463 2159 658 
Q 2434 853 2604 1262 
Q 2775 1672 2775 2044 
Q 2775 2453 2548 2695 
Q 2322 2938 1988 2938 
Q 1781 2938 1587 2827 
Q 1394 2716 1226 2489 
Q 1059 2263 973 1947 
Q 888 1631 888 1469 
z
" transform="scale(0.015625)"/>
      <path id="Arial-ItalicMT-74" d="M 1534 459 
L 1441 -3 
Q 1238 -56 1047 -56 
Q 709 -56 509 109 
Q 359 234 359 450 
Q 359 559 441 953 
L 844 2881 
L 397 2881 
L 488 3319 
L 934 3319 
L 1106 4134 
L 1753 4525 
L 1500 3319 
L 2056 3319 
L 1963 2881 
L 1409 2881 
L 1025 1047 
Q 953 697 953 628 
Q 953 528 1011 475 
Q 1069 422 1200 422 
Q 1388 422 1534 459 
z
" transform="scale(0.015625)"/>
     </defs>
     <use xlink:href="#Arial-ItalicMT-50"/>
     <use xlink:href="#Arial-ItalicMT-68" transform="translate(66.699219 0)"/>
     <use xlink:href="#Arial-ItalicMT-79" transform="translate(122.314453 0)"/>
     <use xlink:href="#Arial-ItalicMT-73" transform="translate(172.314453 0)"/>
     <use xlink:href="#Arial-ItalicMT-69" transform="translate(222.314453 0)"/>
     <use xlink:href="#Arial-ItalicMT-63" transform="translate(244.53125 0)"/>
     <use xlink:href="#Arial-ItalicMT-61" transform="translate(294.53125 0)"/>
     <use xlink:href="#Arial-ItalicMT-6c" transform="translate(350.146484 0)"/>
     <use xlink:href="#Arial-ItalicMT-6c" transform="translate(372.363281 0)"/>
     <use xlink:href="#Arial-ItalicMT-79" transform="translate(394.580078 0)"/>
     <use xlink:href="#Arial-ItalicMT-20" transform="translate(444.580078 0)"/>
     <use xlink:href="#Arial-ItalicMT-69" transform="translate(472.363281 0)"/>
     <use xlink:href="#Arial-ItalicMT-6e" transform="translate(494.580078 0)"/>
     <use xlink:href="#Arial-ItalicMT-66" transform="translate(550.195312 0)"/>
     <use xlink:href="#Arial-ItalicMT-6f" transform="translate(577.978516 0)"/>
     <use xlink:href="#Arial-ItalicMT-72" transform="translate(633.59375 0)"/>
     <use xlink:href="#Arial-ItalicMT-6d" transform="translate(666.894531 0)"/>
     <use xlink:href="#Arial-ItalicMT-65" transform="translate(750.195312 0)"/>
     <use xlink:href="#Arial-ItalicMT-64" transform="translate(805.810547 0)"/>
     <use xlink:href="#Arial-ItalicMT-20" transform="translate(861.425781 0)"/>
     <use xlink:href="#Arial-ItalicMT-64" transform="translate(889.208984 0)"/>
     <use xlink:href="#Arial-ItalicMT-65" transform="translate(944.824219 0)"/>
     <use xlink:href="#Arial-ItalicMT-63" transform="translate(1000.439453 0)"/>
     <use xlink:href="#Arial-ItalicMT-6f" transform="translate(1050.439453 0)"/>
     <use xlink:href="#Arial-ItalicMT-75" transform="translate(1106.054688 0)"/>
     <use xlink:href="#Arial-ItalicMT-70" transform="translate(1161.669922 0)"/>
     <use xlink:href="#Arial-ItalicMT-6c" transform="translate(1217.285156 0)"/>
     <use xlink:href="#Arial-ItalicMT-69" transform="translate(1239.501953 0)"/>
     <use xlink:href="#Arial-ItalicMT-6e" transform="translate(1261.71875 0)"/>
     <use xlink:href="#Arial-ItalicMT-67" transform="translate(1317.333984 0)"/>
     <use xlink:href="#Arial-ItalicMT-20" transform="translate(1372.949219 0)"/>
     <use xlink:href="#Arial-ItalicMT-6f" transform="translate(1400.732422 0)"/>
     <use xlink:href="#Arial-ItalicMT-66" transform="translate(1456.347656 0)"/>
     <use xlink:href="#Arial-ItalicMT-20" transform="translate(1484.130859 0)"/>
     <use xlink:href="#Arial-ItalicMT-70" transform="translate(1511.914062 0)"/>
     <use xlink:href="#Arial-ItalicMT-72" transform="translate(1567.529297 0)"/>
     <use xlink:href="#Arial-ItalicMT-65" transform="translate(1600.830078 0)"/>
     <use xlink:href="#Arial-ItalicMT-63" transform="translate(1656.445312 0)"/>
     <use xlink:href="#Arial-ItalicMT-69" transform="translate(1706.445312 0)"/>
     <use xlink:href="#Arial-ItalicMT-70" transform="translate(1728.662109 0)"/>
     <use xlink:href="#Arial-ItalicMT-69" transform="translate(1784.277344 0)"/>
     <use xlink:href="#Arial-ItalicMT-74" transform="translate(1806.494141 0)"/>
     <use xlink:href="#Arial-ItalicMT-61" transform="translate(1834.277344 0)"/>
     <use xlink:href="#Arial-ItalicMT-74" transform="translate(1889.892578 0)"/>
     <use xlink:href="#Arial-ItalicMT-69" transform="translate(1917.675781 0)"/>
     <use xlink:href="#Arial-ItalicMT-6f" transform="translate(1939.892578 0)"/>
     <use xlink:href="#Arial-ItalicMT-6e" transform="translate(1995.507812 0)"/>
     <use xlink:href="#Arial-ItalicMT-20" transform="translate(2051.123047 0)"/>
     <use xlink:href="#Arial-ItalicMT-6f" transform="translate(2078.90625 0)"/>
     <use xlink:href="#Arial-ItalicMT-63" transform="translate(2134.521484 0)"/>
     <use xlink:href="#Arial-ItalicMT-63" transform="translate(2184.521484 0)"/>
     <use xlink:href="#Arial-ItalicMT-75" transform="translate(2234.521484 0)"/>
     <use xlink:href="#Arial-ItalicMT-72" transform="translate(2290.136719 0)"/>
     <use xlink:href="#Arial-ItalicMT-72" transform="translate(2323.4375 0)"/>
     <use xlink:href="#Arial-ItalicMT-65" transform="translate(2356.738281 0)"/>
     <use xlink:href="#Arial-ItalicMT-6e" transform="translate(2412.353516 0)"/>
     <use xlink:href="#Arial-ItalicMT-63" transform="translate(2467.96875 0)"/>
     <use xlink:href="#Arial-ItalicMT-65" transform="translate(2517.96875 0)"/>
     <use xlink:href="#Arial-ItalicMT-20" transform="translate(2573.583984 0)"/>
     <use xlink:href="#Arial-ItalicMT-61" transform="translate(2601.367188 0)"/>
     <use xlink:href="#Arial-ItalicMT-6e" transform="translate(2656.982422 0)"/>
     <use xlink:href="#Arial-ItalicMT-64" transform="translate(2712.597656 0)"/>
     <use xlink:href="#Arial-ItalicMT-20" transform="translate(2768.212891 0)"/>
     <use xlink:href="#Arial-ItalicMT-61" transform="translate(2795.996094 0)"/>
     <use xlink:href="#Arial-ItalicMT-6d" transform="translate(2851.611328 0)"/>
     <use xlink:href="#Arial-ItalicMT-6f" transform="translate(2934.912109 0)"/>
     <use xlink:href="#Arial-ItalicMT-75" transform="translate(2990.527344 0)"/>
     <use xlink:href="#Arial-ItalicMT-6e" transform="translate(3046.142578 0)"/>
     <use xlink:href="#Arial-ItalicMT-74" transform="translate(3101.757812 0)"/>
     <use xlink:href="#Arial-ItalicMT-20" transform="translate(3129.541016 0)"/>
     <use xlink:href="#Arial-ItalicMT-72" transform="translate(3157.324219 0)"/>
     <use xlink:href="#Arial-ItalicMT-65" transform="translate(3190.625 0)"/>
     <use xlink:href="#Arial-ItalicMT-63" transform="translate(3246.240234 0)"/>
     <use xlink:href="#Arial-ItalicMT-6f" transform="translate(3296.240234 0)"/>
     <use xlink:href="#Arial-ItalicMT-6e" transform="translate(3351.855469 0)"/>
     <use xlink:href="#Arial-ItalicMT-73" transform="translate(3407.470703 0)"/>
     <use xlink:href="#Arial-ItalicMT-74" transform="translate(3457.470703 0)"/>
     <use xlink:href="#Arial-ItalicMT-72" transform="translate(3485.253906 0)"/>
     <use xlink:href="#Arial-ItalicMT-75" transform="translate(3518.554688 0)"/>
     <use xlink:href="#Arial-ItalicMT-63" transform="translate(3574.169922 0)"/>
     <use xlink:href="#Arial-ItalicMT-74" transform="translate(3624.169922 0)"/>
     <use xlink:href="#Arial-ItalicMT-69" transform="translate(3651.953125 0)"/>
     <use xlink:href="#Arial-ItalicMT-6f" transform="translate(3674.169922 0)"/>
     <use xlink:href="#Arial-ItalicMT-6e" transform="translate(3729.785156 0)"/>
    </g>
   </g>
   <g id="patch_7">
    <path d="M 31.742609 171.771429 
L 150.949565 171.771429 
Q 161.467826 171.771429 161.467826 161.897143 
L 161.467826 115.817143 
Q 161.467826 105.942857 150.949565 105.942857 
L 31.742609 105.942857 
Q 21.224348 105.942857 21.224348 115.817143 
L 21.224348 161.897143 
Q 21.224348 171.771429 31.742609 171.771429 
z
" clip-path="url(#pbd9795399b)" style="fill: #34495e"/>
   </g>
   <g id="text_3">
    <!-- Multivariate meteorological -->
    <g style="fill: #ffffff" transform="translate(26.611712 130.755268) scale(0.1 -0.1)">
     <defs>
      <path id="Arial-BoldMT-4d" d="M 453 0 
L 453 4581 
L 1838 4581 
L 2669 1456 
L 3491 4581 
L 4878 4581 
L 4878 0 
L 4019 0 
L 4019 3606 
L 3109 0 
L 2219 0 
L 1313 3606 
L 1313 0 
L 453 0 
z
" transform="scale(0.015625)"/>
      <path id="Arial-BoldMT-76" d="M 1372 0 
L 34 3319 
L 956 3319 
L 1581 1625 
L 1763 1059 
Q 1834 1275 1853 1344 
Q 1897 1484 1947 1625 
L 2578 3319 
L 3481 3319 
L 2163 0 
L 1372 0 
z
" transform="scale(0.015625)"/>
      <path id="Arial-BoldMT-67" d="M 378 -219 
L 1381 -341 
Q 1406 -516 1497 -581 
Q 1622 -675 1891 -675 
Q 2234 -675 2406 -572 
Q 2522 -503 2581 -350 
Q 2622 -241 2622 53 
L 2622 538 
Q 2228 0 1628 0 
Q 959 0 569 566 
Q 263 1013 263 1678 
Q 263 2513 664 2953 
Q 1066 3394 1663 3394 
Q 2278 3394 2678 2853 
L 2678 3319 
L 3500 3319 
L 3500 341 
Q 3500 -247 3403 -537 
Q 3306 -828 3131 -993 
Q 2956 -1159 2664 -1253 
Q 2372 -1347 1925 -1347 
Q 1081 -1347 728 -1058 
Q 375 -769 375 -325 
Q 375 -281 378 -219 
z
M 1163 1728 
Q 1163 1200 1367 954 
Q 1572 709 1872 709 
Q 2194 709 2416 961 
Q 2638 1213 2638 1706 
Q 2638 2222 2425 2472 
Q 2213 2722 1888 2722 
Q 1572 2722 1367 2476 
Q 1163 2231 1163 1728 
z
" transform="scale(0.015625)"/>
     </defs>
     <use xlink:href="#Arial-BoldMT-4d"/>
     <use xlink:href="#Arial-BoldMT-75" transform="translate(83.300781 0)"/>
     <use xlink:href="#Arial-BoldMT-6c" transform="translate(144.384766 0)"/>
     <use xlink:href="#Arial-BoldMT-74" transform="translate(172.167969 0)"/>
     <use xlink:href="#Arial-BoldMT-69" transform="translate(205.46875 0)"/>
     <use xlink:href="#Arial-BoldMT-76" transform="translate(233.251953 0)"/>
     <use xlink:href="#Arial-BoldMT-61" transform="translate(288.867188 0)"/>
     <use xlink:href="#Arial-BoldMT-72" transform="translate(344.482422 0)"/>
     <use xlink:href="#Arial-BoldMT-69" transform="translate(383.398438 0)"/>
     <use xlink:href="#Arial-BoldMT-61" transform="translate(411.181641 0)"/>
     <use xlink:href="#Arial-BoldMT-74" transform="translate(466.796875 0)"/>
     <use xlink:href="#Arial-BoldMT-65" transform="translate(500.097656 0)"/>
     <use xlink:href="#Arial-BoldMT-20" transform="translate(555.712891 0)"/>
     <use xlink:href="#Arial-BoldMT-6d" transform="translate(583.496094 0)"/>
     <use xlink:href="#Arial-BoldMT-65" transform="translate(672.412109 0)"/>
     <use xlink:href="#Arial-BoldMT-74" transform="translate(728.027344 0)"/>
     <use xlink:href="#Arial-BoldMT-65" transform="translate(761.328125 0)"/>
     <use xlink:href="#Arial-BoldMT-6f" transform="translate(816.943359 0)"/>
     <use xlink:href="#Arial-BoldMT-72" transform="translate(878.027344 0)"/>
     <use xlink:href="#Arial-BoldMT-6f" transform="translate(916.943359 0)"/>
     <use xlink:href="#Arial-BoldMT-6c" transform="translate(978.027344 0)"/>
     <use xlink:href="#Arial-BoldMT-6f" transform="translate(1005.810547 0)"/>
     <use xlink:href="#Arial-BoldMT-67" transform="translate(1066.894531 0)"/>
     <use xlink:href="#Arial-BoldMT-69" transform="translate(1127.978516 0)"/>
     <use xlink:href="#Arial-BoldMT-63" transform="translate(1155.761719 0)"/>
     <use xlink:href="#Arial-BoldMT-61" transform="translate(1211.376953 0)"/>
     <use xlink:href="#Arial-BoldMT-6c" transform="translate(1266.992188 0)"/>
    </g>
    <!-- observations -->
    <g style="fill: #ffffff" transform="translate(60.228118 141.44933) scale(0.1 -0.1)">
     <defs>
      <path id="Arial-BoldMT-62" d="M 422 0 
L 422 4581 
L 1300 4581 
L 1300 2931 
Q 1706 3394 2263 3394 
Q 2869 3394 3266 2955 
Q 3663 2516 3663 1694 
Q 3663 844 3258 384 
Q 2853 -75 2275 -75 
Q 1991 -75 1714 67 
Q 1438 209 1238 488 
L 1238 0 
L 422 0 
z
M 1294 1731 
Q 1294 1216 1456 969 
Q 1684 619 2063 619 
Q 2353 619 2558 867 
Q 2763 1116 2763 1650 
Q 2763 2219 2556 2470 
Q 2350 2722 2028 2722 
Q 1713 2722 1503 2476 
Q 1294 2231 1294 1731 
z
" transform="scale(0.015625)"/>
     </defs>
     <use xlink:href="#Arial-BoldMT-6f"/>
     <use xlink:href="#Arial-BoldMT-62" transform="translate(61.083984 0)"/>
     <use xlink:href="#Arial-BoldMT-73" transform="translate(122.167969 0)"/>
     <use xlink:href="#Arial-BoldMT-65" transform="translate(177.783203 0)"/>
     <use xlink:href="#Arial-BoldMT-72" transform="translate(233.398438 0)"/>
     <use xlink:href="#Arial-BoldMT-76" transform="translate(272.314453 0)"/>
     <use xlink:href="#Arial-BoldMT-61" transform="translate(327.929688 0)"/>
     <use xlink:href="#Arial-BoldMT-74" transform="translate(383.544922 0)"/>
     <use xlink:href="#Arial-BoldMT-69" transform="translate(416.845703 0)"/>
     <use xlink:href="#Arial-BoldMT-6f" transform="translate(444.628906 0)"/>
     <use xlink:href="#Arial-BoldMT-6e" transform="translate(505.712891 0)"/>
     <use xlink:href="#Arial-BoldMT-73" transform="translate(566.796875 0)"/>
    </g>
    <!-- with missing values -->
    <g style="fill: #ffffff" transform="translate(44.113274 152.012143) scale(0.1 -0.1)">
     <use xlink:href="#Arial-BoldMT-77"/>
     <use xlink:href="#Arial-BoldMT-69" transform="translate(77.783203 0)"/>
     <use xlink:href="#Arial-BoldMT-74" transform="translate(105.566406 0)"/>
     <use xlink:href="#Arial-BoldMT-68" transform="translate(138.867188 0)"/>
     <use xlink:href="#Arial-BoldMT-20" transform="translate(199.951172 0)"/>
     <use xlink:href="#Arial-BoldMT-6d" transform="translate(227.734375 0)"/>
     <use xlink:href="#Arial-BoldMT-69" transform="translate(316.650391 0)"/>
     <use xlink:href="#Arial-BoldMT-73" transform="translate(344.433594 0)"/>
     <use xlink:href="#Arial-BoldMT-73" transform="translate(400.048828 0)"/>
     <use xlink:href="#Arial-BoldMT-69" transform="translate(455.664062 0)"/>
     <use xlink:href="#Arial-BoldMT-6e" transform="translate(483.447266 0)"/>
     <use xlink:href="#Arial-BoldMT-67" transform="translate(544.53125 0)"/>
     <use xlink:href="#Arial-BoldMT-20" transform="translate(605.615234 0)"/>
     <use xlink:href="#Arial-BoldMT-76" transform="translate(633.398438 0)"/>
     <use xlink:href="#Arial-BoldMT-61" transform="translate(689.013672 0)"/>
     <use xlink:href="#Arial-BoldMT-6c" transform="translate(744.628906 0)"/>
     <use xlink:href="#Arial-BoldMT-75" transform="translate(772.412109 0)"/>
     <use xlink:href="#Arial-BoldMT-65" transform="translate(833.496094 0)"/>
     <use xlink:href="#Arial-BoldMT-73" transform="translate(889.111328 0)"/>
    </g>
   </g>
   <g id="patch_8">
    <path d="M 193.022609 171.771429 
L 277.168696 171.771429 
Q 287.686957 171.771429 287.686957 161.897143 
L 287.686957 115.817143 
Q 287.686957 105.942857 277.168696 105.942857 
L 193.022609 105.942857 
Q 182.504348 105.942857 182.504348 115.817143 
L 182.504348 161.897143 
Q 182.504348 171.771429 193.022609 171.771429 
z
" clip-path="url(#pbd9795399b)" style="fill: #2980b9"/>
   </g>
   <g id="text_4">
    <!-- Base continuous -->
    <g style="fill: #ffffff" transform="translate(194.815965 136.167924) scale(0.1 -0.1)">
     <defs>
      <path id="Arial-BoldMT-42" d="M 469 4581 
L 2300 4581 
Q 2844 4581 3111 4536 
Q 3378 4491 3589 4347 
Q 3800 4203 3940 3964 
Q 4081 3725 4081 3428 
Q 4081 3106 3907 2837 
Q 3734 2569 3438 2434 
Q 3856 2313 4081 2019 
Q 4306 1725 4306 1328 
Q 4306 1016 4161 720 
Q 4016 425 3764 248 
Q 3513 72 3144 31 
Q 2913 6 2028 0 
L 469 0 
L 469 4581 
z
M 1394 3819 
L 1394 2759 
L 2000 2759 
Q 2541 2759 2672 2775 
Q 2909 2803 3045 2939 
Q 3181 3075 3181 3297 
Q 3181 3509 3064 3642 
Q 2947 3775 2716 3803 
Q 2578 3819 1925 3819 
L 1394 3819 
z
M 1394 1997 
L 1394 772 
L 2250 772 
Q 2750 772 2884 800 
Q 3091 838 3220 983 
Q 3350 1128 3350 1372 
Q 3350 1578 3250 1722 
Q 3150 1866 2961 1931 
Q 2772 1997 2141 1997 
L 1394 1997 
z
" transform="scale(0.015625)"/>
     </defs>
     <use xlink:href="#Arial-BoldMT-42"/>
     <use xlink:href="#Arial-BoldMT-61" transform="translate(72.216797 0)"/>
     <use xlink:href="#Arial-BoldMT-73" transform="translate(127.832031 0)"/>
     <use xlink:href="#Arial-BoldMT-65" transform="translate(183.447266 0)"/>
     <use xlink:href="#Arial-BoldMT-20" transform="translate(239.0625 0)"/>
     <use xlink:href="#Arial-BoldMT-63" transform="translate(266.845703 0)"/>
     <use xlink:href="#Arial-BoldMT-6f" transform="translate(322.460938 0)"/>
     <use xlink:href="#Arial-BoldMT-6e" transform="translate(383.544922 0)"/>
     <use xlink:href="#Arial-BoldMT-74" transform="translate(444.628906 0)"/>
     <use xlink:href="#Arial-BoldMT-69" transform="translate(477.929688 0)"/>
     <use xlink:href="#Arial-BoldMT-6e" transform="translate(505.712891 0)"/>
     <use xlink:href="#Arial-BoldMT-75" transform="translate(566.796875 0)"/>
     <use xlink:href="#Arial-BoldMT-6f" transform="translate(627.880859 0)"/>
     <use xlink:href="#Arial-BoldMT-75" transform="translate(688.964844 0)"/>
     <use xlink:href="#Arial-BoldMT-73" transform="translate(750.048828 0)"/>
    </g>
    <!-- imputation -->
    <g style="fill: #ffffff" transform="translate(209.545652 146.730737) scale(0.1 -0.1)">
     <use xlink:href="#Arial-BoldMT-69"/>
     <use xlink:href="#Arial-BoldMT-6d" transform="translate(27.783203 0)"/>
     <use xlink:href="#Arial-BoldMT-70" transform="translate(116.699219 0)"/>
     <use xlink:href="#Arial-BoldMT-75" transform="translate(177.783203 0)"/>
     <use xlink:href="#Arial-BoldMT-74" transform="translate(238.867188 0)"/>
     <use xlink:href="#Arial-BoldMT-61" transform="translate(272.167969 0)"/>
     <use xlink:href="#Arial-BoldMT-74" transform="translate(327.783203 0)"/>
     <use xlink:href="#Arial-BoldMT-69" transform="translate(361.083984 0)"/>
     <use xlink:href="#Arial-BoldMT-6f" transform="translate(388.867188 0)"/>
     <use xlink:href="#Arial-BoldMT-6e" transform="translate(449.951172 0)"/>
    </g>
   </g>
   <g id="patch_9">
    <path d="M 319.241739 171.771429 
L 403.387826 171.771429 
Q 413.906087 171.771429 413.906087 161.897143 
L 413.906087 115.817143 
Q 413.906087 105.942857 403.387826 105.942857 
L 319.241739 105.942857 
Q 308.723478 105.942857 308.723478 115.817143 
L 308.723478 161.897143 
Q 308.723478 171.771429 319.241739 171.771429 
z
" clip-path="url(#pbd9795399b)" style="fill: #008080"/>
   </g>
   <g id="text_5">
    <!-- Stage 1 -->
    <g style="fill: #ffffff" transform="translate(341.75197 131.829107) scale(0.11 -0.11)">
     <defs>
      <path id="Arial-BoldMT-53" d="M 231 1491 
L 1131 1578 
Q 1213 1125 1461 912 
Q 1709 700 2131 700 
Q 2578 700 2804 889 
Q 3031 1078 3031 1331 
Q 3031 1494 2936 1608 
Q 2841 1722 2603 1806 
Q 2441 1863 1863 2006 
Q 1119 2191 819 2459 
Q 397 2838 397 3381 
Q 397 3731 595 4036 
Q 794 4341 1167 4500 
Q 1541 4659 2069 4659 
Q 2931 4659 3367 4281 
Q 3803 3903 3825 3272 
L 2900 3231 
Q 2841 3584 2645 3739 
Q 2450 3894 2059 3894 
Q 1656 3894 1428 3728 
Q 1281 3622 1281 3444 
Q 1281 3281 1419 3166 
Q 1594 3019 2269 2859 
Q 2944 2700 3267 2529 
Q 3591 2359 3773 2064 
Q 3956 1769 3956 1334 
Q 3956 941 3737 597 
Q 3519 253 3119 86 
Q 2719 -81 2122 -81 
Q 1253 -81 787 320 
Q 322 722 231 1491 
z
" transform="scale(0.015625)"/>
      <path id="Arial-BoldMT-31" d="M 2519 0 
L 1641 0 
L 1641 3309 
Q 1159 2859 506 2644 
L 506 3441 
Q 850 3553 1253 3867 
Q 1656 4181 1806 4600 
L 2519 4600 
L 2519 0 
z
" transform="scale(0.015625)"/>
     </defs>
     <use xlink:href="#Arial-BoldMT-53"/>
     <use xlink:href="#Arial-BoldMT-74" transform="translate(66.699219 0)"/>
     <use xlink:href="#Arial-BoldMT-61" transform="translate(100 0)"/>
     <use xlink:href="#Arial-BoldMT-67" transform="translate(155.615234 0)"/>
     <use xlink:href="#Arial-BoldMT-65" transform="translate(216.699219 0)"/>
     <use xlink:href="#Arial-BoldMT-20" transform="translate(272.314453 0)"/>
     <use xlink:href="#Arial-BoldMT-31" transform="translate(300.097656 0)"/>
    </g>
   </g>
   <g id="text_6">
    <!-- wet/dry classification -->
    <g style="fill: #ffffff" transform="translate(315.467126 151.318929) scale(0.1 -0.1)">
     <defs>
      <path id="ArialMT-77" d="M 1034 0 
L 19 3319 
L 600 3319 
L 1128 1403 
L 1325 691 
Q 1338 744 1497 1375 
L 2025 3319 
L 2603 3319 
L 3100 1394 
L 3266 759 
L 3456 1400 
L 4025 3319 
L 4572 3319 
L 3534 0 
L 2950 0 
L 2422 1988 
L 2294 2553 
L 1622 0 
L 1034 0 
z
" transform="scale(0.015625)"/>
      <path id="ArialMT-65" d="M 2694 1069 
L 3275 997 
Q 3138 488 2766 206 
Q 2394 -75 1816 -75 
Q 1088 -75 661 373 
Q 234 822 234 1631 
Q 234 2469 665 2931 
Q 1097 3394 1784 3394 
Q 2450 3394 2872 2941 
Q 3294 2488 3294 1666 
Q 3294 1616 3291 1516 
L 816 1516 
Q 847 969 1125 678 
Q 1403 388 1819 388 
Q 2128 388 2347 550 
Q 2566 713 2694 1069 
z
M 847 1978 
L 2700 1978 
Q 2663 2397 2488 2606 
Q 2219 2931 1791 2931 
Q 1403 2931 1139 2672 
Q 875 2413 847 1978 
z
" transform="scale(0.015625)"/>
      <path id="ArialMT-74" d="M 1650 503 
L 1731 6 
Q 1494 -44 1306 -44 
Q 1000 -44 831 53 
Q 663 150 594 308 
Q 525 466 525 972 
L 525 2881 
L 113 2881 
L 113 3319 
L 525 3319 
L 525 4141 
L 1084 4478 
L 1084 3319 
L 1650 3319 
L 1650 2881 
L 1084 2881 
L 1084 941 
Q 1084 700 1114 631 
Q 1144 563 1211 522 
Q 1278 481 1403 481 
Q 1497 481 1650 503 
z
" transform="scale(0.015625)"/>
      <path id="ArialMT-2f" d="M 0 -78 
L 1328 4659 
L 1778 4659 
L 453 -78 
L 0 -78 
z
" transform="scale(0.015625)"/>
      <path id="ArialMT-64" d="M 2575 0 
L 2575 419 
Q 2259 -75 1647 -75 
Q 1250 -75 917 144 
Q 584 363 401 755 
Q 219 1147 219 1656 
Q 219 2153 384 2558 
Q 550 2963 881 3178 
Q 1213 3394 1622 3394 
Q 1922 3394 2156 3267 
Q 2391 3141 2538 2938 
L 2538 4581 
L 3097 4581 
L 3097 0 
L 2575 0 
z
M 797 1656 
Q 797 1019 1065 703 
Q 1334 388 1700 388 
Q 2069 388 2326 689 
Q 2584 991 2584 1609 
Q 2584 2291 2321 2609 
Q 2059 2928 1675 2928 
Q 1300 2928 1048 2622 
Q 797 2316 797 1656 
z
" transform="scale(0.015625)"/>
      <path id="ArialMT-72" d="M 416 0 
L 416 3319 
L 922 3319 
L 922 2816 
Q 1116 3169 1280 3281 
Q 1444 3394 1641 3394 
Q 1925 3394 2219 3213 
L 2025 2691 
Q 1819 2813 1613 2813 
Q 1428 2813 1281 2702 
Q 1134 2591 1072 2394 
Q 978 2094 978 1738 
L 978 0 
L 416 0 
z
" transform="scale(0.015625)"/>
      <path id="ArialMT-79" d="M 397 -1278 
L 334 -750 
Q 519 -800 656 -800 
Q 844 -800 956 -737 
Q 1069 -675 1141 -563 
Q 1194 -478 1313 -144 
Q 1328 -97 1363 -6 
L 103 3319 
L 709 3319 
L 1400 1397 
Q 1534 1031 1641 628 
Q 1738 1016 1872 1384 
L 2581 3319 
L 3144 3319 
L 1881 -56 
Q 1678 -603 1566 -809 
Q 1416 -1088 1222 -1217 
Q 1028 -1347 759 -1347 
Q 597 -1347 397 -1278 
z
" transform="scale(0.015625)"/>
      <path id="ArialMT-20" transform="scale(0.015625)"/>
      <path id="ArialMT-63" d="M 2588 1216 
L 3141 1144 
Q 3050 572 2676 248 
Q 2303 -75 1759 -75 
Q 1078 -75 664 370 
Q 250 816 250 1647 
Q 250 2184 428 2587 
Q 606 2991 970 3192 
Q 1334 3394 1763 3394 
Q 2303 3394 2647 3120 
Q 2991 2847 3088 2344 
L 2541 2259 
Q 2463 2594 2264 2762 
Q 2066 2931 1784 2931 
Q 1359 2931 1093 2626 
Q 828 2322 828 1663 
Q 828 994 1084 691 
Q 1341 388 1753 388 
Q 2084 388 2306 591 
Q 2528 794 2588 1216 
z
" transform="scale(0.015625)"/>
      <path id="ArialMT-6c" d="M 409 0 
L 409 4581 
L 972 4581 
L 972 0 
L 409 0 
z
" transform="scale(0.015625)"/>
      <path id="ArialMT-61" d="M 2588 409 
Q 2275 144 1986 34 
Q 1697 -75 1366 -75 
Q 819 -75 525 192 
Q 231 459 231 875 
Q 231 1119 342 1320 
Q 453 1522 633 1644 
Q 813 1766 1038 1828 
Q 1203 1872 1538 1913 
Q 2219 1994 2541 2106 
Q 2544 2222 2544 2253 
Q 2544 2597 2384 2738 
Q 2169 2928 1744 2928 
Q 1347 2928 1158 2789 
Q 969 2650 878 2297 
L 328 2372 
Q 403 2725 575 2942 
Q 747 3159 1072 3276 
Q 1397 3394 1825 3394 
Q 2250 3394 2515 3294 
Q 2781 3194 2906 3042 
Q 3031 2891 3081 2659 
Q 3109 2516 3109 2141 
L 3109 1391 
Q 3109 606 3145 398 
Q 3181 191 3288 0 
L 2700 0 
Q 2613 175 2588 409 
z
M 2541 1666 
Q 2234 1541 1622 1453 
Q 1275 1403 1131 1340 
Q 988 1278 909 1158 
Q 831 1038 831 891 
Q 831 666 1001 516 
Q 1172 366 1500 366 
Q 1825 366 2078 508 
Q 2331 650 2450 897 
Q 2541 1088 2541 1459 
L 2541 1666 
z
" transform="scale(0.015625)"/>
      <path id="ArialMT-73" d="M 197 991 
L 753 1078 
Q 800 744 1014 566 
Q 1228 388 1613 388 
Q 2000 388 2187 545 
Q 2375 703 2375 916 
Q 2375 1106 2209 1216 
Q 2094 1291 1634 1406 
Q 1016 1563 777 1677 
Q 538 1791 414 1992 
Q 291 2194 291 2438 
Q 291 2659 392 2848 
Q 494 3038 669 3163 
Q 800 3259 1026 3326 
Q 1253 3394 1513 3394 
Q 1903 3394 2198 3281 
Q 2494 3169 2634 2976 
Q 2775 2784 2828 2463 
L 2278 2388 
Q 2241 2644 2061 2787 
Q 1881 2931 1553 2931 
Q 1166 2931 1000 2803 
Q 834 2675 834 2503 
Q 834 2394 903 2306 
Q 972 2216 1119 2156 
Q 1203 2125 1616 2013 
Q 2213 1853 2448 1751 
Q 2684 1650 2818 1456 
Q 2953 1263 2953 975 
Q 2953 694 2789 445 
Q 2625 197 2315 61 
Q 2006 -75 1616 -75 
Q 969 -75 630 194 
Q 291 463 197 991 
z
" transform="scale(0.015625)"/>
      <path id="ArialMT-69" d="M 425 3934 
L 425 4581 
L 988 4581 
L 988 3934 
L 425 3934 
z
M 425 0 
L 425 3319 
L 988 3319 
L 988 0 
L 425 0 
z
" transform="scale(0.015625)"/>
      <path id="ArialMT-66" d="M 556 0 
L 556 2881 
L 59 2881 
L 59 3319 
L 556 3319 
L 556 3672 
Q 556 4006 616 4169 
Q 697 4388 901 4523 
Q 1106 4659 1475 4659 
Q 1713 4659 2000 4603 
L 1916 4113 
Q 1741 4144 1584 4144 
Q 1328 4144 1222 4034 
Q 1116 3925 1116 3625 
L 1116 3319 
L 1763 3319 
L 1763 2881 
L 1116 2881 
L 1116 0 
L 556 0 
z
" transform="scale(0.015625)"/>
      <path id="ArialMT-6f" d="M 213 1659 
Q 213 2581 725 3025 
Q 1153 3394 1769 3394 
Q 2453 3394 2887 2945 
Q 3322 2497 3322 1706 
Q 3322 1066 3130 698 
Q 2938 331 2570 128 
Q 2203 -75 1769 -75 
Q 1072 -75 642 372 
Q 213 819 213 1659 
z
M 791 1659 
Q 791 1022 1069 705 
Q 1347 388 1769 388 
Q 2188 388 2466 706 
Q 2744 1025 2744 1678 
Q 2744 2294 2464 2611 
Q 2184 2928 1769 2928 
Q 1347 2928 1069 2612 
Q 791 2297 791 1659 
z
" transform="scale(0.015625)"/>
      <path id="ArialMT-6e" d="M 422 0 
L 422 3319 
L 928 3319 
L 928 2847 
Q 1294 3394 1984 3394 
Q 2284 3394 2536 3286 
Q 2788 3178 2913 3003 
Q 3038 2828 3088 2588 
Q 3119 2431 3119 2041 
L 3119 0 
L 2556 0 
L 2556 2019 
Q 2556 2363 2490 2533 
Q 2425 2703 2258 2804 
Q 2091 2906 1866 2906 
Q 1506 2906 1245 2678 
Q 984 2450 984 1813 
L 984 0 
L 422 0 
z
" transform="scale(0.015625)"/>
     </defs>
     <use xlink:href="#ArialMT-77"/>
     <use xlink:href="#ArialMT-65" transform="translate(72.216797 0)"/>
     <use xlink:href="#ArialMT-74" transform="translate(127.832031 0)"/>
     <use xlink:href="#ArialMT-2f" transform="translate(155.615234 0)"/>
     <use xlink:href="#ArialMT-64" transform="translate(183.398438 0)"/>
     <use xlink:href="#ArialMT-72" transform="translate(239.013672 0)"/>
     <use xlink:href="#ArialMT-79" transform="translate(272.314453 0)"/>
     <use xlink:href="#ArialMT-20" transform="translate(322.314453 0)"/>
     <use xlink:href="#ArialMT-63" transform="translate(350.097656 0)"/>
     <use xlink:href="#ArialMT-6c" transform="translate(400.097656 0)"/>
     <use xlink:href="#ArialMT-61" transform="translate(422.314453 0)"/>
     <use xlink:href="#ArialMT-73" transform="translate(477.929688 0)"/>
     <use xlink:href="#ArialMT-73" transform="translate(527.929688 0)"/>
     <use xlink:href="#ArialMT-69" transform="translate(577.929688 0)"/>
     <use xlink:href="#ArialMT-66" transform="translate(600.146484 0)"/>
     <use xlink:href="#ArialMT-69" transform="translate(627.929688 0)"/>
     <use xlink:href="#ArialMT-63" transform="translate(650.146484 0)"/>
     <use xlink:href="#ArialMT-61" transform="translate(700.146484 0)"/>
     <use xlink:href="#ArialMT-74" transform="translate(755.761719 0)"/>
     <use xlink:href="#ArialMT-69" transform="translate(783.544922 0)"/>
     <use xlink:href="#ArialMT-6f" transform="translate(805.761719 0)"/>
     <use xlink:href="#ArialMT-6e" transform="translate(861.376953 0)"/>
    </g>
   </g>
   <g id="patch_10">
    <path d="M 445.46087 171.771429 
L 536.61913 171.771429 
Q 547.137391 171.771429 547.137391 161.897143 
L 547.137391 115.817143 
Q 547.137391 105.942857 536.61913 105.942857 
L 445.46087 105.942857 
Q 434.942609 105.942857 434.942609 115.817143 
L 434.942609 161.897143 
Q 434.942609 171.771429 445.46087 171.771429 
z
" clip-path="url(#pbd9795399b)" style="fill: #27ae60"/>
   </g>
   <g id="text_7">
    <!-- Stage 2 -->
    <g style="fill: #ffffff" transform="translate(471.477187 131.829107) scale(0.11 -0.11)">
     <defs>
      <path id="Arial-BoldMT-32" d="M 3238 816 
L 3238 0 
L 159 0 
Q 209 463 459 877 
Q 709 1291 1447 1975 
Q 2041 2528 2175 2725 
Q 2356 2997 2356 3263 
Q 2356 3556 2198 3714 
Q 2041 3872 1763 3872 
Q 1488 3872 1325 3706 
Q 1163 3541 1138 3156 
L 263 3244 
Q 341 3969 753 4284 
Q 1166 4600 1784 4600 
Q 2463 4600 2850 4234 
Q 3238 3869 3238 3325 
Q 3238 3016 3127 2736 
Q 3016 2456 2775 2150 
Q 2616 1947 2200 1565 
Q 1784 1184 1673 1059 
Q 1563 934 1494 816 
L 3238 816 
z
" transform="scale(0.015625)"/>
     </defs>
     <use xlink:href="#Arial-BoldMT-53"/>
     <use xlink:href="#Arial-BoldMT-74" transform="translate(66.699219 0)"/>
     <use xlink:href="#Arial-BoldMT-61" transform="translate(100 0)"/>
     <use xlink:href="#Arial-BoldMT-67" transform="translate(155.615234 0)"/>
     <use xlink:href="#Arial-BoldMT-65" transform="translate(216.699219 0)"/>
     <use xlink:href="#Arial-BoldMT-20" transform="translate(272.314453 0)"/>
     <use xlink:href="#Arial-BoldMT-32" transform="translate(300.097656 0)"/>
    </g>
   </g>
   <g id="text_8">
    <!-- conditional wet-day -->
    <g style="fill: #ffffff" transform="translate(448.24 145.969554) scale(0.1 -0.1)">
     <defs>
      <path id="ArialMT-2d" d="M 203 1375 
L 203 1941 
L 1931 1941 
L 1931 1375 
L 203 1375 
z
" transform="scale(0.015625)"/>
     </defs>
     <use xlink:href="#ArialMT-63"/>
     <use xlink:href="#ArialMT-6f" transform="translate(50 0)"/>
     <use xlink:href="#ArialMT-6e" transform="translate(105.615234 0)"/>
     <use xlink:href="#ArialMT-64" transform="translate(161.230469 0)"/>
     <use xlink:href="#ArialMT-69" transform="translate(216.845703 0)"/>
     <use xlink:href="#ArialMT-74" transform="translate(239.0625 0)"/>
     <use xlink:href="#ArialMT-69" transform="translate(266.845703 0)"/>
     <use xlink:href="#ArialMT-6f" transform="translate(289.0625 0)"/>
     <use xlink:href="#ArialMT-6e" transform="translate(344.677734 0)"/>
     <use xlink:href="#ArialMT-61" transform="translate(400.292969 0)"/>
     <use xlink:href="#ArialMT-6c" transform="translate(455.908203 0)"/>
     <use xlink:href="#ArialMT-20" transform="translate(478.125 0)"/>
     <use xlink:href="#ArialMT-77" transform="translate(505.908203 0)"/>
     <use xlink:href="#ArialMT-65" transform="translate(578.125 0)"/>
     <use xlink:href="#ArialMT-74" transform="translate(633.740234 0)"/>
     <use xlink:href="#ArialMT-2d" transform="translate(661.523438 0)"/>
     <use xlink:href="#ArialMT-64" transform="translate(694.824219 0)"/>
     <use xlink:href="#ArialMT-61" transform="translate(750.439453 0)"/>
     <use xlink:href="#ArialMT-79" transform="translate(806.054688 0)"/>
    </g>
    <!-- amount estimation -->
    <g style="fill: #ffffff" transform="translate(450.188437 156.663616) scale(0.1 -0.1)">
     <defs>
      <path id="ArialMT-6d" d="M 422 0 
L 422 3319 
L 925 3319 
L 925 2853 
Q 1081 3097 1340 3245 
Q 1600 3394 1931 3394 
Q 2300 3394 2536 3241 
Q 2772 3088 2869 2813 
Q 3263 3394 3894 3394 
Q 4388 3394 4653 3120 
Q 4919 2847 4919 2278 
L 4919 0 
L 4359 0 
L 4359 2091 
Q 4359 2428 4304 2576 
Q 4250 2725 4106 2815 
Q 3963 2906 3769 2906 
Q 3419 2906 3187 2673 
Q 2956 2441 2956 1928 
L 2956 0 
L 2394 0 
L 2394 2156 
Q 2394 2531 2256 2718 
Q 2119 2906 1806 2906 
Q 1569 2906 1367 2781 
Q 1166 2656 1075 2415 
Q 984 2175 984 1722 
L 984 0 
L 422 0 
z
" transform="scale(0.015625)"/>
      <path id="ArialMT-75" d="M 2597 0 
L 2597 488 
Q 2209 -75 1544 -75 
Q 1250 -75 995 37 
Q 741 150 617 320 
Q 494 491 444 738 
Q 409 903 409 1263 
L 409 3319 
L 972 3319 
L 972 1478 
Q 972 1038 1006 884 
Q 1059 663 1231 536 
Q 1403 409 1656 409 
Q 1909 409 2131 539 
Q 2353 669 2445 892 
Q 2538 1116 2538 1541 
L 2538 3319 
L 3100 3319 
L 3100 0 
L 2597 0 
z
" transform="scale(0.015625)"/>
     </defs>
     <use xlink:href="#ArialMT-61"/>
     <use xlink:href="#ArialMT-6d" transform="translate(55.615234 0)"/>
     <use xlink:href="#ArialMT-6f" transform="translate(138.916016 0)"/>
     <use xlink:href="#ArialMT-75" transform="translate(194.53125 0)"/>
     <use xlink:href="#ArialMT-6e" transform="translate(250.146484 0)"/>
     <use xlink:href="#ArialMT-74" transform="translate(305.761719 0)"/>
     <use xlink:href="#ArialMT-20" transform="translate(333.544922 0)"/>
     <use xlink:href="#ArialMT-65" transform="translate(361.328125 0)"/>
     <use xlink:href="#ArialMT-73" transform="translate(416.943359 0)"/>
     <use xlink:href="#ArialMT-74" transform="translate(466.943359 0)"/>
     <use xlink:href="#ArialMT-69" transform="translate(494.726562 0)"/>
     <use xlink:href="#ArialMT-6d" transform="translate(516.943359 0)"/>
     <use xlink:href="#ArialMT-61" transform="translate(600.244141 0)"/>
     <use xlink:href="#ArialMT-74" transform="translate(655.859375 0)"/>
     <use xlink:href="#ArialMT-69" transform="translate(683.642578 0)"/>
     <use xlink:href="#ArialMT-6f" transform="translate(705.859375 0)"/>
     <use xlink:href="#ArialMT-6e" transform="translate(761.474609 0)"/>
    </g>
   </g>
   <g id="patch_11">
    <path d="M 578.692174 171.771429 
L 662.838261 171.771429 
Q 673.356522 171.771429 673.356522 161.897143 
L 673.356522 115.817143 
Q 673.356522 105.942857 662.838261 105.942857 
L 578.692174 105.942857 
Q 568.173913 105.942857 568.173913 115.817143 
L 568.173913 161.897143 
Q 568.173913 171.771429 578.692174 171.771429 
z
" clip-path="url(#pbd9795399b)" style="fill: #2ecc71"/>
   </g>
   <g id="text_9">
    <!-- Physical -->
    <g style="fill: #ffffff" transform="translate(600.476155 130.682143) scale(0.1 -0.1)">
     <use xlink:href="#Arial-BoldMT-50"/>
     <use xlink:href="#Arial-BoldMT-68" transform="translate(66.699219 0)"/>
     <use xlink:href="#Arial-BoldMT-79" transform="translate(127.783203 0)"/>
     <use xlink:href="#Arial-BoldMT-73" transform="translate(183.398438 0)"/>
     <use xlink:href="#Arial-BoldMT-69" transform="translate(239.013672 0)"/>
     <use xlink:href="#Arial-BoldMT-63" transform="translate(266.796875 0)"/>
     <use xlink:href="#Arial-BoldMT-61" transform="translate(322.412109 0)"/>
     <use xlink:href="#Arial-BoldMT-6c" transform="translate(378.027344 0)"/>
    </g>
    <!-- Consistency -->
    <g style="fill: #ffffff" transform="translate(591.036311 141.522455) scale(0.1 -0.1)">
     <defs>
      <path id="Arial-BoldMT-43" d="M 3397 1684 
L 4294 1400 
Q 4088 650 3608 286 
Q 3128 -78 2391 -78 
Q 1478 -78 890 545 
Q 303 1169 303 2250 
Q 303 3394 893 4026 
Q 1484 4659 2447 4659 
Q 3288 4659 3813 4163 
Q 4125 3869 4281 3319 
L 3366 3100 
Q 3284 3456 3026 3662 
Q 2769 3869 2400 3869 
Q 1891 3869 1573 3503 
Q 1256 3138 1256 2319 
Q 1256 1450 1568 1081 
Q 1881 713 2381 713 
Q 2750 713 3015 947 
Q 3281 1181 3397 1684 
z
" transform="scale(0.015625)"/>
     </defs>
     <use xlink:href="#Arial-BoldMT-43"/>
     <use xlink:href="#Arial-BoldMT-6f" transform="translate(72.216797 0)"/>
     <use xlink:href="#Arial-BoldMT-6e" transform="translate(133.300781 0)"/>
     <use xlink:href="#Arial-BoldMT-73" transform="translate(194.384766 0)"/>
     <use xlink:href="#Arial-BoldMT-69" transform="translate(250 0)"/>
     <use xlink:href="#Arial-BoldMT-73" transform="translate(277.783203 0)"/>
     <use xlink:href="#Arial-BoldMT-74" transform="translate(333.398438 0)"/>
     <use xlink:href="#Arial-BoldMT-65" transform="translate(366.699219 0)"/>
     <use xlink:href="#Arial-BoldMT-6e" transform="translate(422.314453 0)"/>
     <use xlink:href="#Arial-BoldMT-63" transform="translate(483.398438 0)"/>
     <use xlink:href="#Arial-BoldMT-79" transform="translate(539.013672 0)"/>
    </g>
    <!-- Enforcement -->
    <g style="fill: #ffffff" transform="translate(590.205061 152.216518) scale(0.1 -0.1)">
     <defs>
      <path id="Arial-BoldMT-45" d="M 466 0 
L 466 4581 
L 3863 4581 
L 3863 3806 
L 1391 3806 
L 1391 2791 
L 3691 2791 
L 3691 2019 
L 1391 2019 
L 1391 772 
L 3950 772 
L 3950 0 
L 466 0 
z
" transform="scale(0.015625)"/>
      <path id="Arial-BoldMT-66" d="M 75 3319 
L 563 3319 
L 563 3569 
Q 563 3988 652 4194 
Q 741 4400 980 4529 
Q 1219 4659 1584 4659 
Q 1959 4659 2319 4547 
L 2200 3934 
Q 1991 3984 1797 3984 
Q 1606 3984 1523 3895 
Q 1441 3806 1441 3553 
L 1441 3319 
L 2097 3319 
L 2097 2628 
L 1441 2628 
L 1441 0 
L 563 0 
L 563 2628 
L 75 2628 
L 75 3319 
z
" transform="scale(0.015625)"/>
     </defs>
     <use xlink:href="#Arial-BoldMT-45"/>
     <use xlink:href="#Arial-BoldMT-6e" transform="translate(66.699219 0)"/>
     <use xlink:href="#Arial-BoldMT-66" transform="translate(127.783203 0)"/>
     <use xlink:href="#Arial-BoldMT-6f" transform="translate(161.083984 0)"/>
     <use xlink:href="#Arial-BoldMT-72" transform="translate(222.167969 0)"/>
     <use xlink:href="#Arial-BoldMT-63" transform="translate(261.083984 0)"/>
     <use xlink:href="#Arial-BoldMT-65" transform="translate(316.699219 0)"/>
     <use xlink:href="#Arial-BoldMT-6d" transform="translate(372.314453 0)"/>
     <use xlink:href="#Arial-BoldMT-65" transform="translate(461.230469 0)"/>
     <use xlink:href="#Arial-BoldMT-6e" transform="translate(516.845703 0)"/>
     <use xlink:href="#Arial-BoldMT-74" transform="translate(577.929688 0)"/>
    </g>
   </g>
   <g id="patch_12">
    <path d="M 704.911304 171.771429 
L 789.057391 171.771429 
Q 799.575652 171.771429 799.575652 161.897143 
L 799.575652 115.817143 
Q 799.575652 105.942857 789.057391 105.942857 
L 704.911304 105.942857 
Q 694.393043 105.942857 694.393043 115.817143 
L 694.393043 161.897143 
Q 694.393043 171.771429 704.911304 171.771429 
z
" clip-path="url(#pbd9795399b)" style="fill: #2c3e50"/>
   </g>
   <g id="text_10">
    <!-- Final precipitation -->
    <g style="fill: #ffffff" transform="translate(703.928879 136.167924) scale(0.1 -0.1)">
     <use xlink:href="#Arial-BoldMT-46"/>
     <use xlink:href="#Arial-BoldMT-69" transform="translate(61.083984 0)"/>
     <use xlink:href="#Arial-BoldMT-6e" transform="translate(88.867188 0)"/>
     <use xlink:href="#Arial-BoldMT-61" transform="translate(149.951172 0)"/>
     <use xlink:href="#Arial-BoldMT-6c" transform="translate(205.566406 0)"/>
     <use xlink:href="#Arial-BoldMT-20" transform="translate(233.349609 0)"/>
     <use xlink:href="#Arial-BoldMT-70" transform="translate(261.132812 0)"/>
     <use xlink:href="#Arial-BoldMT-72" transform="translate(322.216797 0)"/>
     <use xlink:href="#Arial-BoldMT-65" transform="translate(361.132812 0)"/>
     <use xlink:href="#Arial-BoldMT-63" transform="translate(416.748047 0)"/>
     <use xlink:href="#Arial-BoldMT-69" transform="translate(472.363281 0)"/>
     <use xlink:href="#Arial-BoldMT-70" transform="translate(500.146484 0)"/>
     <use xlink:href="#Arial-BoldMT-69" transform="translate(561.230469 0)"/>
     <use xlink:href="#Arial-BoldMT-74" transform="translate(589.013672 0)"/>
     <use xlink:href="#Arial-BoldMT-61" transform="translate(622.314453 0)"/>
     <use xlink:href="#Arial-BoldMT-74" transform="translate(677.929688 0)"/>
     <use xlink:href="#Arial-BoldMT-69" transform="translate(711.230469 0)"/>
     <use xlink:href="#Arial-BoldMT-6f" transform="translate(739.013672 0)"/>
     <use xlink:href="#Arial-BoldMT-6e" transform="translate(800.097656 0)"/>
    </g>
    <!-- reconstruction -->
    <g style="fill: #ffffff" transform="translate(711.982004 146.730737) scale(0.1 -0.1)">
     <use xlink:href="#Arial-BoldMT-72"/>
     <use xlink:href="#Arial-BoldMT-65" transform="translate(38.916016 0)"/>
     <use xlink:href="#Arial-BoldMT-63" transform="translate(94.53125 0)"/>
     <use xlink:href="#Arial-BoldMT-6f" transform="translate(150.146484 0)"/>
     <use xlink:href="#Arial-BoldMT-6e" transform="translate(211.230469 0)"/>
     <use xlink:href="#Arial-BoldMT-73" transform="translate(272.314453 0)"/>
     <use xlink:href="#Arial-BoldMT-74" transform="translate(327.929688 0)"/>
     <use xlink:href="#Arial-BoldMT-72" transform="translate(361.230469 0)"/>
     <use xlink:href="#Arial-BoldMT-75" transform="translate(400.146484 0)"/>
     <use xlink:href="#Arial-BoldMT-63" transform="translate(461.230469 0)"/>
     <use xlink:href="#Arial-BoldMT-74" transform="translate(516.845703 0)"/>
     <use xlink:href="#Arial-BoldMT-69" transform="translate(550.146484 0)"/>
     <use xlink:href="#Arial-BoldMT-6f" transform="translate(577.929688 0)"/>
     <use xlink:href="#Arial-BoldMT-6e" transform="translate(639.013672 0)"/>
    </g>
   </g>
  </g>
 </g>
 <defs>
  <clipPath id="pbd9795399b">
   <rect x="7.2" y="7.2" width="806.4" height="230.4"/>
  </clipPath>
 </defs>
</svg>
