<?xml version="1.0" encoding="utf-8" standalone="no"?>
<!DOCTYPE svg PUBLIC "-//W3C//DTD SVG 1.1//EN"
  "http://www.w3.org/Graphics/SVG/1.1/DTD/svg11.dtd">
<svg xmlns:xlink="http://www.w3.org/1999/xlink" width="855.60598pt" height="351.022594pt" viewBox="0 0 855.60598 351.022594" xmlns="http://www.w3.org/2000/svg" version="1.1">
 <metadata>
  <rdf:RDF xmlns:dc="http://purl.org/dc/elements/1.1/" xmlns:cc="http://creativecommons.org/ns#" xmlns:rdf="http://www.w3.org/1999/02/22-rdf-syntax-ns#">
   <cc:Work>
    <dc:type rdf:resource="http://purl.org/dc/dcmitype/StillImage"/>
    <dc:date>2026-05-21T13:37:05.731863</dc:date>
    <dc:format>image/svg+xml</dc:format>
    <dc:creator>
     <cc:Agent>
      <dc:title>Matplotlib v3.10.9, https://matplotlib.org/</dc:title>
     </cc:Agent>
    </dc:creator>
   </cc:Work>
  </rdf:RDF>
 </metadata>
 <defs>
  <style type="text/css">*{stroke-linejoin: round; stroke-linecap: butt}</style>
 </defs>
 <g id="figure_1">
  <g id="patch_1">
   <path d="M 0 351.022594 
L 855.60598 351.022594 
L 855.60598 0 
L 0 0 
z
" style="fill: #ffffff"/>
  </g>
  <g id="axes_1">
   <g id="patch_2">
    <path d="M 44.195312 324.26275 
L 364.951676 324.26275 
L 364.951676 34.944 
L 44.195312 34.944 
z
" style="fill: #ffffff"/>
   </g>
   <g id="matplotlib.axis_1">
    <g id="xtick_1">
     <g id="text_1">
      <!-- 10% -->
      <g style="fill: #262626" transform="translate(73.282124 341.636344) scale(0.11 -0.11)">
       <defs>
        <path id="ArialMT-31" d="M 2384 0 
L 1822 0 
L 1822 3584 
Q 1619 3391 1289 3197 
Q 959 3003 697 2906 
L 697 3450 
Q 1169 3672 1522 3987 
Q 1875 4303 2022 4600 
L 2384 4600 
L 2384 0 
z
" transform="scale(0.015625)"/>
        <path id="ArialMT-30" d="M 266 2259 
Q 266 3072 433 3567 
Q 600 4063 929 4331 
Q 1259 4600 1759 4600 
Q 2128 4600 2406 4451 
Q 2684 4303 2865 4023 
Q 3047 3744 3150 3342 
Q 3253 2941 3253 2259 
Q 3253 1453 3087 958 
Q 2922 463 2592 192 
Q 2263 -78 1759 -78 
Q 1097 -78 719 397 
Q 266 969 266 2259 
z
M 844 2259 
Q 844 1131 1108 757 
Q 1372 384 1759 384 
Q 2147 384 2411 759 
Q 2675 1134 2675 2259 
Q 2675 3391 2411 3762 
Q 2147 4134 1753 4134 
Q 1366 4134 1134 3806 
Q 844 3388 844 2259 
z
" transform="scale(0.015625)"/>
        <path id="ArialMT-25" d="M 372 3481 
Q 372 3972 619 4315 
Q 866 4659 1334 4659 
Q 1766 4659 2048 4351 
Q 2331 4044 2331 3447 
Q 2331 2866 2045 2552 
Q 1759 2238 1341 2238 
Q 925 2238 648 2547 
Q 372 2856 372 3481 
z
M 1350 4272 
Q 1141 4272 1002 4090 
Q 863 3909 863 3425 
Q 863 2984 1003 2804 
Q 1144 2625 1350 2625 
Q 1563 2625 1702 2806 
Q 1841 2988 1841 3469 
Q 1841 3913 1700 4092 
Q 1559 4272 1350 4272 
z
M 1353 -169 
L 3859 4659 
L 4316 4659 
L 1819 -169 
L 1353 -169 
z
M 3334 1075 
Q 3334 1569 3581 1911 
Q 3828 2253 4300 2253 
Q 4731 2253 5014 1945 
Q 5297 1638 5297 1041 
Q 5297 459 5011 145 
Q 4725 -169 4303 -169 
Q 3888 -169 3611 142 
Q 3334 453 3334 1075 
z
M 4316 1866 
Q 4103 1866 3964 1684 
Q 3825 1503 3825 1019 
Q 3825 581 3965 400 
Q 4106 219 4313 219 
Q 4528 219 4667 400 
Q 4806 581 4806 1063 
Q 4806 1506 4665 1686 
Q 4525 1866 4316 1866 
z
" transform="scale(0.015625)"/>
       </defs>
       <use xlink:href="#ArialMT-31"/>
       <use xlink:href="#ArialMT-30" transform="translate(55.615234 0)"/>
       <use xlink:href="#ArialMT-25" transform="translate(111.230469 0)"/>
      </g>
     </g>
    </g>
    <g id="xtick_2">
     <g id="text_2">
      <!-- 20% -->
      <g style="fill: #262626" transform="translate(153.471214 341.636344) scale(0.11 -0.11)">
       <defs>
        <path id="ArialMT-32" d="M 3222 541 
L 3222 0 
L 194 0 
Q 188 203 259 391 
Q 375 700 629 1000 
Q 884 1300 1366 1694 
Q 2113 2306 2375 2664 
Q 2638 3022 2638 3341 
Q 2638 3675 2398 3904 
Q 2159 4134 1775 4134 
Q 1369 4134 1125 3890 
Q 881 3647 878 3216 
L 300 3275 
Q 359 3922 746 4261 
Q 1134 4600 1788 4600 
Q 2447 4600 2831 4234 
Q 3216 3869 3216 3328 
Q 3216 3053 3103 2787 
Q 2991 2522 2730 2228 
Q 2469 1934 1863 1422 
Q 1356 997 1212 845 
Q 1069 694 975 541 
L 3222 541 
z
" transform="scale(0.015625)"/>
       </defs>
       <use xlink:href="#ArialMT-32"/>
       <use xlink:href="#ArialMT-30" transform="translate(55.615234 0)"/>
       <use xlink:href="#ArialMT-25" transform="translate(111.230469 0)"/>
      </g>
     </g>
    </g>
    <g id="xtick_3">
     <g id="text_3">
      <!-- 7d Block -->
      <g style="fill: #262626" transform="translate(223.573821 341.636344) scale(0.11 -0.11)">
       <defs>
        <path id="ArialMT-37" d="M 303 3981 
L 303 4522 
L 3269 4522 
L 3269 4084 
Q 2831 3619 2401 2847 
Q 1972 2075 1738 1259 
Q 1569 684 1522 0 
L 944 0 
Q 953 541 1156 1306 
Q 1359 2072 1739 2783 
Q 2119 3494 2547 3981 
L 303 3981 
z
" transform="scale(0.015625)"/>
        <path id="ArialMT-64" d="M 2575 0 
L 2575 419 
Q 2259 -75 1647 -75 
Q 1250 -75 917 144 
Q 584 363 401 755 
Q 219 1147 219 1656 
Q 219 2153 384 2558 
Q 550 2963 881 3178 
Q 1213 3394 1622 3394 
Q 1922 3394 2156 3267 
Q 2391 3141 2538 2938 
L 2538 4581 
L 3097 4581 
L 3097 0 
L 2575 0 
z
M 797 1656 
Q 797 1019 1065 703 
Q 1334 388 1700 388 
Q 2069 388 2326 689 
Q 2584 991 2584 1609 
Q 2584 2291 2321 2609 
Q 2059 2928 1675 2928 
Q 1300 2928 1048 2622 
Q 797 2316 797 1656 
z
" transform="scale(0.015625)"/>
        <path id="ArialMT-20" transform="scale(0.015625)"/>
        <path id="ArialMT-42" d="M 469 0 
L 469 4581 
L 2188 4581 
Q 2713 4581 3030 4442 
Q 3347 4303 3526 4014 
Q 3706 3725 3706 3409 
Q 3706 3116 3547 2856 
Q 3388 2597 3066 2438 
Q 3481 2316 3704 2022 
Q 3928 1728 3928 1328 
Q 3928 1006 3792 729 
Q 3656 453 3456 303 
Q 3256 153 2954 76 
Q 2653 0 2216 0 
L 469 0 
z
M 1075 2656 
L 2066 2656 
Q 2469 2656 2644 2709 
Q 2875 2778 2992 2937 
Q 3109 3097 3109 3338 
Q 3109 3566 3000 3739 
Q 2891 3913 2687 3977 
Q 2484 4041 1991 4041 
L 1075 4041 
L 1075 2656 
z
M 1075 541 
L 2216 541 
Q 2509 541 2628 563 
Q 2838 600 2978 687 
Q 3119 775 3209 942 
Q 3300 1109 3300 1328 
Q 3300 1584 3169 1773 
Q 3038 1963 2805 2039 
Q 2572 2116 2134 2116 
L 1075 2116 
L 1075 541 
z
" transform="scale(0.015625)"/>
        <path id="ArialMT-6c" d="M 409 0 
L 409 4581 
L 972 4581 
L 972 0 
L 409 0 
z
" transform="scale(0.015625)"/>
        <path id="ArialMT-6f" d="M 213 1659 
Q 213 2581 725 3025 
Q 1153 3394 1769 3394 
Q 2453 3394 2887 2945 
Q 3322 2497 3322 1706 
Q 3322 1066 3130 698 
Q 2938 331 2570 128 
Q 2203 -75 1769 -75 
Q 1072 -75 642 372 
Q 213 819 213 1659 
z
M 791 1659 
Q 791 1022 1069 705 
Q 1347 388 1769 388 
Q 2188 388 2466 706 
Q 2744 1025 2744 1678 
Q 2744 2294 2464 2611 
Q 2184 2928 1769 2928 
Q 1347 2928 1069 2612 
Q 791 2297 791 1659 
z
" transform="scale(0.015625)"/>
        <path id="ArialMT-63" d="M 2588 1216 
L 3141 1144 
Q 3050 572 2676 248 
Q 2303 -75 1759 -75 
Q 1078 -75 664 370 
Q 250 816 250 1647 
Q 250 2184 428 2587 
Q 606 2991 970 3192 
Q 1334 3394 1763 3394 
Q 2303 3394 2647 3120 
Q 2991 2847 3088 2344 
L 2541 2259 
Q 2463 2594 2264 2762 
Q 2066 2931 1784 2931 
Q 1359 2931 1093 2626 
Q 828 2322 828 1663 
Q 828 994 1084 691 
Q 1341 388 1753 388 
Q 2084 388 2306 591 
Q 2528 794 2588 1216 
z
" transform="scale(0.015625)"/>
        <path id="ArialMT-6b" d="M 425 0 
L 425 4581 
L 988 4581 
L 988 1969 
L 2319 3319 
L 3047 3319 
L 1778 2088 
L 3175 0 
L 2481 0 
L 1384 1697 
L 988 1316 
L 988 0 
L 425 0 
z
" transform="scale(0.015625)"/>
       </defs>
       <use xlink:href="#ArialMT-37"/>
       <use xlink:href="#ArialMT-64" transform="translate(55.615234 0)"/>
       <use xlink:href="#ArialMT-20" transform="translate(111.230469 0)"/>
       <use xlink:href="#ArialMT-42" transform="translate(139.013672 0)"/>
       <use xlink:href="#ArialMT-6c" transform="translate(205.712891 0)"/>
       <use xlink:href="#ArialMT-6f" transform="translate(227.929688 0)"/>
       <use xlink:href="#ArialMT-63" transform="translate(283.544922 0)"/>
       <use xlink:href="#ArialMT-6b" transform="translate(333.544922 0)"/>
      </g>
     </g>
    </g>
    <g id="xtick_4">
     <g id="text_4">
      <!-- 30d Block -->
      <g style="fill: #262626" transform="translate(300.704396 341.636344) scale(0.11 -0.11)">
       <defs>
        <path id="ArialMT-33" d="M 269 1209 
L 831 1284 
Q 928 806 1161 595 
Q 1394 384 1728 384 
Q 2125 384 2398 659 
Q 2672 934 2672 1341 
Q 2672 1728 2419 1979 
Q 2166 2231 1775 2231 
Q 1616 2231 1378 2169 
L 1441 2663 
Q 1497 2656 1531 2656 
Q 1891 2656 2178 2843 
Q 2466 3031 2466 3422 
Q 2466 3731 2256 3934 
Q 2047 4138 1716 4138 
Q 1388 4138 1169 3931 
Q 950 3725 888 3313 
L 325 3413 
Q 428 3978 793 4289 
Q 1159 4600 1703 4600 
Q 2078 4600 2393 4439 
Q 2709 4278 2876 4000 
Q 3044 3722 3044 3409 
Q 3044 3113 2884 2869 
Q 2725 2625 2413 2481 
Q 2819 2388 3044 2092 
Q 3269 1797 3269 1353 
Q 3269 753 2831 336 
Q 2394 -81 1725 -81 
Q 1122 -81 723 278 
Q 325 638 269 1209 
z
" transform="scale(0.015625)"/>
       </defs>
       <use xlink:href="#ArialMT-33"/>
       <use xlink:href="#ArialMT-30" transform="translate(55.615234 0)"/>
       <use xlink:href="#ArialMT-64" transform="translate(111.230469 0)"/>
       <use xlink:href="#ArialMT-20" transform="translate(166.845703 0)"/>
       <use xlink:href="#ArialMT-42" transform="translate(194.628906 0)"/>
       <use xlink:href="#ArialMT-6c" transform="translate(261.328125 0)"/>
       <use xlink:href="#ArialMT-6f" transform="translate(283.544922 0)"/>
       <use xlink:href="#ArialMT-63" transform="translate(339.160156 0)"/>
       <use xlink:href="#ArialMT-6b" transform="translate(389.160156 0)"/>
      </g>
     </g>
    </g>
   </g>
   <g id="matplotlib.axis_2">
    <g id="ytick_1">
     <g id="line2d_1">
      <path d="M 44.195312 324.26275 
L 364.951676 324.26275 
" clip-path="url(#p9b5fe9b50d)" style="fill: none; stroke: #cccccc; stroke-linecap: round"/>
     </g>
     <g id="text_5">
      <!-- 0 -->
      <g style="fill: #262626" transform="translate(28.578281 328.199547) scale(0.11 -0.11)">
       <use xlink:href="#ArialMT-30"/>
      </g>
     </g>
    </g>
    <g id="ytick_2">
     <g id="line2d_2">
      <path d="M 44.195312 268.537726 
L 364.951676 268.537726 
" clip-path="url(#p9b5fe9b50d)" style="fill: none; stroke: #cccccc; stroke-linecap: round"/>
     </g>
     <g id="text_6">
      <!-- 5 -->
      <g style="fill: #262626" transform="translate(28.578281 272.474523) scale(0.11 -0.11)">
       <defs>
        <path id="ArialMT-35" d="M 266 1200 
L 856 1250 
Q 922 819 1161 601 
Q 1400 384 1738 384 
Q 2144 384 2425 690 
Q 2706 997 2706 1503 
Q 2706 1984 2436 2262 
Q 2166 2541 1728 2541 
Q 1456 2541 1237 2417 
Q 1019 2294 894 2097 
L 366 2166 
L 809 4519 
L 3088 4519 
L 3088 3981 
L 1259 3981 
L 1013 2750 
Q 1425 3038 1878 3038 
Q 2478 3038 2890 2622 
Q 3303 2206 3303 1553 
Q 3303 931 2941 478 
Q 2500 -78 1738 -78 
Q 1113 -78 717 272 
Q 322 622 266 1200 
z
" transform="scale(0.015625)"/>
       </defs>
       <use xlink:href="#ArialMT-35"/>
      </g>
     </g>
    </g>
    <g id="ytick_3">
     <g id="line2d_3">
      <path d="M 44.195312 212.812703 
L 364.951676 212.812703 
" clip-path="url(#p9b5fe9b50d)" style="fill: none; stroke: #cccccc; stroke-linecap: round"/>
     </g>
     <g id="text_7">
      <!-- 10 -->
      <g style="fill: #262626" transform="translate(22.46125 216.7495) scale(0.11 -0.11)">
       <use xlink:href="#ArialMT-31"/>
       <use xlink:href="#ArialMT-30" transform="translate(55.615234 0)"/>
      </g>
     </g>
    </g>
    <g id="ytick_4">
     <g id="line2d_4">
      <path d="M 44.195312 157.087679 
L 364.951676 157.087679 
" clip-path="url(#p9b5fe9b50d)" style="fill: none; stroke: #cccccc; stroke-linecap: round"/>
     </g>
     <g id="text_8">
      <!-- 15 -->
      <g style="fill: #262626" transform="translate(22.46125 161.024476) scale(0.11 -0.11)">
       <use xlink:href="#ArialMT-31"/>
       <use xlink:href="#ArialMT-35" transform="translate(55.615234 0)"/>
      </g>
     </g>
    </g>
    <g id="ytick_5">
     <g id="line2d_5">
      <path d="M 44.195312 101.362656 
L 364.951676 101.362656 
" clip-path="url(#p9b5fe9b50d)" style="fill: none; stroke: #cccccc; stroke-linecap: round"/>
     </g>
     <g id="text_9">
      <!-- 20 -->
      <g style="fill: #262626" transform="translate(22.46125 105.299452) scale(0.11 -0.11)">
       <use xlink:href="#ArialMT-32"/>
       <use xlink:href="#ArialMT-30" transform="translate(55.615234 0)"/>
      </g>
     </g>
    </g>
    <g id="ytick_6">
     <g id="line2d_6">
      <path d="M 44.195312 45.637632 
L 364.951676 45.637632 
" clip-path="url(#p9b5fe9b50d)" style="fill: none; stroke: #cccccc; stroke-linecap: round"/>
     </g>
     <g id="text_10">
      <!-- 25 -->
      <g style="fill: #262626" transform="translate(22.46125 49.574429) scale(0.11 -0.11)">
       <use xlink:href="#ArialMT-32"/>
       <use xlink:href="#ArialMT-35" transform="translate(55.615234 0)"/>
      </g>
     </g>
    </g>
    <g id="text_11">
     <!-- MAE (mm/day) -->
     <g style="fill: #262626" transform="translate(15.935625 219.603687) rotate(-90) scale(0.12 -0.12)">
      <defs>
       <path id="ArialMT-4d" d="M 475 0 
L 475 4581 
L 1388 4581 
L 2472 1338 
Q 2622 884 2691 659 
Q 2769 909 2934 1394 
L 4031 4581 
L 4847 4581 
L 4847 0 
L 4263 0 
L 4263 3834 
L 2931 0 
L 2384 0 
L 1059 3900 
L 1059 0 
L 475 0 
z
" transform="scale(0.015625)"/>
       <path id="ArialMT-41" d="M -9 0 
L 1750 4581 
L 2403 4581 
L 4278 0 
L 3588 0 
L 3053 1388 
L 1138 1388 
L 634 0 
L -9 0 
z
M 1313 1881 
L 2866 1881 
L 2388 3150 
Q 2169 3728 2063 4100 
Q 1975 3659 1816 3225 
L 1313 1881 
z
" transform="scale(0.015625)"/>
       <path id="ArialMT-45" d="M 506 0 
L 506 4581 
L 3819 4581 
L 3819 4041 
L 1113 4041 
L 1113 2638 
L 3647 2638 
L 3647 2100 
L 1113 2100 
L 1113 541 
L 3925 541 
L 3925 0 
L 506 0 
z
" transform="scale(0.015625)"/>
       <path id="ArialMT-28" d="M 1497 -1347 
Q 1031 -759 709 28 
Q 388 816 388 1659 
Q 388 2403 628 3084 
Q 909 3875 1497 4659 
L 1900 4659 
Q 1522 4009 1400 3731 
Q 1209 3300 1100 2831 
Q 966 2247 966 1656 
Q 966 153 1900 -1347 
L 1497 -1347 
z
" transform="scale(0.015625)"/>
       <path id="ArialMT-6d" d="M 422 0 
L 422 3319 
L 925 3319 
L 925 2853 
Q 1081 3097 1340 3245 
Q 1600 3394 1931 3394 
Q 2300 3394 2536 3241 
Q 2772 3088 2869 2813 
Q 3263 3394 3894 3394 
Q 4388 3394 4653 3120 
Q 4919 2847 4919 2278 
L 4919 0 
L 4359 0 
L 4359 2091 
Q 4359 2428 4304 2576 
Q 4250 2725 4106 2815 
Q 3963 2906 3769 2906 
Q 3419 2906 3187 2673 
Q 2956 2441 2956 1928 
L 2956 0 
L 2394 0 
L 2394 2156 
Q 2394 2531 2256 2718 
Q 2119 2906 1806 2906 
Q 1569 2906 1367 2781 
Q 1166 2656 1075 2415 
Q 984 2175 984 1722 
L 984 0 
L 422 0 
z
" transform="scale(0.015625)"/>
       <path id="ArialMT-2f" d="M 0 -78 
L 1328 4659 
L 1778 4659 
L 453 -78 
L 0 -78 
z
" transform="scale(0.015625)"/>
       <path id="ArialMT-61" d="M 2588 409 
Q 2275 144 1986 34 
Q 1697 -75 1366 -75 
Q 819 -75 525 192 
Q 231 459 231 875 
Q 231 1119 342 1320 
Q 453 1522 633 1644 
Q 813 1766 1038 1828 
Q 1203 1872 1538 1913 
Q 2219 1994 2541 2106 
Q 2544 2222 2544 2253 
Q 2544 2597 2384 2738 
Q 2169 2928 1744 2928 
Q 1347 2928 1158 2789 
Q 969 2650 878 2297 
L 328 2372 
Q 403 2725 575 2942 
Q 747 3159 1072 3276 
Q 1397 3394 1825 3394 
Q 2250 3394 2515 3294 
Q 2781 3194 2906 3042 
Q 3031 2891 3081 2659 
Q 3109 2516 3109 2141 
L 3109 1391 
Q 3109 606 3145 398 
Q 3181 191 3288 0 
L 2700 0 
Q 2613 175 2588 409 
z
M 2541 1666 
Q 2234 1541 1622 1453 
Q 1275 1403 1131 1340 
Q 988 1278 909 1158 
Q 831 1038 831 891 
Q 831 666 1001 516 
Q 1172 366 1500 366 
Q 1825 366 2078 508 
Q 2331 650 2450 897 
Q 2541 1088 2541 1459 
L 2541 1666 
z
" transform="scale(0.015625)"/>
       <path id="ArialMT-79" d="M 397 -1278 
L 334 -750 
Q 519 -800 656 -800 
Q 844 -800 956 -737 
Q 1069 -675 1141 -563 
Q 1194 -478 1313 -144 
Q 1328 -97 1363 -6 
L 103 3319 
L 709 3319 
L 1400 1397 
Q 1534 1031 1641 628 
Q 1738 1016 1872 1384 
L 2581 3319 
L 3144 3319 
L 1881 -56 
Q 1678 -603 1566 -809 
Q 1416 -1088 1222 -1217 
Q 1028 -1347 759 -1347 
Q 597 -1347 397 -1278 
z
" transform="scale(0.015625)"/>
       <path id="ArialMT-29" d="M 791 -1347 
L 388 -1347 
Q 1322 153 1322 1656 
Q 1322 2244 1188 2822 
Q 1081 3291 891 3722 
Q 769 4003 388 4659 
L 791 4659 
Q 1378 3875 1659 3084 
Q 1900 2403 1900 1659 
Q 1900 816 1576 28 
Q 1253 -759 791 -1347 
z
" transform="scale(0.015625)"/>
      </defs>
      <use xlink:href="#ArialMT-4d"/>
      <use xlink:href="#ArialMT-41" transform="translate(83.300781 0)"/>
      <use xlink:href="#ArialMT-45" transform="translate(150 0)"/>
      <use xlink:href="#ArialMT-20" transform="translate(216.699219 0)"/>
      <use xlink:href="#ArialMT-28" transform="translate(244.482422 0)"/>
      <use xlink:href="#ArialMT-6d" transform="translate(277.783203 0)"/>
      <use xlink:href="#ArialMT-6d" transform="translate(361.083984 0)"/>
      <use xlink:href="#ArialMT-2f" transform="translate(444.384766 0)"/>
      <use xlink:href="#ArialMT-64" transform="translate(472.167969 0)"/>
      <use xlink:href="#ArialMT-61" transform="translate(527.783203 0)"/>
      <use xlink:href="#ArialMT-79" transform="translate(583.398438 0)"/>
      <use xlink:href="#ArialMT-29" transform="translate(633.398438 0)"/>
     </g>
    </g>
   </g>
   <g id="patch_3">
    <path d="M 52.214222 324.26275 
L 65.044476 324.26275 
L 65.044476 142.264823 
L 52.214222 142.264823 
z
" clip-path="url(#p9b5fe9b50d)" style="fill: #176d9c; stroke: #333333; stroke-linejoin: miter"/>
   </g>
   <g id="patch_4">
    <path d="M 132.403312 324.26275 
L 145.233567 324.26275 
L 145.233567 169.681535 
L 132.403312 169.681535 
z
" clip-path="url(#p9b5fe9b50d)" style="fill: #176d9c; stroke: #333333; stroke-linejoin: miter"/>
   </g>
   <g id="patch_5">
    <path d="M 212.592403 324.26275 
L 225.422658 324.26275 
L 225.422658 105.709207 
L 212.592403 105.709207 
z
" clip-path="url(#p9b5fe9b50d)" style="fill: #176d9c; stroke: #333333; stroke-linejoin: miter"/>
   </g>
   <g id="patch_6">
    <path d="M 292.781494 324.26275 
L 305.611749 324.26275 
L 305.611749 85.536749 
L 292.781494 85.536749 
z
" clip-path="url(#p9b5fe9b50d)" style="fill: #176d9c; stroke: #333333; stroke-linejoin: miter"/>
   </g>
   <g id="patch_7">
    <path d="M 65.044476 324.26275 
L 77.874731 324.26275 
L 77.874731 48.721083 
L 65.044476 48.721083 
z
" clip-path="url(#p9b5fe9b50d)" style="fill: #c38820; stroke: #333333; stroke-linejoin: miter"/>
   </g>
   <g id="patch_8">
    <path d="M 145.233567 324.26275 
L 158.063822 324.26275 
L 158.063822 73.165794 
L 145.233567 73.165794 
z
" clip-path="url(#p9b5fe9b50d)" style="fill: #c38820; stroke: #333333; stroke-linejoin: miter"/>
   </g>
   <g id="patch_9">
    <path d="M 225.422658 324.26275 
L 238.252912 324.26275 
L 238.252912 71.791243 
L 225.422658 71.791243 
z
" clip-path="url(#p9b5fe9b50d)" style="fill: #c38820; stroke: #333333; stroke-linejoin: miter"/>
   </g>
   <g id="patch_10">
    <path d="M 305.611749 324.26275 
L 318.442003 324.26275 
L 318.442003 67.444691 
L 305.611749 67.444691 
z
" clip-path="url(#p9b5fe9b50d)" style="fill: #c38820; stroke: #333333; stroke-linejoin: miter"/>
   </g>
   <g id="patch_11">
    <path d="M 77.874731 324.26275 
L 90.704985 324.26275 
L 90.704985 56.894087 
L 77.874731 56.894087 
z
" clip-path="url(#p9b5fe9b50d)" style="fill: #158b6a; stroke: #333333; stroke-linejoin: miter"/>
   </g>
   <g id="patch_12">
    <path d="M 158.063822 324.26275 
L 170.894076 324.26275 
L 170.894076 82.676198 
L 158.063822 82.676198 
z
" clip-path="url(#p9b5fe9b50d)" style="fill: #158b6a; stroke: #333333; stroke-linejoin: miter"/>
   </g>
   <g id="patch_13">
    <path d="M 238.252912 324.26275 
L 251.083167 324.26275 
L 251.083167 89.660401 
L 238.252912 89.660401 
z
" clip-path="url(#p9b5fe9b50d)" style="fill: #158b6a; stroke: #333333; stroke-linejoin: miter"/>
   </g>
   <g id="patch_14">
    <path d="M 318.442003 324.26275 
L 331.272258 324.26275 
L 331.272258 80.930147 
L 318.442003 80.930147 
z
" clip-path="url(#p9b5fe9b50d)" style="fill: #158b6a; stroke: #333333; stroke-linejoin: miter"/>
   </g>
   <g id="patch_15">
    <path d="M 90.704985 324.26275 
L 103.53524 324.26275 
L 103.53524 93.041052 
L 90.704985 93.041052 
z
" clip-path="url(#p9b5fe9b50d)" style="fill: #ba611b; stroke: #333333; stroke-linejoin: miter"/>
   </g>
   <g id="patch_16">
    <path d="M 170.894076 324.26275 
L 183.724331 324.26275 
L 183.724331 118.600263 
L 170.894076 118.600263 
z
" clip-path="url(#p9b5fe9b50d)" style="fill: #ba611b; stroke: #333333; stroke-linejoin: miter"/>
   </g>
   <g id="patch_17">
    <path d="M 251.083167 324.26275 
L 263.913422 324.26275 
L 263.913422 119.603313 
L 251.083167 119.603313 
z
" clip-path="url(#p9b5fe9b50d)" style="fill: #ba611b; stroke: #333333; stroke-linejoin: miter"/>
   </g>
   <g id="patch_18">
    <path d="M 331.272258 324.26275 
L 344.102512 324.26275 
L 344.102512 100.508205 
L 331.272258 100.508205 
z
" clip-path="url(#p9b5fe9b50d)" style="fill: #ba611b; stroke: #333333; stroke-linejoin: miter"/>
   </g>
   <g id="patch_19">
    <path d="M 103.53524 324.26275 
L 116.365494 324.26275 
L 116.365494 175.662687 
L 103.53524 175.662687 
z
" clip-path="url(#p9b5fe9b50d)" style="fill: #c282b5; stroke: #333333; stroke-linejoin: miter"/>
   </g>
   <g id="patch_20">
    <path d="M 183.724331 324.26275 
L 196.554585 324.26275 
L 196.554585 192.565944 
L 183.724331 192.565944 
z
" clip-path="url(#p9b5fe9b50d)" style="fill: #c282b5; stroke: #333333; stroke-linejoin: miter"/>
   </g>
   <g id="patch_21">
    <path d="M 263.913422 324.26275 
L 276.743676 324.26275 
L 276.743676 215.784704 
L 263.913422 215.784704 
z
" clip-path="url(#p9b5fe9b50d)" style="fill: #c282b5; stroke: #333333; stroke-linejoin: miter"/>
   </g>
   <g id="patch_22">
    <path d="M 344.102512 324.26275 
L 356.932767 324.26275 
L 356.932767 178.486088 
L 344.102512 178.486088 
z
" clip-path="url(#p9b5fe9b50d)" style="fill: #c282b5; stroke: #333333; stroke-linejoin: miter"/>
   </g>
   <g id="patch_23">
    <path d="M 84.289858 324.26275 
L 84.289858 324.26275 
L 84.289858 324.26275 
L 84.289858 324.26275 
z
" clip-path="url(#p9b5fe9b50d)" style="fill: #176d9c; stroke: #333333; stroke-linejoin: miter"/>
   </g>
   <g id="patch_24">
    <path d="M 84.289858 324.26275 
L 84.289858 324.26275 
L 84.289858 324.26275 
L 84.289858 324.26275 
z
" clip-path="url(#p9b5fe9b50d)" style="fill: #c38820; stroke: #333333; stroke-linejoin: miter"/>
   </g>
   <g id="patch_25">
    <path d="M 84.289858 324.26275 
L 84.289858 324.26275 
L 84.289858 324.26275 
L 84.289858 324.26275 
z
" clip-path="url(#p9b5fe9b50d)" style="fill: #158b6a; stroke: #333333; stroke-linejoin: miter"/>
   </g>
   <g id="patch_26">
    <path d="M 84.289858 324.26275 
L 84.289858 324.26275 
L 84.289858 324.26275 
L 84.289858 324.26275 
z
" clip-path="url(#p9b5fe9b50d)" style="fill: #ba611b; stroke: #333333; stroke-linejoin: miter"/>
   </g>
   <g id="patch_27">
    <path d="M 84.289858 324.26275 
L 84.289858 324.26275 
L 84.289858 324.26275 
L 84.289858 324.26275 
z
" clip-path="url(#p9b5fe9b50d)" style="fill: #c282b5; stroke: #333333; stroke-linejoin: miter"/>
   </g>
   <g id="line2d_7">
    <path clip-path="url(#p9b5fe9b50d)" style="fill: none; stroke: #424242; stroke-width: 2.25; stroke-linecap: round"/>
   </g>
   <g id="line2d_8">
    <path clip-path="url(#p9b5fe9b50d)" style="fill: none; stroke: #424242; stroke-width: 2.25; stroke-linecap: round"/>
   </g>
   <g id="line2d_9">
    <path clip-path="url(#p9b5fe9b50d)" style="fill: none; stroke: #424242; stroke-width: 2.25; stroke-linecap: round"/>
   </g>
   <g id="line2d_10">
    <path clip-path="url(#p9b5fe9b50d)" style="fill: none; stroke: #424242; stroke-width: 2.25; stroke-linecap: round"/>
   </g>
   <g id="line2d_11">
    <path clip-path="url(#p9b5fe9b50d)" style="fill: none; stroke: #424242; stroke-width: 2.25; stroke-linecap: round"/>
   </g>
   <g id="line2d_12">
    <path clip-path="url(#p9b5fe9b50d)" style="fill: none; stroke: #424242; stroke-width: 2.25; stroke-linecap: round"/>
   </g>
   <g id="line2d_13">
    <path clip-path="url(#p9b5fe9b50d)" style="fill: none; stroke: #424242; stroke-width: 2.25; stroke-linecap: round"/>
   </g>
   <g id="line2d_14">
    <path clip-path="url(#p9b5fe9b50d)" style="fill: none; stroke: #424242; stroke-width: 2.25; stroke-linecap: round"/>
   </g>
   <g id="line2d_15">
    <path clip-path="url(#p9b5fe9b50d)" style="fill: none; stroke: #424242; stroke-width: 2.25; stroke-linecap: round"/>
   </g>
   <g id="line2d_16">
    <path clip-path="url(#p9b5fe9b50d)" style="fill: none; stroke: #424242; stroke-width: 2.25; stroke-linecap: round"/>
   </g>
   <g id="line2d_17">
    <path clip-path="url(#p9b5fe9b50d)" style="fill: none; stroke: #424242; stroke-width: 2.25; stroke-linecap: round"/>
   </g>
   <g id="line2d_18">
    <path clip-path="url(#p9b5fe9b50d)" style="fill: none; stroke: #424242; stroke-width: 2.25; stroke-linecap: round"/>
   </g>
   <g id="line2d_19">
    <path clip-path="url(#p9b5fe9b50d)" style="fill: none; stroke: #424242; stroke-width: 2.25; stroke-linecap: round"/>
   </g>
   <g id="line2d_20">
    <path clip-path="url(#p9b5fe9b50d)" style="fill: none; stroke: #424242; stroke-width: 2.25; stroke-linecap: round"/>
   </g>
   <g id="line2d_21">
    <path clip-path="url(#p9b5fe9b50d)" style="fill: none; stroke: #424242; stroke-width: 2.25; stroke-linecap: round"/>
   </g>
   <g id="line2d_22">
    <path clip-path="url(#p9b5fe9b50d)" style="fill: none; stroke: #424242; stroke-width: 2.25; stroke-linecap: round"/>
   </g>
   <g id="line2d_23">
    <path clip-path="url(#p9b5fe9b50d)" style="fill: none; stroke: #424242; stroke-width: 2.25; stroke-linecap: round"/>
   </g>
   <g id="line2d_24">
    <path clip-path="url(#p9b5fe9b50d)" style="fill: none; stroke: #424242; stroke-width: 2.25; stroke-linecap: round"/>
   </g>
   <g id="line2d_25">
    <path clip-path="url(#p9b5fe9b50d)" style="fill: none; stroke: #424242; stroke-width: 2.25; stroke-linecap: round"/>
   </g>
   <g id="line2d_26">
    <path clip-path="url(#p9b5fe9b50d)" style="fill: none; stroke: #424242; stroke-width: 2.25; stroke-linecap: round"/>
   </g>
   <g id="patch_28">
    <path d="M 44.195312 324.26275 
L 44.195312 34.944 
" style="fill: none; stroke: #cccccc; stroke-width: 1.2; stroke-linejoin: miter; stroke-linecap: square"/>
   </g>
   <g id="patch_29">
    <path d="M 44.195312 324.26275 
L 364.951676 324.26275 
" style="fill: none; stroke: #cccccc; stroke-width: 1.2; stroke-linejoin: miter; stroke-linecap: square"/>
   </g>
   <g id="text_12">
    <!-- (a) Extreme Precipitation MAE -->
    <g style="fill: #262626" transform="translate(118.889744 15.935625) scale(0.12 -0.12)">
     <defs>
      <path id="Arial-BoldMT-28" d="M 1916 -1347 
L 1313 -1347 
Q 834 -625 584 153 
Q 334 931 334 1659 
Q 334 2563 644 3369 
Q 913 4069 1325 4659 
L 1925 4659 
Q 1497 3713 1336 3048 
Q 1175 2384 1175 1641 
Q 1175 1128 1270 590 
Q 1366 53 1531 -431 
Q 1641 -750 1916 -1347 
z
" transform="scale(0.015625)"/>
      <path id="Arial-BoldMT-61" d="M 1116 2306 
L 319 2450 
Q 453 2931 781 3162 
Q 1109 3394 1756 3394 
Q 2344 3394 2631 3255 
Q 2919 3116 3036 2902 
Q 3153 2688 3153 2116 
L 3144 1091 
Q 3144 653 3186 445 
Q 3228 238 3344 0 
L 2475 0 
Q 2441 88 2391 259 
Q 2369 338 2359 363 
Q 2134 144 1878 34 
Q 1622 -75 1331 -75 
Q 819 -75 523 203 
Q 228 481 228 906 
Q 228 1188 362 1408 
Q 497 1628 739 1745 
Q 981 1863 1438 1950 
Q 2053 2066 2291 2166 
L 2291 2253 
Q 2291 2506 2166 2614 
Q 2041 2722 1694 2722 
Q 1459 2722 1328 2630 
Q 1197 2538 1116 2306 
z
M 2291 1594 
Q 2122 1538 1756 1459 
Q 1391 1381 1278 1306 
Q 1106 1184 1106 997 
Q 1106 813 1243 678 
Q 1381 544 1594 544 
Q 1831 544 2047 700 
Q 2206 819 2256 991 
Q 2291 1103 2291 1419 
L 2291 1594 
z
" transform="scale(0.015625)"/>
      <path id="Arial-BoldMT-29" d="M 216 -1347 
Q 475 -791 581 -494 
Q 688 -197 778 190 
Q 869 578 912 926 
Q 956 1275 956 1641 
Q 956 2384 797 3048 
Q 638 3713 209 4659 
L 806 4659 
Q 1278 3988 1539 3234 
Q 1800 2481 1800 1706 
Q 1800 1053 1594 306 
Q 1359 -531 822 -1347 
L 216 -1347 
z
" transform="scale(0.015625)"/>
      <path id="Arial-BoldMT-20" transform="scale(0.015625)"/>
      <path id="Arial-BoldMT-45" d="M 466 0 
L 466 4581 
L 3863 4581 
L 3863 3806 
L 1391 3806 
L 1391 2791 
L 3691 2791 
L 3691 2019 
L 1391 2019 
L 1391 772 
L 3950 772 
L 3950 0 
L 466 0 
z
" transform="scale(0.015625)"/>
      <path id="Arial-BoldMT-78" d="M 38 0 
L 1234 1709 
L 88 3319 
L 1159 3319 
L 1747 2406 
L 2366 3319 
L 3397 3319 
L 2272 1747 
L 3500 0 
L 2422 0 
L 1747 1028 
L 1066 0 
L 38 0 
z
" transform="scale(0.015625)"/>
      <path id="Arial-BoldMT-74" d="M 1981 3319 
L 1981 2619 
L 1381 2619 
L 1381 1281 
Q 1381 875 1398 808 
Q 1416 741 1477 697 
Q 1538 653 1625 653 
Q 1747 653 1978 738 
L 2053 56 
Q 1747 -75 1359 -75 
Q 1122 -75 931 4 
Q 741 84 652 211 
Q 563 338 528 553 
Q 500 706 500 1172 
L 500 2619 
L 97 2619 
L 97 3319 
L 500 3319 
L 500 3978 
L 1381 4491 
L 1381 3319 
L 1981 3319 
z
" transform="scale(0.015625)"/>
      <path id="Arial-BoldMT-72" d="M 1300 0 
L 422 0 
L 422 3319 
L 1238 3319 
L 1238 2847 
Q 1447 3181 1614 3287 
Q 1781 3394 1994 3394 
Q 2294 3394 2572 3228 
L 2300 2463 
Q 2078 2606 1888 2606 
Q 1703 2606 1575 2504 
Q 1447 2403 1373 2137 
Q 1300 1872 1300 1025 
L 1300 0 
z
" transform="scale(0.015625)"/>
      <path id="Arial-BoldMT-65" d="M 2381 1056 
L 3256 909 
Q 3088 428 2723 176 
Q 2359 -75 1813 -75 
Q 947 -75 531 491 
Q 203 944 203 1634 
Q 203 2459 634 2926 
Q 1066 3394 1725 3394 
Q 2466 3394 2894 2905 
Q 3322 2416 3303 1406 
L 1103 1406 
Q 1113 1016 1316 798 
Q 1519 581 1822 581 
Q 2028 581 2168 693 
Q 2309 806 2381 1056 
z
M 2431 1944 
Q 2422 2325 2234 2523 
Q 2047 2722 1778 2722 
Q 1491 2722 1303 2513 
Q 1116 2303 1119 1944 
L 2431 1944 
z
" transform="scale(0.015625)"/>
      <path id="Arial-BoldMT-6d" d="M 394 3319 
L 1203 3319 
L 1203 2866 
Q 1638 3394 2238 3394 
Q 2556 3394 2790 3262 
Q 3025 3131 3175 2866 
Q 3394 3131 3647 3262 
Q 3900 3394 4188 3394 
Q 4553 3394 4806 3245 
Q 5059 3097 5184 2809 
Q 5275 2597 5275 2122 
L 5275 0 
L 4397 0 
L 4397 1897 
Q 4397 2391 4306 2534 
Q 4184 2722 3931 2722 
Q 3747 2722 3584 2609 
Q 3422 2497 3350 2280 
Q 3278 2063 3278 1594 
L 3278 0 
L 2400 0 
L 2400 1819 
Q 2400 2303 2353 2443 
Q 2306 2584 2207 2653 
Q 2109 2722 1941 2722 
Q 1738 2722 1575 2612 
Q 1413 2503 1342 2297 
Q 1272 2091 1272 1613 
L 1272 0 
L 394 0 
L 394 3319 
z
" transform="scale(0.015625)"/>
      <path id="Arial-BoldMT-50" d="M 466 0 
L 466 4581 
L 1950 4581 
Q 2794 4581 3050 4513 
Q 3444 4409 3709 4064 
Q 3975 3719 3975 3172 
Q 3975 2750 3822 2462 
Q 3669 2175 3433 2011 
Q 3197 1847 2953 1794 
Q 2622 1728 1994 1728 
L 1391 1728 
L 1391 0 
L 466 0 
z
M 1391 3806 
L 1391 2506 
L 1897 2506 
Q 2444 2506 2628 2578 
Q 2813 2650 2917 2803 
Q 3022 2956 3022 3159 
Q 3022 3409 2875 3571 
Q 2728 3734 2503 3775 
Q 2338 3806 1838 3806 
L 1391 3806 
z
" transform="scale(0.015625)"/>
      <path id="Arial-BoldMT-63" d="M 3353 2338 
L 2488 2181 
Q 2444 2441 2289 2572 
Q 2134 2703 1888 2703 
Q 1559 2703 1364 2476 
Q 1169 2250 1169 1719 
Q 1169 1128 1367 884 
Q 1566 641 1900 641 
Q 2150 641 2309 783 
Q 2469 925 2534 1272 
L 3397 1125 
Q 3263 531 2881 228 
Q 2500 -75 1859 -75 
Q 1131 -75 698 384 
Q 266 844 266 1656 
Q 266 2478 700 2936 
Q 1134 3394 1875 3394 
Q 2481 3394 2839 3133 
Q 3197 2872 3353 2338 
z
" transform="scale(0.015625)"/>
      <path id="Arial-BoldMT-69" d="M 459 3769 
L 459 4581 
L 1338 4581 
L 1338 3769 
L 459 3769 
z
M 459 0 
L 459 3319 
L 1338 3319 
L 1338 0 
L 459 0 
z
" transform="scale(0.015625)"/>
      <path id="Arial-BoldMT-70" d="M 434 3319 
L 1253 3319 
L 1253 2831 
Q 1413 3081 1684 3237 
Q 1956 3394 2288 3394 
Q 2866 3394 3269 2941 
Q 3672 2488 3672 1678 
Q 3672 847 3265 386 
Q 2859 -75 2281 -75 
Q 2006 -75 1782 34 
Q 1559 144 1313 409 
L 1313 -1263 
L 434 -1263 
L 434 3319 
z
M 1303 1716 
Q 1303 1156 1525 889 
Q 1747 622 2066 622 
Q 2372 622 2575 867 
Q 2778 1113 2778 1672 
Q 2778 2194 2568 2447 
Q 2359 2700 2050 2700 
Q 1728 2700 1515 2451 
Q 1303 2203 1303 1716 
z
" transform="scale(0.015625)"/>
      <path id="Arial-BoldMT-6f" d="M 256 1706 
Q 256 2144 472 2553 
Q 688 2963 1083 3178 
Q 1478 3394 1966 3394 
Q 2719 3394 3200 2905 
Q 3681 2416 3681 1669 
Q 3681 916 3195 420 
Q 2709 -75 1972 -75 
Q 1516 -75 1102 131 
Q 688 338 472 736 
Q 256 1134 256 1706 
z
M 1156 1659 
Q 1156 1166 1390 903 
Q 1625 641 1969 641 
Q 2313 641 2545 903 
Q 2778 1166 2778 1666 
Q 2778 2153 2545 2415 
Q 2313 2678 1969 2678 
Q 1625 2678 1390 2415 
Q 1156 2153 1156 1659 
z
" transform="scale(0.015625)"/>
      <path id="Arial-BoldMT-6e" d="M 3478 0 
L 2600 0 
L 2600 1694 
Q 2600 2231 2544 2389 
Q 2488 2547 2361 2634 
Q 2234 2722 2056 2722 
Q 1828 2722 1647 2597 
Q 1466 2472 1398 2265 
Q 1331 2059 1331 1503 
L 1331 0 
L 453 0 
L 453 3319 
L 1269 3319 
L 1269 2831 
Q 1703 3394 2363 3394 
Q 2653 3394 2893 3289 
Q 3134 3184 3257 3021 
Q 3381 2859 3429 2653 
Q 3478 2447 3478 2063 
L 3478 0 
z
" transform="scale(0.015625)"/>
      <path id="Arial-BoldMT-4d" d="M 453 0 
L 453 4581 
L 1838 4581 
L 2669 1456 
L 3491 4581 
L 4878 4581 
L 4878 0 
L 4019 0 
L 4019 3606 
L 3109 0 
L 2219 0 
L 1313 3606 
L 1313 0 
L 453 0 
z
" transform="scale(0.015625)"/>
      <path id="Arial-BoldMT-41" d="M 4597 0 
L 3591 0 
L 3191 1041 
L 1359 1041 
L 981 0 
L 0 0 
L 1784 4581 
L 2763 4581 
L 4597 0 
z
M 2894 1813 
L 2263 3513 
L 1644 1813 
L 2894 1813 
z
" transform="scale(0.015625)"/>
     </defs>
     <use xlink:href="#Arial-BoldMT-28"/>
     <use xlink:href="#Arial-BoldMT-61" transform="translate(33.300781 0)"/>
     <use xlink:href="#Arial-BoldMT-29" transform="translate(88.916016 0)"/>
     <use xlink:href="#Arial-BoldMT-20" transform="translate(122.216797 0)"/>
     <use xlink:href="#Arial-BoldMT-45" transform="translate(150 0)"/>
     <use xlink:href="#Arial-BoldMT-78" transform="translate(216.699219 0)"/>
     <use xlink:href="#Arial-BoldMT-74" transform="translate(272.314453 0)"/>
     <use xlink:href="#Arial-BoldMT-72" transform="translate(305.615234 0)"/>
     <use xlink:href="#Arial-BoldMT-65" transform="translate(344.53125 0)"/>
     <use xlink:href="#Arial-BoldMT-6d" transform="translate(400.146484 0)"/>
     <use xlink:href="#Arial-BoldMT-65" transform="translate(489.0625 0)"/>
     <use xlink:href="#Arial-BoldMT-20" transform="translate(544.677734 0)"/>
     <use xlink:href="#Arial-BoldMT-50" transform="translate(572.460938 0)"/>
     <use xlink:href="#Arial-BoldMT-72" transform="translate(639.160156 0)"/>
     <use xlink:href="#Arial-BoldMT-65" transform="translate(678.076172 0)"/>
     <use xlink:href="#Arial-BoldMT-63" transform="translate(733.691406 0)"/>
     <use xlink:href="#Arial-BoldMT-69" transform="translate(789.306641 0)"/>
     <use xlink:href="#Arial-BoldMT-70" transform="translate(817.089844 0)"/>
     <use xlink:href="#Arial-BoldMT-69" transform="translate(878.173828 0)"/>
     <use xlink:href="#Arial-BoldMT-74" transform="translate(905.957031 0)"/>
     <use xlink:href="#Arial-BoldMT-61" transform="translate(939.257812 0)"/>
     <use xlink:href="#Arial-BoldMT-74" transform="translate(994.873047 0)"/>
     <use xlink:href="#Arial-BoldMT-69" transform="translate(1028.173828 0)"/>
     <use xlink:href="#Arial-BoldMT-6f" transform="translate(1055.957031 0)"/>
     <use xlink:href="#Arial-BoldMT-6e" transform="translate(1117.041016 0)"/>
     <use xlink:href="#Arial-BoldMT-20" transform="translate(1178.125 0)"/>
     <use xlink:href="#Arial-BoldMT-4d" transform="translate(1205.908203 0)"/>
     <use xlink:href="#Arial-BoldMT-41" transform="translate(1289.208984 0)"/>
     <use xlink:href="#Arial-BoldMT-45" transform="translate(1361.425781 0)"/>
    </g>
    <!-- (Events ≥ 95th percentile (16.74 mm/day)) -->
    <g style="fill: #262626" transform="translate(86.913494 28.944) scale(0.12 -0.12)">
     <defs>
      <path id="Arial-BoldMT-76" d="M 1372 0 
L 34 3319 
L 956 3319 
L 1581 1625 
L 1763 1059 
Q 1834 1275 1853 1344 
Q 1897 1484 1947 1625 
L 2578 3319 
L 3481 3319 
L 2163 0 
L 1372 0 
z
" transform="scale(0.015625)"/>
      <path id="Arial-BoldMT-73" d="M 150 947 
L 1031 1081 
Q 1088 825 1259 692 
Q 1431 559 1741 559 
Q 2081 559 2253 684 
Q 2369 772 2369 919 
Q 2369 1019 2306 1084 
Q 2241 1147 2013 1200 
Q 950 1434 666 1628 
Q 272 1897 272 2375 
Q 272 2806 612 3100 
Q 953 3394 1669 3394 
Q 2350 3394 2681 3172 
Q 3013 2950 3138 2516 
L 2309 2363 
Q 2256 2556 2107 2659 
Q 1959 2763 1684 2763 
Q 1338 2763 1188 2666 
Q 1088 2597 1088 2488 
Q 1088 2394 1175 2328 
Q 1294 2241 1995 2081 
Q 2697 1922 2975 1691 
Q 3250 1456 3250 1038 
Q 3250 581 2869 253 
Q 2488 -75 1741 -75 
Q 1063 -75 667 200 
Q 272 475 150 947 
z
" transform="scale(0.015625)"/>
      <path id="Arial-BoldMT-2265" d="M 188 1056 
L 188 1938 
L 2381 2803 
L 188 3653 
L 188 4531 
L 3328 3175 
L 3328 2422 
L 188 1056 
z
M 188 0 
L 188 822 
L 3328 822 
L 3328 0 
L 188 0 
z
" transform="scale(0.015625)"/>
      <path id="Arial-BoldMT-39" d="M 291 1059 
L 1141 1153 
Q 1172 894 1303 769 
Q 1434 644 1650 644 
Q 1922 644 2112 894 
Q 2303 1144 2356 1931 
Q 2025 1547 1528 1547 
Q 988 1547 595 1964 
Q 203 2381 203 3050 
Q 203 3747 617 4173 
Q 1031 4600 1672 4600 
Q 2369 4600 2816 4061 
Q 3263 3522 3263 2288 
Q 3263 1031 2797 475 
Q 2331 -81 1584 -81 
Q 1047 -81 715 205 
Q 384 491 291 1059 
z
M 2278 2978 
Q 2278 3403 2083 3637 
Q 1888 3872 1631 3872 
Q 1388 3872 1227 3680 
Q 1066 3488 1066 3050 
Q 1066 2606 1241 2398 
Q 1416 2191 1678 2191 
Q 1931 2191 2104 2391 
Q 2278 2591 2278 2978 
z
" transform="scale(0.015625)"/>
      <path id="Arial-BoldMT-35" d="M 284 1178 
L 1159 1269 
Q 1197 972 1381 798 
Q 1566 625 1806 625 
Q 2081 625 2272 848 
Q 2463 1072 2463 1522 
Q 2463 1944 2273 2155 
Q 2084 2366 1781 2366 
Q 1403 2366 1103 2031 
L 391 2134 
L 841 4519 
L 3163 4519 
L 3163 3697 
L 1506 3697 
L 1369 2919 
Q 1663 3066 1969 3066 
Q 2553 3066 2959 2641 
Q 3366 2216 3366 1538 
Q 3366 972 3038 528 
Q 2591 -78 1797 -78 
Q 1163 -78 763 262 
Q 363 603 284 1178 
z
" transform="scale(0.015625)"/>
      <path id="Arial-BoldMT-68" d="M 1334 4581 
L 1334 2897 
Q 1759 3394 2350 3394 
Q 2653 3394 2897 3281 
Q 3141 3169 3264 2994 
Q 3388 2819 3433 2606 
Q 3478 2394 3478 1947 
L 3478 0 
L 2600 0 
L 2600 1753 
Q 2600 2275 2550 2415 
Q 2500 2556 2373 2639 
Q 2247 2722 2056 2722 
Q 1838 2722 1666 2615 
Q 1494 2509 1414 2295 
Q 1334 2081 1334 1663 
L 1334 0 
L 456 0 
L 456 4581 
L 1334 4581 
z
" transform="scale(0.015625)"/>
      <path id="Arial-BoldMT-6c" d="M 459 0 
L 459 4581 
L 1338 4581 
L 1338 0 
L 459 0 
z
" transform="scale(0.015625)"/>
      <path id="Arial-BoldMT-31" d="M 2519 0 
L 1641 0 
L 1641 3309 
Q 1159 2859 506 2644 
L 506 3441 
Q 850 3553 1253 3867 
Q 1656 4181 1806 4600 
L 2519 4600 
L 2519 0 
z
" transform="scale(0.015625)"/>
      <path id="Arial-BoldMT-36" d="M 3247 3459 
L 2397 3366 
Q 2366 3628 2234 3753 
Q 2103 3878 1894 3878 
Q 1616 3878 1423 3628 
Q 1231 3378 1181 2588 
Q 1509 2975 1997 2975 
Q 2547 2975 2939 2556 
Q 3331 2138 3331 1475 
Q 3331 772 2918 347 
Q 2506 -78 1859 -78 
Q 1166 -78 719 461 
Q 272 1000 272 2228 
Q 272 3488 737 4044 
Q 1203 4600 1947 4600 
Q 2469 4600 2811 4308 
Q 3153 4016 3247 3459 
z
M 1256 1544 
Q 1256 1116 1453 883 
Q 1650 650 1903 650 
Q 2147 650 2309 840 
Q 2472 1031 2472 1466 
Q 2472 1913 2297 2120 
Q 2122 2328 1859 2328 
Q 1606 2328 1431 2129 
Q 1256 1931 1256 1544 
z
" transform="scale(0.015625)"/>
      <path id="Arial-BoldMT-2e" d="M 459 0 
L 459 878 
L 1338 878 
L 1338 0 
L 459 0 
z
" transform="scale(0.015625)"/>
      <path id="Arial-BoldMT-37" d="M 272 3703 
L 272 4519 
L 3275 4519 
L 3275 3881 
Q 2903 3516 2518 2831 
Q 2134 2147 1932 1376 
Q 1731 606 1734 0 
L 888 0 
Q 909 950 1279 1937 
Q 1650 2925 2269 3703 
L 272 3703 
z
" transform="scale(0.015625)"/>
      <path id="Arial-BoldMT-34" d="M 1994 0 
L 1994 922 
L 119 922 
L 119 1691 
L 2106 4600 
L 2844 4600 
L 2844 1694 
L 3413 1694 
L 3413 922 
L 2844 922 
L 2844 0 
L 1994 0 
z
M 1994 1694 
L 1994 3259 
L 941 1694 
L 1994 1694 
z
" transform="scale(0.015625)"/>
      <path id="Arial-BoldMT-2f" d="M -9 -78 
L 1125 4659 
L 1784 4659 
L 638 -78 
L -9 -78 
z
" transform="scale(0.015625)"/>
      <path id="Arial-BoldMT-64" d="M 3503 0 
L 2688 0 
L 2688 488 
Q 2484 203 2207 64 
Q 1931 -75 1650 -75 
Q 1078 -75 670 386 
Q 263 847 263 1672 
Q 263 2516 659 2955 
Q 1056 3394 1663 3394 
Q 2219 3394 2625 2931 
L 2625 4581 
L 3503 4581 
L 3503 0 
z
M 1159 1731 
Q 1159 1200 1306 963 
Q 1519 619 1900 619 
Q 2203 619 2415 876 
Q 2628 1134 2628 1647 
Q 2628 2219 2422 2470 
Q 2216 2722 1894 2722 
Q 1581 2722 1370 2473 
Q 1159 2225 1159 1731 
z
" transform="scale(0.015625)"/>
      <path id="Arial-BoldMT-79" d="M 44 3319 
L 978 3319 
L 1772 963 
L 2547 3319 
L 3456 3319 
L 2284 125 
L 2075 -453 
Q 1959 -744 1854 -897 
Q 1750 -1050 1614 -1145 
Q 1478 -1241 1279 -1294 
Q 1081 -1347 831 -1347 
Q 578 -1347 334 -1294 
L 256 -606 
Q 463 -647 628 -647 
Q 934 -647 1081 -467 
Q 1228 -288 1306 -9 
L 44 3319 
z
" transform="scale(0.015625)"/>
     </defs>
     <use xlink:href="#Arial-BoldMT-28"/>
     <use xlink:href="#Arial-BoldMT-45" transform="translate(33.300781 0)"/>
     <use xlink:href="#Arial-BoldMT-76" transform="translate(100 0)"/>
     <use xlink:href="#Arial-BoldMT-65" transform="translate(155.615234 0)"/>
     <use xlink:href="#Arial-BoldMT-6e" transform="translate(211.230469 0)"/>
     <use xlink:href="#Arial-BoldMT-74" transform="translate(272.314453 0)"/>
     <use xlink:href="#Arial-BoldMT-73" transform="translate(305.615234 0)"/>
     <use xlink:href="#Arial-BoldMT-20" transform="translate(361.230469 0)"/>
     <use xlink:href="#Arial-BoldMT-2265" transform="translate(389.013672 0)"/>
     <use xlink:href="#Arial-BoldMT-20" transform="translate(443.896484 0)"/>
     <use xlink:href="#Arial-BoldMT-39" transform="translate(471.679688 0)"/>
     <use xlink:href="#Arial-BoldMT-35" transform="translate(527.294922 0)"/>
     <use xlink:href="#Arial-BoldMT-74" transform="translate(582.910156 0)"/>
     <use xlink:href="#Arial-BoldMT-68" transform="translate(616.210938 0)"/>
     <use xlink:href="#Arial-BoldMT-20" transform="translate(677.294922 0)"/>
     <use xlink:href="#Arial-BoldMT-70" transform="translate(705.078125 0)"/>
     <use xlink:href="#Arial-BoldMT-65" transform="translate(766.162109 0)"/>
     <use xlink:href="#Arial-BoldMT-72" transform="translate(821.777344 0)"/>
     <use xlink:href="#Arial-BoldMT-63" transform="translate(860.693359 0)"/>
     <use xlink:href="#Arial-BoldMT-65" transform="translate(916.308594 0)"/>
     <use xlink:href="#Arial-BoldMT-6e" transform="translate(971.923828 0)"/>
     <use xlink:href="#Arial-BoldMT-74" transform="translate(1033.007812 0)"/>
     <use xlink:href="#Arial-BoldMT-69" transform="translate(1066.308594 0)"/>
     <use xlink:href="#Arial-BoldMT-6c" transform="translate(1094.091797 0)"/>
     <use xlink:href="#Arial-BoldMT-65" transform="translate(1121.875 0)"/>
     <use xlink:href="#Arial-BoldMT-20" transform="translate(1177.490234 0)"/>
     <use xlink:href="#Arial-BoldMT-28" transform="translate(1205.273438 0)"/>
     <use xlink:href="#Arial-BoldMT-31" transform="translate(1238.574219 0)"/>
     <use xlink:href="#Arial-BoldMT-36" transform="translate(1294.189453 0)"/>
     <use xlink:href="#Arial-BoldMT-2e" transform="translate(1349.804688 0)"/>
     <use xlink:href="#Arial-BoldMT-37" transform="translate(1377.587891 0)"/>
     <use xlink:href="#Arial-BoldMT-34" transform="translate(1433.203125 0)"/>
     <use xlink:href="#Arial-BoldMT-20" transform="translate(1488.818359 0)"/>
     <use xlink:href="#Arial-BoldMT-6d" transform="translate(1516.601562 0)"/>
     <use xlink:href="#Arial-BoldMT-6d" transform="translate(1605.517578 0)"/>
     <use xlink:href="#Arial-BoldMT-2f" transform="translate(1694.433594 0)"/>
     <use xlink:href="#Arial-BoldMT-64" transform="translate(1722.216797 0)"/>
     <use xlink:href="#Arial-BoldMT-61" transform="translate(1783.300781 0)"/>
     <use xlink:href="#Arial-BoldMT-79" transform="translate(1838.916016 0)"/>
     <use xlink:href="#Arial-BoldMT-29" transform="translate(1894.53125 0)"/>
     <use xlink:href="#Arial-BoldMT-29" transform="translate(1927.832031 0)"/>
    </g>
   </g>
  </g>
  <g id="axes_2">
   <g id="patch_30">
    <path d="M 423.491676 324.26275 
L 744.24804 324.26275 
L 744.24804 34.944 
L 423.491676 34.944 
z
" style="fill: #ffffff"/>
   </g>
   <g id="matplotlib.axis_3">
    <g id="xtick_5">
     <g id="text_13">
      <!-- 10% -->
      <g style="fill: #262626" transform="translate(452.578487 341.636344) scale(0.11 -0.11)">
       <use xlink:href="#ArialMT-31"/>
       <use xlink:href="#ArialMT-30" transform="translate(55.615234 0)"/>
       <use xlink:href="#ArialMT-25" transform="translate(111.230469 0)"/>
      </g>
     </g>
    </g>
    <g id="xtick_6">
     <g id="text_14">
      <!-- 20% -->
      <g style="fill: #262626" transform="translate(532.767578 341.636344) scale(0.11 -0.11)">
       <use xlink:href="#ArialMT-32"/>
       <use xlink:href="#ArialMT-30" transform="translate(55.615234 0)"/>
       <use xlink:href="#ArialMT-25" transform="translate(111.230469 0)"/>
      </g>
     </g>
    </g>
    <g id="xtick_7">
     <g id="text_15">
      <!-- 7d Block -->
      <g style="fill: #262626" transform="translate(602.870185 341.636344) scale(0.11 -0.11)">
       <use xlink:href="#ArialMT-37"/>
       <use xlink:href="#ArialMT-64" transform="translate(55.615234 0)"/>
       <use xlink:href="#ArialMT-20" transform="translate(111.230469 0)"/>
       <use xlink:href="#ArialMT-42" transform="translate(139.013672 0)"/>
       <use xlink:href="#ArialMT-6c" transform="translate(205.712891 0)"/>
       <use xlink:href="#ArialMT-6f" transform="translate(227.929688 0)"/>
       <use xlink:href="#ArialMT-63" transform="translate(283.544922 0)"/>
       <use xlink:href="#ArialMT-6b" transform="translate(333.544922 0)"/>
      </g>
     </g>
    </g>
    <g id="xtick_8">
     <g id="text_16">
      <!-- 30d Block -->
      <g style="fill: #262626" transform="translate(680.00076 341.636344) scale(0.11 -0.11)">
       <use xlink:href="#ArialMT-33"/>
       <use xlink:href="#ArialMT-30" transform="translate(55.615234 0)"/>
       <use xlink:href="#ArialMT-64" transform="translate(111.230469 0)"/>
       <use xlink:href="#ArialMT-20" transform="translate(166.845703 0)"/>
       <use xlink:href="#ArialMT-42" transform="translate(194.628906 0)"/>
       <use xlink:href="#ArialMT-6c" transform="translate(261.328125 0)"/>
       <use xlink:href="#ArialMT-6f" transform="translate(283.544922 0)"/>
       <use xlink:href="#ArialMT-63" transform="translate(339.160156 0)"/>
       <use xlink:href="#ArialMT-6b" transform="translate(389.160156 0)"/>
      </g>
     </g>
    </g>
   </g>
   <g id="matplotlib.axis_4">
    <g id="ytick_7">
     <g id="line2d_27">
      <path d="M 423.491676 324.26275 
L 744.24804 324.26275 
" clip-path="url(#p87481c9cfe)" style="fill: none; stroke: #cccccc; stroke-linecap: round"/>
     </g>
     <g id="text_17">
      <!-- 0 -->
      <g style="fill: #262626" transform="translate(407.874645 328.199547) scale(0.11 -0.11)">
       <use xlink:href="#ArialMT-30"/>
      </g>
     </g>
    </g>
    <g id="ytick_8">
     <g id="line2d_28">
      <path d="M 423.491676 271.591347 
L 744.24804 271.591347 
" clip-path="url(#p87481c9cfe)" style="fill: none; stroke: #cccccc; stroke-linecap: round"/>
     </g>
     <g id="text_18">
      <!-- 5 -->
      <g style="fill: #262626" transform="translate(407.874645 275.528144) scale(0.11 -0.11)">
       <use xlink:href="#ArialMT-35"/>
      </g>
     </g>
    </g>
    <g id="ytick_9">
     <g id="line2d_29">
      <path d="M 423.491676 218.919944 
L 744.24804 218.919944 
" clip-path="url(#p87481c9cfe)" style="fill: none; stroke: #cccccc; stroke-linecap: round"/>
     </g>
     <g id="text_19">
      <!-- 10 -->
      <g style="fill: #262626" transform="translate(401.757614 222.856741) scale(0.11 -0.11)">
       <use xlink:href="#ArialMT-31"/>
       <use xlink:href="#ArialMT-30" transform="translate(55.615234 0)"/>
      </g>
     </g>
    </g>
    <g id="ytick_10">
     <g id="line2d_30">
      <path d="M 423.491676 166.248541 
L 744.24804 166.248541 
" clip-path="url(#p87481c9cfe)" style="fill: none; stroke: #cccccc; stroke-linecap: round"/>
     </g>
     <g id="text_20">
      <!-- 15 -->
      <g style="fill: #262626" transform="translate(401.757614 170.185338) scale(0.11 -0.11)">
       <use xlink:href="#ArialMT-31"/>
       <use xlink:href="#ArialMT-35" transform="translate(55.615234 0)"/>
      </g>
     </g>
    </g>
    <g id="ytick_11">
     <g id="line2d_31">
      <path d="M 423.491676 113.577138 
L 744.24804 113.577138 
" clip-path="url(#p87481c9cfe)" style="fill: none; stroke: #cccccc; stroke-linecap: round"/>
     </g>
     <g id="text_21">
      <!-- 20 -->
      <g style="fill: #262626" transform="translate(401.757614 117.513935) scale(0.11 -0.11)">
       <use xlink:href="#ArialMT-32"/>
       <use xlink:href="#ArialMT-30" transform="translate(55.615234 0)"/>
      </g>
     </g>
    </g>
    <g id="ytick_12">
     <g id="line2d_32">
      <path d="M 423.491676 60.905735 
L 744.24804 60.905735 
" clip-path="url(#p87481c9cfe)" style="fill: none; stroke: #cccccc; stroke-linecap: round"/>
     </g>
     <g id="text_22">
      <!-- 25 -->
      <g style="fill: #262626" transform="translate(401.757614 64.842531) scale(0.11 -0.11)">
       <use xlink:href="#ArialMT-32"/>
       <use xlink:href="#ArialMT-35" transform="translate(55.615234 0)"/>
      </g>
     </g>
    </g>
    <g id="text_23">
     <!-- RMSE (mm/day) -->
     <g style="fill: #262626" transform="translate(395.231989 223.936812) rotate(-90) scale(0.12 -0.12)">
      <defs>
       <path id="ArialMT-52" d="M 503 0 
L 503 4581 
L 2534 4581 
Q 3147 4581 3465 4457 
Q 3784 4334 3975 4021 
Q 4166 3709 4166 3331 
Q 4166 2844 3850 2509 
Q 3534 2175 2875 2084 
Q 3116 1969 3241 1856 
Q 3506 1613 3744 1247 
L 4541 0 
L 3778 0 
L 3172 953 
Q 2906 1366 2734 1584 
Q 2563 1803 2427 1890 
Q 2291 1978 2150 2013 
Q 2047 2034 1813 2034 
L 1109 2034 
L 1109 0 
L 503 0 
z
M 1109 2559 
L 2413 2559 
Q 2828 2559 3062 2645 
Q 3297 2731 3419 2920 
Q 3541 3109 3541 3331 
Q 3541 3656 3305 3865 
Q 3069 4075 2559 4075 
L 1109 4075 
L 1109 2559 
z
" transform="scale(0.015625)"/>
       <path id="ArialMT-53" d="M 288 1472 
L 859 1522 
Q 900 1178 1048 958 
Q 1197 738 1509 602 
Q 1822 466 2213 466 
Q 2559 466 2825 569 
Q 3091 672 3220 851 
Q 3350 1031 3350 1244 
Q 3350 1459 3225 1620 
Q 3100 1781 2813 1891 
Q 2628 1963 1997 2114 
Q 1366 2266 1113 2400 
Q 784 2572 623 2826 
Q 463 3081 463 3397 
Q 463 3744 659 4045 
Q 856 4347 1234 4503 
Q 1613 4659 2075 4659 
Q 2584 4659 2973 4495 
Q 3363 4331 3572 4012 
Q 3781 3694 3797 3291 
L 3216 3247 
Q 3169 3681 2898 3903 
Q 2628 4125 2100 4125 
Q 1550 4125 1298 3923 
Q 1047 3722 1047 3438 
Q 1047 3191 1225 3031 
Q 1400 2872 2139 2705 
Q 2878 2538 3153 2413 
Q 3553 2228 3743 1945 
Q 3934 1663 3934 1294 
Q 3934 928 3725 604 
Q 3516 281 3123 101 
Q 2731 -78 2241 -78 
Q 1619 -78 1198 103 
Q 778 284 539 648 
Q 300 1013 288 1472 
z
" transform="scale(0.015625)"/>
      </defs>
      <use xlink:href="#ArialMT-52"/>
      <use xlink:href="#ArialMT-4d" transform="translate(72.216797 0)"/>
      <use xlink:href="#ArialMT-53" transform="translate(155.517578 0)"/>
      <use xlink:href="#ArialMT-45" transform="translate(222.216797 0)"/>
      <use xlink:href="#ArialMT-20" transform="translate(288.916016 0)"/>
      <use xlink:href="#ArialMT-28" transform="translate(316.699219 0)"/>
      <use xlink:href="#ArialMT-6d" transform="translate(350 0)"/>
      <use xlink:href="#ArialMT-6d" transform="translate(433.300781 0)"/>
      <use xlink:href="#ArialMT-2f" transform="translate(516.601562 0)"/>
      <use xlink:href="#ArialMT-64" transform="translate(544.384766 0)"/>
      <use xlink:href="#ArialMT-61" transform="translate(600 0)"/>
      <use xlink:href="#ArialMT-79" transform="translate(655.615234 0)"/>
      <use xlink:href="#ArialMT-29" transform="translate(705.615234 0)"/>
     </g>
    </g>
   </g>
   <g id="patch_31">
    <path d="M 431.510585 324.26275 
L 444.34084 324.26275 
L 444.34084 117.685507 
L 431.510585 117.685507 
z
" clip-path="url(#p87481c9cfe)" style="fill: #176d9c; stroke: #333333; stroke-linejoin: miter"/>
   </g>
   <g id="patch_32">
    <path d="M 511.699676 324.26275 
L 524.529931 324.26275 
L 524.529931 159.927972 
L 511.699676 159.927972 
z
" clip-path="url(#p87481c9cfe)" style="fill: #176d9c; stroke: #333333; stroke-linejoin: miter"/>
   </g>
   <g id="patch_33">
    <path d="M 591.888767 324.26275 
L 604.719022 324.26275 
L 604.719022 97.565031 
L 591.888767 97.565031 
z
" clip-path="url(#p87481c9cfe)" style="fill: #176d9c; stroke: #333333; stroke-linejoin: miter"/>
   </g>
   <g id="patch_34">
    <path d="M 672.077858 324.26275 
L 684.908112 324.26275 
L 684.908112 81.658267 
L 672.077858 81.658267 
z
" clip-path="url(#p87481c9cfe)" style="fill: #176d9c; stroke: #333333; stroke-linejoin: miter"/>
   </g>
   <g id="patch_35">
    <path d="M 444.34084 324.26275 
L 457.171094 324.26275 
L 457.171094 48.721083 
L 444.34084 48.721083 
z
" clip-path="url(#p87481c9cfe)" style="fill: #c38820; stroke: #333333; stroke-linejoin: miter"/>
   </g>
   <g id="patch_36">
    <path d="M 524.529931 324.26275 
L 537.360185 324.26275 
L 537.360185 77.128527 
L 524.529931 77.128527 
z
" clip-path="url(#p87481c9cfe)" style="fill: #c38820; stroke: #333333; stroke-linejoin: miter"/>
   </g>
   <g id="patch_37">
    <path d="M 604.719022 324.26275 
L 617.549276 324.26275 
L 617.549276 74.249157 
L 604.719022 74.249157 
z
" clip-path="url(#p87481c9cfe)" style="fill: #c38820; stroke: #333333; stroke-linejoin: miter"/>
   </g>
   <g id="patch_38">
    <path d="M 684.908112 324.26275 
L 697.738367 324.26275 
L 697.738367 70.281244 
L 684.908112 70.281244 
z
" clip-path="url(#p87481c9cfe)" style="fill: #c38820; stroke: #333333; stroke-linejoin: miter"/>
   </g>
   <g id="patch_39">
    <path d="M 457.171094 324.26275 
L 470.001349 324.26275 
L 470.001349 55.146995 
L 457.171094 55.146995 
z
" clip-path="url(#p87481c9cfe)" style="fill: #158b6a; stroke: #333333; stroke-linejoin: miter"/>
   </g>
   <g id="patch_40">
    <path d="M 537.360185 324.26275 
L 550.19044 324.26275 
L 550.19044 85.836865 
L 537.360185 85.836865 
z
" clip-path="url(#p87481c9cfe)" style="fill: #158b6a; stroke: #333333; stroke-linejoin: miter"/>
   </g>
   <g id="patch_41">
    <path d="M 617.549276 324.26275 
L 630.379531 324.26275 
L 630.379531 91.104006 
L 617.549276 91.104006 
z
" clip-path="url(#p87481c9cfe)" style="fill: #158b6a; stroke: #333333; stroke-linejoin: miter"/>
   </g>
   <g id="patch_42">
    <path d="M 697.738367 324.26275 
L 710.568622 324.26275 
L 710.568622 81.412468 
L 697.738367 81.412468 
z
" clip-path="url(#p87481c9cfe)" style="fill: #158b6a; stroke: #333333; stroke-linejoin: miter"/>
   </g>
   <g id="patch_43">
    <path d="M 470.001349 324.26275 
L 482.831603 324.26275 
L 482.831603 77.936155 
L 470.001349 77.936155 
z
" clip-path="url(#p87481c9cfe)" style="fill: #ba611b; stroke: #333333; stroke-linejoin: miter"/>
   </g>
   <g id="patch_44">
    <path d="M 550.19044 324.26275 
L 563.020694 324.26275 
L 563.020694 107.677941 
L 550.19044 107.677941 
z
" clip-path="url(#p87481c9cfe)" style="fill: #ba611b; stroke: #333333; stroke-linejoin: miter"/>
   </g>
   <g id="patch_45">
    <path d="M 630.379531 324.26275 
L 643.209785 324.26275 
L 643.209785 111.470282 
L 630.379531 111.470282 
z
" clip-path="url(#p87481c9cfe)" style="fill: #ba611b; stroke: #333333; stroke-linejoin: miter"/>
   </g>
   <g id="patch_46">
    <path d="M 710.568622 324.26275 
L 723.398876 324.26275 
L 723.398876 97.249003 
L 710.568622 97.249003 
z
" clip-path="url(#p87481c9cfe)" style="fill: #ba611b; stroke: #333333; stroke-linejoin: miter"/>
   </g>
   <g id="patch_47">
    <path d="M 482.831603 324.26275 
L 495.661858 324.26275 
L 495.661858 147.989121 
L 482.831603 147.989121 
z
" clip-path="url(#p87481c9cfe)" style="fill: #c282b5; stroke: #333333; stroke-linejoin: miter"/>
   </g>
   <g id="patch_48">
    <path d="M 563.020694 324.26275 
L 575.850949 324.26275 
L 575.850949 182.190419 
L 563.020694 182.190419 
z
" clip-path="url(#p87481c9cfe)" style="fill: #c282b5; stroke: #333333; stroke-linejoin: miter"/>
   </g>
   <g id="patch_49">
    <path d="M 643.209785 324.26275 
L 656.04004 324.26275 
L 656.04004 205.681865 
L 643.209785 205.681865 
z
" clip-path="url(#p87481c9cfe)" style="fill: #c282b5; stroke: #333333; stroke-linejoin: miter"/>
   </g>
   <g id="patch_50">
    <path d="M 723.398876 324.26275 
L 736.229131 324.26275 
L 736.229131 157.013488 
L 723.398876 157.013488 
z
" clip-path="url(#p87481c9cfe)" style="fill: #c282b5; stroke: #333333; stroke-linejoin: miter"/>
   </g>
   <g id="patch_51">
    <path d="M 463.586222 324.26275 
L 463.586222 324.26275 
L 463.586222 324.26275 
L 463.586222 324.26275 
z
" clip-path="url(#p87481c9cfe)" style="fill: #176d9c; stroke: #333333; stroke-linejoin: miter"/>
   </g>
   <g id="patch_52">
    <path d="M 463.586222 324.26275 
L 463.586222 324.26275 
L 463.586222 324.26275 
L 463.586222 324.26275 
z
" clip-path="url(#p87481c9cfe)" style="fill: #c38820; stroke: #333333; stroke-linejoin: miter"/>
   </g>
   <g id="patch_53">
    <path d="M 463.586222 324.26275 
L 463.586222 324.26275 
L 463.586222 324.26275 
L 463.586222 324.26275 
z
" clip-path="url(#p87481c9cfe)" style="fill: #158b6a; stroke: #333333; stroke-linejoin: miter"/>
   </g>
   <g id="patch_54">
    <path d="M 463.586222 324.26275 
L 463.586222 324.26275 
L 463.586222 324.26275 
L 463.586222 324.26275 
z
" clip-path="url(#p87481c9cfe)" style="fill: #ba611b; stroke: #333333; stroke-linejoin: miter"/>
   </g>
   <g id="patch_55">
    <path d="M 463.586222 324.26275 
L 463.586222 324.26275 
L 463.586222 324.26275 
L 463.586222 324.26275 
z
" clip-path="url(#p87481c9cfe)" style="fill: #c282b5; stroke: #333333; stroke-linejoin: miter"/>
   </g>
   <g id="line2d_33">
    <path clip-path="url(#p87481c9cfe)" style="fill: none; stroke: #424242; stroke-width: 2.25; stroke-linecap: round"/>
   </g>
   <g id="line2d_34">
    <path clip-path="url(#p87481c9cfe)" style="fill: none; stroke: #424242; stroke-width: 2.25; stroke-linecap: round"/>
   </g>
   <g id="line2d_35">
    <path clip-path="url(#p87481c9cfe)" style="fill: none; stroke: #424242; stroke-width: 2.25; stroke-linecap: round"/>
   </g>
   <g id="line2d_36">
    <path clip-path="url(#p87481c9cfe)" style="fill: none; stroke: #424242; stroke-width: 2.25; stroke-linecap: round"/>
   </g>
   <g id="line2d_37">
    <path clip-path="url(#p87481c9cfe)" style="fill: none; stroke: #424242; stroke-width: 2.25; stroke-linecap: round"/>
   </g>
   <g id="line2d_38">
    <path clip-path="url(#p87481c9cfe)" style="fill: none; stroke: #424242; stroke-width: 2.25; stroke-linecap: round"/>
   </g>
   <g id="line2d_39">
    <path clip-path="url(#p87481c9cfe)" style="fill: none; stroke: #424242; stroke-width: 2.25; stroke-linecap: round"/>
   </g>
   <g id="line2d_40">
    <path clip-path="url(#p87481c9cfe)" style="fill: none; stroke: #424242; stroke-width: 2.25; stroke-linecap: round"/>
   </g>
   <g id="line2d_41">
    <path clip-path="url(#p87481c9cfe)" style="fill: none; stroke: #424242; stroke-width: 2.25; stroke-linecap: round"/>
   </g>
   <g id="line2d_42">
    <path clip-path="url(#p87481c9cfe)" style="fill: none; stroke: #424242; stroke-width: 2.25; stroke-linecap: round"/>
   </g>
   <g id="line2d_43">
    <path clip-path="url(#p87481c9cfe)" style="fill: none; stroke: #424242; stroke-width: 2.25; stroke-linecap: round"/>
   </g>
   <g id="line2d_44">
    <path clip-path="url(#p87481c9cfe)" style="fill: none; stroke: #424242; stroke-width: 2.25; stroke-linecap: round"/>
   </g>
   <g id="line2d_45">
    <path clip-path="url(#p87481c9cfe)" style="fill: none; stroke: #424242; stroke-width: 2.25; stroke-linecap: round"/>
   </g>
   <g id="line2d_46">
    <path clip-path="url(#p87481c9cfe)" style="fill: none; stroke: #424242; stroke-width: 2.25; stroke-linecap: round"/>
   </g>
   <g id="line2d_47">
    <path clip-path="url(#p87481c9cfe)" style="fill: none; stroke: #424242; stroke-width: 2.25; stroke-linecap: round"/>
   </g>
   <g id="line2d_48">
    <path clip-path="url(#p87481c9cfe)" style="fill: none; stroke: #424242; stroke-width: 2.25; stroke-linecap: round"/>
   </g>
   <g id="line2d_49">
    <path clip-path="url(#p87481c9cfe)" style="fill: none; stroke: #424242; stroke-width: 2.25; stroke-linecap: round"/>
   </g>
   <g id="line2d_50">
    <path clip-path="url(#p87481c9cfe)" style="fill: none; stroke: #424242; stroke-width: 2.25; stroke-linecap: round"/>
   </g>
   <g id="line2d_51">
    <path clip-path="url(#p87481c9cfe)" style="fill: none; stroke: #424242; stroke-width: 2.25; stroke-linecap: round"/>
   </g>
   <g id="line2d_52">
    <path clip-path="url(#p87481c9cfe)" style="fill: none; stroke: #424242; stroke-width: 2.25; stroke-linecap: round"/>
   </g>
   <g id="patch_56">
    <path d="M 423.491676 324.26275 
L 423.491676 34.944 
" style="fill: none; stroke: #cccccc; stroke-width: 1.2; stroke-linejoin: miter; stroke-linecap: square"/>
   </g>
   <g id="patch_57">
    <path d="M 423.491676 324.26275 
L 744.24804 324.26275 
" style="fill: none; stroke: #cccccc; stroke-width: 1.2; stroke-linejoin: miter; stroke-linecap: square"/>
   </g>
   <g id="text_24">
    <!-- (b) Extreme Precipitation RMSE -->
    <g style="fill: #262626" transform="translate(493.855795 15.935625) scale(0.12 -0.12)">
     <defs>
      <path id="Arial-BoldMT-62" d="M 422 0 
L 422 4581 
L 1300 4581 
L 1300 2931 
Q 1706 3394 2263 3394 
Q 2869 3394 3266 2955 
Q 3663 2516 3663 1694 
Q 3663 844 3258 384 
Q 2853 -75 2275 -75 
Q 1991 -75 1714 67 
Q 1438 209 1238 488 
L 1238 0 
L 422 0 
z
M 1294 1731 
Q 1294 1216 1456 969 
Q 1684 619 2063 619 
Q 2353 619 2558 867 
Q 2763 1116 2763 1650 
Q 2763 2219 2556 2470 
Q 2350 2722 2028 2722 
Q 1713 2722 1503 2476 
Q 1294 2231 1294 1731 
z
" transform="scale(0.015625)"/>
      <path id="Arial-BoldMT-52" d="M 469 0 
L 469 4581 
L 2416 4581 
Q 3150 4581 3483 4457 
Q 3816 4334 4016 4018 
Q 4216 3703 4216 3297 
Q 4216 2781 3912 2445 
Q 3609 2109 3006 2022 
Q 3306 1847 3501 1637 
Q 3697 1428 4028 894 
L 4588 0 
L 3481 0 
L 2813 997 
Q 2456 1531 2325 1670 
Q 2194 1809 2047 1861 
Q 1900 1913 1581 1913 
L 1394 1913 
L 1394 0 
L 469 0 
z
M 1394 2644 
L 2078 2644 
Q 2744 2644 2909 2700 
Q 3075 2756 3169 2893 
Q 3263 3031 3263 3238 
Q 3263 3469 3139 3611 
Q 3016 3753 2791 3791 
Q 2678 3806 2116 3806 
L 1394 3806 
L 1394 2644 
z
" transform="scale(0.015625)"/>
      <path id="Arial-BoldMT-53" d="M 231 1491 
L 1131 1578 
Q 1213 1125 1461 912 
Q 1709 700 2131 700 
Q 2578 700 2804 889 
Q 3031 1078 3031 1331 
Q 3031 1494 2936 1608 
Q 2841 1722 2603 1806 
Q 2441 1863 1863 2006 
Q 1119 2191 819 2459 
Q 397 2838 397 3381 
Q 397 3731 595 4036 
Q 794 4341 1167 4500 
Q 1541 4659 2069 4659 
Q 2931 4659 3367 4281 
Q 3803 3903 3825 3272 
L 2900 3231 
Q 2841 3584 2645 3739 
Q 2450 3894 2059 3894 
Q 1656 3894 1428 3728 
Q 1281 3622 1281 3444 
Q 1281 3281 1419 3166 
Q 1594 3019 2269 2859 
Q 2944 2700 3267 2529 
Q 3591 2359 3773 2064 
Q 3956 1769 3956 1334 
Q 3956 941 3737 597 
Q 3519 253 3119 86 
Q 2719 -81 2122 -81 
Q 1253 -81 787 320 
Q 322 722 231 1491 
z
" transform="scale(0.015625)"/>
     </defs>
     <use xlink:href="#Arial-BoldMT-28"/>
     <use xlink:href="#Arial-BoldMT-62" transform="translate(33.300781 0)"/>
     <use xlink:href="#Arial-BoldMT-29" transform="translate(94.384766 0)"/>
     <use xlink:href="#Arial-BoldMT-20" transform="translate(127.685547 0)"/>
     <use xlink:href="#Arial-BoldMT-45" transform="translate(155.46875 0)"/>
     <use xlink:href="#Arial-BoldMT-78" transform="translate(222.167969 0)"/>
     <use xlink:href="#Arial-BoldMT-74" transform="translate(277.783203 0)"/>
     <use xlink:href="#Arial-BoldMT-72" transform="translate(311.083984 0)"/>
     <use xlink:href="#Arial-BoldMT-65" transform="translate(350 0)"/>
     <use xlink:href="#Arial-BoldMT-6d" transform="translate(405.615234 0)"/>
     <use xlink:href="#Arial-BoldMT-65" transform="translate(494.53125 0)"/>
     <use xlink:href="#Arial-BoldMT-20" transform="translate(550.146484 0)"/>
     <use xlink:href="#Arial-BoldMT-50" transform="translate(577.929688 0)"/>
     <use xlink:href="#Arial-BoldMT-72" transform="translate(644.628906 0)"/>
     <use xlink:href="#Arial-BoldMT-65" transform="translate(683.544922 0)"/>
     <use xlink:href="#Arial-BoldMT-63" transform="translate(739.160156 0)"/>
     <use xlink:href="#Arial-BoldMT-69" transform="translate(794.775391 0)"/>
     <use xlink:href="#Arial-BoldMT-70" transform="translate(822.558594 0)"/>
     <use xlink:href="#Arial-BoldMT-69" transform="translate(883.642578 0)"/>
     <use xlink:href="#Arial-BoldMT-74" transform="translate(911.425781 0)"/>
     <use xlink:href="#Arial-BoldMT-61" transform="translate(944.726562 0)"/>
     <use xlink:href="#Arial-BoldMT-74" transform="translate(1000.341797 0)"/>
     <use xlink:href="#Arial-BoldMT-69" transform="translate(1033.642578 0)"/>
     <use xlink:href="#Arial-BoldMT-6f" transform="translate(1061.425781 0)"/>
     <use xlink:href="#Arial-BoldMT-6e" transform="translate(1122.509766 0)"/>
     <use xlink:href="#Arial-BoldMT-20" transform="translate(1183.59375 0)"/>
     <use xlink:href="#Arial-BoldMT-52" transform="translate(1211.376953 0)"/>
     <use xlink:href="#Arial-BoldMT-4d" transform="translate(1283.59375 0)"/>
     <use xlink:href="#Arial-BoldMT-53" transform="translate(1366.894531 0)"/>
     <use xlink:href="#Arial-BoldMT-45" transform="translate(1433.59375 0)"/>
    </g>
    <!-- (Events ≥ 95th percentile (16.74 mm/day)) -->
    <g style="fill: #262626" transform="translate(466.209858 28.944) scale(0.12 -0.12)">
     <use xlink:href="#Arial-BoldMT-28"/>
     <use xlink:href="#Arial-BoldMT-45" transform="translate(33.300781 0)"/>
     <use xlink:href="#Arial-BoldMT-76" transform="translate(100 0)"/>
     <use xlink:href="#Arial-BoldMT-65" transform="translate(155.615234 0)"/>
     <use xlink:href="#Arial-BoldMT-6e" transform="translate(211.230469 0)"/>
     <use xlink:href="#Arial-BoldMT-74" transform="translate(272.314453 0)"/>
     <use xlink:href="#Arial-BoldMT-73" transform="translate(305.615234 0)"/>
     <use xlink:href="#Arial-BoldMT-20" transform="translate(361.230469 0)"/>
     <use xlink:href="#Arial-BoldMT-2265" transform="translate(389.013672 0)"/>
     <use xlink:href="#Arial-BoldMT-20" transform="translate(443.896484 0)"/>
     <use xlink:href="#Arial-BoldMT-39" transform="translate(471.679688 0)"/>
     <use xlink:href="#Arial-BoldMT-35" transform="translate(527.294922 0)"/>
     <use xlink:href="#Arial-BoldMT-74" transform="translate(582.910156 0)"/>
     <use xlink:href="#Arial-BoldMT-68" transform="translate(616.210938 0)"/>
     <use xlink:href="#Arial-BoldMT-20" transform="translate(677.294922 0)"/>
     <use xlink:href="#Arial-BoldMT-70" transform="translate(705.078125 0)"/>
     <use xlink:href="#Arial-BoldMT-65" transform="translate(766.162109 0)"/>
     <use xlink:href="#Arial-BoldMT-72" transform="translate(821.777344 0)"/>
     <use xlink:href="#Arial-BoldMT-63" transform="translate(860.693359 0)"/>
     <use xlink:href="#Arial-BoldMT-65" transform="translate(916.308594 0)"/>
     <use xlink:href="#Arial-BoldMT-6e" transform="translate(971.923828 0)"/>
     <use xlink:href="#Arial-BoldMT-74" transform="translate(1033.007812 0)"/>
     <use xlink:href="#Arial-BoldMT-69" transform="translate(1066.308594 0)"/>
     <use xlink:href="#Arial-BoldMT-6c" transform="translate(1094.091797 0)"/>
     <use xlink:href="#Arial-BoldMT-65" transform="translate(1121.875 0)"/>
     <use xlink:href="#Arial-BoldMT-20" transform="translate(1177.490234 0)"/>
     <use xlink:href="#Arial-BoldMT-28" transform="translate(1205.273438 0)"/>
     <use xlink:href="#Arial-BoldMT-31" transform="translate(1238.574219 0)"/>
     <use xlink:href="#Arial-BoldMT-36" transform="translate(1294.189453 0)"/>
     <use xlink:href="#Arial-BoldMT-2e" transform="translate(1349.804688 0)"/>
     <use xlink:href="#Arial-BoldMT-37" transform="translate(1377.587891 0)"/>
     <use xlink:href="#Arial-BoldMT-34" transform="translate(1433.203125 0)"/>
     <use xlink:href="#Arial-BoldMT-20" transform="translate(1488.818359 0)"/>
     <use xlink:href="#Arial-BoldMT-6d" transform="translate(1516.601562 0)"/>
     <use xlink:href="#Arial-BoldMT-6d" transform="translate(1605.517578 0)"/>
     <use xlink:href="#Arial-BoldMT-2f" transform="translate(1694.433594 0)"/>
     <use xlink:href="#Arial-BoldMT-64" transform="translate(1722.216797 0)"/>
     <use xlink:href="#Arial-BoldMT-61" transform="translate(1783.300781 0)"/>
     <use xlink:href="#Arial-BoldMT-79" transform="translate(1838.916016 0)"/>
     <use xlink:href="#Arial-BoldMT-29" transform="translate(1894.53125 0)"/>
     <use xlink:href="#Arial-BoldMT-29" transform="translate(1927.832031 0)"/>
    </g>
   </g>
   <g id="legend_1">
    <g id="text_25">
     <!-- Method -->
     <g style="fill: #262626" transform="translate(785.108792 50.201812) scale(0.1 -0.1)">
      <defs>
       <path id="ArialMT-65" d="M 2694 1069 
L 3275 997 
Q 3138 488 2766 206 
Q 2394 -75 1816 -75 
Q 1088 -75 661 373 
Q 234 822 234 1631 
Q 234 2469 665 2931 
Q 1097 3394 1784 3394 
Q 2450 3394 2872 2941 
Q 3294 2488 3294 1666 
Q 3294 1616 3291 1516 
L 816 1516 
Q 847 969 1125 678 
Q 1403 388 1819 388 
Q 2128 388 2347 550 
Q 2566 713 2694 1069 
z
M 847 1978 
L 2700 1978 
Q 2663 2397 2488 2606 
Q 2219 2931 1791 2931 
Q 1403 2931 1139 2672 
Q 875 2413 847 1978 
z
" transform="scale(0.015625)"/>
       <path id="ArialMT-74" d="M 1650 503 
L 1731 6 
Q 1494 -44 1306 -44 
Q 1000 -44 831 53 
Q 663 150 594 308 
Q 525 466 525 972 
L 525 2881 
L 113 2881 
L 113 3319 
L 525 3319 
L 525 4141 
L 1084 4478 
L 1084 3319 
L 1650 3319 
L 1650 2881 
L 1084 2881 
L 1084 941 
Q 1084 700 1114 631 
Q 1144 563 1211 522 
Q 1278 481 1403 481 
Q 1497 481 1650 503 
z
" transform="scale(0.015625)"/>
       <path id="ArialMT-68" d="M 422 0 
L 422 4581 
L 984 4581 
L 984 2938 
Q 1378 3394 1978 3394 
Q 2347 3394 2619 3248 
Q 2891 3103 3008 2847 
Q 3125 2591 3125 2103 
L 3125 0 
L 2563 0 
L 2563 2103 
Q 2563 2525 2380 2717 
Q 2197 2909 1863 2909 
Q 1613 2909 1392 2779 
Q 1172 2650 1078 2428 
Q 984 2206 984 1816 
L 984 0 
L 422 0 
z
" transform="scale(0.015625)"/>
      </defs>
      <use xlink:href="#ArialMT-4d"/>
      <use xlink:href="#ArialMT-65" transform="translate(83.300781 0)"/>
      <use xlink:href="#ArialMT-74" transform="translate(138.916016 0)"/>
      <use xlink:href="#ArialMT-68" transform="translate(166.699219 0)"/>
      <use xlink:href="#ArialMT-6f" transform="translate(222.314453 0)"/>
      <use xlink:href="#ArialMT-64" transform="translate(277.929688 0)"/>
     </g>
    </g>
    <g id="patch_58">
     <path d="M 758.763167 63.131344 
L 776.763167 63.131344 
L 776.763167 56.831344 
L 758.763167 56.831344 
z
" style="fill: #176d9c; stroke: #333333; stroke-linejoin: miter"/>
    </g>
    <g id="text_26">
     <!-- Linear -->
     <g style="fill: #262626" transform="translate(783.963167 63.131344) scale(0.09 -0.09)">
      <defs>
       <path id="ArialMT-4c" d="M 469 0 
L 469 4581 
L 1075 4581 
L 1075 541 
L 3331 541 
L 3331 0 
L 469 0 
z
" transform="scale(0.015625)"/>
       <path id="ArialMT-69" d="M 425 3934 
L 425 4581 
L 988 4581 
L 988 3934 
L 425 3934 
z
M 425 0 
L 425 3319 
L 988 3319 
L 988 0 
L 425 0 
z
" transform="scale(0.015625)"/>
       <path id="ArialMT-6e" d="M 422 0 
L 422 3319 
L 928 3319 
L 928 2847 
Q 1294 3394 1984 3394 
Q 2284 3394 2536 3286 
Q 2788 3178 2913 3003 
Q 3038 2828 3088 2588 
Q 3119 2431 3119 2041 
L 3119 0 
L 2556 0 
L 2556 2019 
Q 2556 2363 2490 2533 
Q 2425 2703 2258 2804 
Q 2091 2906 1866 2906 
Q 1506 2906 1245 2678 
Q 984 2450 984 1813 
L 984 0 
L 422 0 
z
" transform="scale(0.015625)"/>
       <path id="ArialMT-72" d="M 416 0 
L 416 3319 
L 922 3319 
L 922 2816 
Q 1116 3169 1280 3281 
Q 1444 3394 1641 3394 
Q 1925 3394 2219 3213 
L 2025 2691 
Q 1819 2813 1613 2813 
Q 1428 2813 1281 2702 
Q 1134 2591 1072 2394 
Q 978 2094 978 1738 
L 978 0 
L 416 0 
z
" transform="scale(0.015625)"/>
      </defs>
      <use xlink:href="#ArialMT-4c"/>
      <use xlink:href="#ArialMT-69" transform="translate(55.615234 0)"/>
      <use xlink:href="#ArialMT-6e" transform="translate(77.832031 0)"/>
      <use xlink:href="#ArialMT-65" transform="translate(133.447266 0)"/>
      <use xlink:href="#ArialMT-61" transform="translate(189.0625 0)"/>
      <use xlink:href="#ArialMT-72" transform="translate(244.677734 0)"/>
     </g>
    </g>
    <g id="patch_59">
     <path d="M 758.763167 75.862125 
L 776.763167 75.862125 
L 776.763167 69.562125 
L 758.763167 69.562125 
z
" style="fill: #c38820; stroke: #333333; stroke-linejoin: miter"/>
    </g>
    <g id="text_27">
     <!-- WGAN-GP raw -->
     <g style="fill: #262626" transform="translate(783.963167 75.862125) scale(0.09 -0.09)">
      <defs>
       <path id="ArialMT-57" d="M 1294 0 
L 78 4581 
L 700 4581 
L 1397 1578 
Q 1509 1106 1591 641 
Q 1766 1375 1797 1488 
L 2669 4581 
L 3400 4581 
L 4056 2263 
Q 4303 1400 4413 641 
Q 4500 1075 4641 1638 
L 5359 4581 
L 5969 4581 
L 4713 0 
L 4128 0 
L 3163 3491 
Q 3041 3928 3019 4028 
Q 2947 3713 2884 3491 
L 1913 0 
L 1294 0 
z
" transform="scale(0.015625)"/>
       <path id="ArialMT-47" d="M 2638 1797 
L 2638 2334 
L 4578 2338 
L 4578 638 
Q 4131 281 3656 101 
Q 3181 -78 2681 -78 
Q 2006 -78 1454 211 
Q 903 500 622 1047 
Q 341 1594 341 2269 
Q 341 2938 620 3517 
Q 900 4097 1425 4378 
Q 1950 4659 2634 4659 
Q 3131 4659 3532 4498 
Q 3934 4338 4162 4050 
Q 4391 3763 4509 3300 
L 3963 3150 
Q 3859 3500 3706 3700 
Q 3553 3900 3268 4020 
Q 2984 4141 2638 4141 
Q 2222 4141 1919 4014 
Q 1616 3888 1430 3681 
Q 1244 3475 1141 3228 
Q 966 2803 966 2306 
Q 966 1694 1177 1281 
Q 1388 869 1791 669 
Q 2194 469 2647 469 
Q 3041 469 3416 620 
Q 3791 772 3984 944 
L 3984 1797 
L 2638 1797 
z
" transform="scale(0.015625)"/>
       <path id="ArialMT-4e" d="M 488 0 
L 488 4581 
L 1109 4581 
L 3516 984 
L 3516 4581 
L 4097 4581 
L 4097 0 
L 3475 0 
L 1069 3600 
L 1069 0 
L 488 0 
z
" transform="scale(0.015625)"/>
       <path id="ArialMT-2d" d="M 203 1375 
L 203 1941 
L 1931 1941 
L 1931 1375 
L 203 1375 
z
" transform="scale(0.015625)"/>
       <path id="ArialMT-50" d="M 494 0 
L 494 4581 
L 2222 4581 
Q 2678 4581 2919 4538 
Q 3256 4481 3484 4323 
Q 3713 4166 3852 3881 
Q 3991 3597 3991 3256 
Q 3991 2672 3619 2267 
Q 3247 1863 2275 1863 
L 1100 1863 
L 1100 0 
L 494 0 
z
M 1100 2403 
L 2284 2403 
Q 2872 2403 3119 2622 
Q 3366 2841 3366 3238 
Q 3366 3525 3220 3729 
Q 3075 3934 2838 4000 
Q 2684 4041 2272 4041 
L 1100 4041 
L 1100 2403 
z
" transform="scale(0.015625)"/>
       <path id="ArialMT-77" d="M 1034 0 
L 19 3319 
L 600 3319 
L 1128 1403 
L 1325 691 
Q 1338 744 1497 1375 
L 2025 3319 
L 2603 3319 
L 3100 1394 
L 3266 759 
L 3456 1400 
L 4025 3319 
L 4572 3319 
L 3534 0 
L 2950 0 
L 2422 1988 
L 2294 2553 
L 1622 0 
L 1034 0 
z
" transform="scale(0.015625)"/>
      </defs>
      <use xlink:href="#ArialMT-57"/>
      <use xlink:href="#ArialMT-47" transform="translate(94.384766 0)"/>
      <use xlink:href="#ArialMT-41" transform="translate(172.167969 0)"/>
      <use xlink:href="#ArialMT-4e" transform="translate(238.867188 0)"/>
      <use xlink:href="#ArialMT-2d" transform="translate(311.083984 0)"/>
      <use xlink:href="#ArialMT-47" transform="translate(344.384766 0)"/>
      <use xlink:href="#ArialMT-50" transform="translate(422.167969 0)"/>
      <use xlink:href="#ArialMT-20" transform="translate(487.117188 0)"/>
      <use xlink:href="#ArialMT-72" transform="translate(514.900391 0)"/>
      <use xlink:href="#ArialMT-61" transform="translate(548.201172 0)"/>
      <use xlink:href="#ArialMT-77" transform="translate(603.816406 0)"/>
     </g>
    </g>
    <g id="patch_60">
     <path d="M 758.763167 88.592906 
L 776.763167 88.592906 
L 776.763167 82.292906 
L 758.763167 82.292906 
z
" style="fill: #158b6a; stroke: #333333; stroke-linejoin: miter"/>
    </g>
    <g id="text_28">
     <!-- SAITS -->
     <g style="fill: #262626" transform="translate(783.963167 88.592906) scale(0.09 -0.09)">
      <defs>
       <path id="ArialMT-49" d="M 597 0 
L 597 4581 
L 1203 4581 
L 1203 0 
L 597 0 
z
" transform="scale(0.015625)"/>
       <path id="ArialMT-54" d="M 1659 0 
L 1659 4041 
L 150 4041 
L 150 4581 
L 3781 4581 
L 3781 4041 
L 2266 4041 
L 2266 0 
L 1659 0 
z
" transform="scale(0.015625)"/>
      </defs>
      <use xlink:href="#ArialMT-53"/>
      <use xlink:href="#ArialMT-41" transform="translate(66.699219 0)"/>
      <use xlink:href="#ArialMT-49" transform="translate(133.398438 0)"/>
      <use xlink:href="#ArialMT-54" transform="translate(161.181641 0)"/>
      <use xlink:href="#ArialMT-53" transform="translate(222.265625 0)"/>
     </g>
    </g>
    <g id="patch_61">
     <path d="M 758.763167 101.433375 
L 776.763167 101.433375 
L 776.763167 95.133375 
L 758.763167 95.133375 
z
" style="fill: #ba611b; stroke: #333333; stroke-linejoin: miter"/>
    </g>
    <g id="text_29">
     <!-- Precip2Stage -->
     <g style="fill: #262626" transform="translate(783.963167 101.433375) scale(0.09 -0.09)">
      <defs>
       <path id="ArialMT-70" d="M 422 -1272 
L 422 3319 
L 934 3319 
L 934 2888 
Q 1116 3141 1344 3267 
Q 1572 3394 1897 3394 
Q 2322 3394 2647 3175 
Q 2972 2956 3137 2557 
Q 3303 2159 3303 1684 
Q 3303 1175 3120 767 
Q 2938 359 2589 142 
Q 2241 -75 1856 -75 
Q 1575 -75 1351 44 
Q 1128 163 984 344 
L 984 -1272 
L 422 -1272 
z
M 931 1641 
Q 931 1000 1190 694 
Q 1450 388 1819 388 
Q 2194 388 2461 705 
Q 2728 1022 2728 1688 
Q 2728 2322 2467 2637 
Q 2206 2953 1844 2953 
Q 1484 2953 1207 2617 
Q 931 2281 931 1641 
z
" transform="scale(0.015625)"/>
       <path id="ArialMT-67" d="M 319 -275 
L 866 -356 
Q 900 -609 1056 -725 
Q 1266 -881 1628 -881 
Q 2019 -881 2231 -725 
Q 2444 -569 2519 -288 
Q 2563 -116 2559 434 
Q 2191 0 1641 0 
Q 956 0 581 494 
Q 206 988 206 1678 
Q 206 2153 378 2554 
Q 550 2956 876 3175 
Q 1203 3394 1644 3394 
Q 2231 3394 2613 2919 
L 2613 3319 
L 3131 3319 
L 3131 450 
Q 3131 -325 2973 -648 
Q 2816 -972 2473 -1159 
Q 2131 -1347 1631 -1347 
Q 1038 -1347 672 -1080 
Q 306 -813 319 -275 
z
M 784 1719 
Q 784 1066 1043 766 
Q 1303 466 1694 466 
Q 2081 466 2343 764 
Q 2606 1063 2606 1700 
Q 2606 2309 2336 2618 
Q 2066 2928 1684 2928 
Q 1309 2928 1046 2623 
Q 784 2319 784 1719 
z
" transform="scale(0.015625)"/>
      </defs>
      <use xlink:href="#ArialMT-50"/>
      <use xlink:href="#ArialMT-72" transform="translate(66.699219 0)"/>
      <use xlink:href="#ArialMT-65" transform="translate(100 0)"/>
      <use xlink:href="#ArialMT-63" transform="translate(155.615234 0)"/>
      <use xlink:href="#ArialMT-69" transform="translate(205.615234 0)"/>
      <use xlink:href="#ArialMT-70" transform="translate(227.832031 0)"/>
      <use xlink:href="#ArialMT-32" transform="translate(283.447266 0)"/>
      <use xlink:href="#ArialMT-53" transform="translate(339.0625 0)"/>
      <use xlink:href="#ArialMT-74" transform="translate(405.761719 0)"/>
      <use xlink:href="#ArialMT-61" transform="translate(433.544922 0)"/>
      <use xlink:href="#ArialMT-67" transform="translate(489.160156 0)"/>
      <use xlink:href="#ArialMT-65" transform="translate(544.775391 0)"/>
     </g>
    </g>
    <g id="patch_62">
     <path d="M 758.763167 114.269625 
L 776.763167 114.269625 
L 776.763167 107.969625 
L 758.763167 107.969625 
z
" style="fill: #c282b5; stroke: #333333; stroke-linejoin: miter"/>
    </g>
    <g id="text_30">
     <!-- DLPIF -->
     <g style="fill: #262626" transform="translate(783.963167 114.269625) scale(0.09 -0.09)">
      <defs>
       <path id="ArialMT-44" d="M 494 0 
L 494 4581 
L 2072 4581 
Q 2606 4581 2888 4516 
Q 3281 4425 3559 4188 
Q 3922 3881 4101 3404 
Q 4281 2928 4281 2316 
Q 4281 1794 4159 1391 
Q 4038 988 3847 723 
Q 3656 459 3429 307 
Q 3203 156 2883 78 
Q 2563 0 2147 0 
L 494 0 
z
M 1100 541 
L 2078 541 
Q 2531 541 2789 625 
Q 3047 709 3200 863 
Q 3416 1078 3536 1442 
Q 3656 1806 3656 2325 
Q 3656 3044 3420 3430 
Q 3184 3816 2847 3947 
Q 2603 4041 2063 4041 
L 1100 4041 
L 1100 541 
z
" transform="scale(0.015625)"/>
       <path id="ArialMT-46" d="M 525 0 
L 525 4581 
L 3616 4581 
L 3616 4041 
L 1131 4041 
L 1131 2622 
L 3281 2622 
L 3281 2081 
L 1131 2081 
L 1131 0 
L 525 0 
z
" transform="scale(0.015625)"/>
      </defs>
      <use xlink:href="#ArialMT-44"/>
      <use xlink:href="#ArialMT-4c" transform="translate(72.216797 0)"/>
      <use xlink:href="#ArialMT-50" transform="translate(127.832031 0)"/>
      <use xlink:href="#ArialMT-49" transform="translate(194.53125 0)"/>
      <use xlink:href="#ArialMT-46" transform="translate(222.314453 0)"/>
     </g>
    </g>
   </g>
  </g>
 </g>
 <defs>
  <clipPath id="p9b5fe9b50d">
   <rect x="44.195312" y="34.944" width="320.756364" height="289.31875"/>
  </clipPath>
  <clipPath id="p87481c9cfe">
   <rect x="423.491676" y="34.944" width="320.756364" height="289.31875"/>
  </clipPath>
 </defs>
</svg>
